<svg xmlns="http://www.w3.org/2000/svg" version="1.1"><polyline points="246.5,131.5,242.5,140.5,239.5,148.5,243.0,140.5,251.0,138.5" stroke="black" stroke-width="2" fill="none" />
<polyline points="250.0,141.0,242.0,148.0,234.5,155.0" stroke="black" stroke-width="2" fill="none" />
<polyline points="228.5,155.0,236.0,147.5" stroke="black" stroke-width="2" fill="none" />
<polyline points="242.5,154.5,250.5,146.5,259.0,139.0" stroke="black" stroke-width="2" fill="none" />
<polyline points="268.5,139.5,261.0,147.0,253.0,154.0" stroke="black" stroke-width="2" fill="none" />
<polyline points="261.0,155.0,268.5,147.5,276.5,140.0" stroke="black" stroke-width="2" fill="none" />
<polyline points="284.0,140.0,276.0,147.5,267.5,154.5,259.5,161.5" stroke="black" stroke-width="2" fill="none" />
<polyline points="274.5,161.0,282.5,154.0,290.0,146.5" stroke="black" stroke-width="2" fill="none" />
<polyline points="283.0,148.5,275.0,156.0,266.5,164.0" stroke="black" stroke-width="2" fill="none" />
<polyline points="275.5,169.0,283.5,162.0,292.0,155.5" stroke="black" stroke-width="2" fill="none" />
<polyline points="290.5,161.0,282.5,168.5" stroke="black" stroke-width="2" fill="none" />
<polyline points="274.5,175.0,282.5,174.5,291.0,174.5" stroke="black" stroke-width="2" fill="none" />
<polyline points="291.0,180.0,283.5,181.0,276.0,182.0" stroke="black" stroke-width="2" fill="none" />
<polyline points="267.0,187.5,259.5,195.0,251.5,202.5" stroke="black" stroke-width="2" fill="none" />
<polyline points="252.5,200.5,260.5,199.0" stroke="black" stroke-width="2" fill="none" />
<polyline points="259.0,203.5,267.0,196.0" stroke="black" stroke-width="2" fill="none" />
<polyline points="267.5,198.0,252.5,199.0" stroke="black" stroke-width="2" fill="none" />
<polyline points="248.5,191.0,256.5,187.5,264.5,188.5,272.5,194.5,273.5,196.0" stroke="black" stroke-width="2" fill="none" />
<polyline points="266.5,225.0,258.5,225.0,250.5,226.0,242.0,226.5,233.5,227.0,225.5,227.0,217.0,227.5,209.5,228.0" stroke="black" stroke-width="2" fill="none" />
<polyline points="210.5,220.0,218.5,219.5,226.5,218.5,234.5,218.0,243.5,217.5,251.5,217.5,259.0,217.5,267.0,217.5,274.5,217.0" stroke="black" stroke-width="2" fill="none" />
<polyline points="257.5,235.0,249.5,235.5,241.5,236.0,234.0,236.5,226.0,237.5,218.5,238.5,210.5,239.0" stroke="black" stroke-width="2" fill="none" />
<polyline points="203.0,243.5,211.0,243.0,219.0,242.5,227.0,242.0,234.5,241.5,242.5,241.0,250.0,241.0,258.5,241.0" stroke="black" stroke-width="2" fill="none" />
<polyline points="258.0,241.5,266.0,228.5,274.0,224.5,281.5,212.5,285.5,205.5,281.5,213.5,275.5,221.5" stroke="black" stroke-width="2" fill="none" />
<polyline points="281.5,208.5,273.5,208.5,266.0,209.0,258.5,210.0,250.5,211.0,243.0,211.5,234.5,212.0,226.5,213.0,219.0,213.5,210.5,214.5" stroke="black" stroke-width="2" fill="none" />
<polyline points="202.5,204.0,211.0,203.5,219.5,203.5,228.0,203.0,236.0,202.5,243.5,201.5,251.5,201.5,259.5,201.0,267.0,200.5,274.0,201.0,282.0,200.5,290.5,200.0" stroke="black" stroke-width="2" fill="none" />
<polyline points="266.0,179.5,257.5,180.0,249.5,180.0,241.5,181.0,234.0,182.0,226.0,182.5,218.0,183.0,210.5,183.5" stroke="black" stroke-width="2" fill="none" />
<polyline points="214.5,181.0,222.5,177.0,230.0,179.0,237.5,183.0" stroke="black" stroke-width="2" fill="none" />
<polyline points="234.5,180.5,226.5,188.0,218.5,195.0" stroke="black" stroke-width="2" fill="none" />
<polyline points="218.0,192.0,226.5,197.0,234.5,193.0" stroke="black" stroke-width="2" fill="none" />
<polyline points="233.5,187.0,226.0,194.5" stroke="black" stroke-width="2" fill="none" />
<polyline points="229.5,198.0,235.5,190.0,229.5,191.0,221.0,191.0" stroke="black" stroke-width="2" fill="none" />
<polyline points="218.5,194.5,216.5,186.5,215.5,190.0" stroke="black" stroke-width="2" fill="none" />
<polyline points="215.0,185.0,222.5,184.5,230.5,187.5" stroke="black" stroke-width="2" fill="none" />
<polyline points="233.5,180.5,225.5,180.5,217.5,180.5" stroke="black" stroke-width="2" fill="none" />
<polyline points="211.5,176.0,219.5,158.0,227.0,153.0,235.0,153.0,243.5,153.5,251.5,157.5,259.5,160.5,267.0,163.0,275.0,167.0,281.5,180.0" stroke="black" stroke-width="2" fill="none" />
<polyline points="290.5,145.0,282.5,146.0,275.0,147.0,267.0,147.5,259.5,148.0,251.5,148.5,243.0,148.5,235.0,149.0,226.5,149.5,218.5,150.0" stroke="black" stroke-width="2" fill="none" />
<polyline points="217.0,152.0,223.0,156.0,216.0,163.5,213.5,171.5,212.0,179.5,206.0,188.0,202.0,194.5,202.0,202.5,205.5,210.5,205.5,218.5,206.5,226.5,209.5,234.5,206.5,242.5,202.5,251.0,193.5,259.0,173.5,267.0,153.5,275.0,139.5,282.5,137.0,290.5,136.0,298.5,133.0,307.0,131.0,315.0,128.5,323.0,127.0,331.0,126.0,339.5,123.5,347.5,121.5,355.5,123.0,363.0,126.0,371.0,124.5,379.0" stroke="black" stroke-width="2" fill="none" />
<polyline points="123.0,380.5,131.0,380.5,139.0,380.5,147.0,380.5,155.0,380.5,164.0,380.0,172.0,379.5,180.0,378.5,188.0,377.5,196.5,376.5,204.5,376.0,212.0,376.0,220.0,376.0,227.5,375.5,235.5,375.0,243.5,374.5,252.0,374.0,260.5,373.0,269.0,372.5,277.5,371.0,286.0,370.0,293.5,370.0,301.0,369.5,309.0,369.0,316.0,368.5,324.0,368.0,332.0,368.0" stroke="black" stroke-width="2" fill="none" />
<polyline points="340.0,363.5,332.0,371.0,324.0,377.5" stroke="black" stroke-width="2" fill="none" />
<polyline points="315.0,379.5,323.5,372.0,332.0,364.0,340.0,356.5" stroke="black" stroke-width="2" fill="none" />
<polyline points="340.5,348.0,332.5,355.5,324.5,362.5,316.0,370.5,307.5,378.0,299.0,386.0" stroke="black" stroke-width="2" fill="none" />
<polyline points="292.5,386.0,301.0,377.5,308.5,370.0,316.5,362.0,325.0,354.0,333.0,346.0,341.5,338.5" stroke="black" stroke-width="2" fill="none" />
<polyline points="332.5,338.0,324.5,345.5,316.5,353.5,308.0,362.0,299.5,370.0,291.5,378.0,283.5,385.5" stroke="black" stroke-width="2" fill="none" />
<polyline points="275.5,382.5,284.0,375.5,292.0,368.0,300.0,360.5,307.5,353.5,315.0,345.5,323.0,338.5,330.5,330.5" stroke="black" stroke-width="2" fill="none" />
<polyline points="332.0,322.5,324.0,330.0,316.0,337.5,307.5,345.0,298.5,353.0,290.5,360.5,282.5,368.0,274.5,375.5,266.5,383.0" stroke="black" stroke-width="2" fill="none" />
<polyline points="258.5,382.0,266.0,374.5,274.0,367.0,282.5,359.0,290.5,351.5,298.0,343.5,306.5,336.0,315.0,328.5,323.5,320.5,332.0,313.0" stroke="black" stroke-width="2" fill="none" />
<polyline points="332.5,306.0,324.5,313.5,316.0,321.5,308.0,329.0,299.5,336.5,291.5,344.0,283.5,351.5,275.0,360.0,266.5,368.5,259.0,377.0,250.5,384.5" stroke="black" stroke-width="2" fill="none" />
<polyline points="242.5,384.5,250.5,377.0,258.0,369.5,266.0,362.0,274.0,354.0,282.5,346.0,290.5,338.5,299.0,330.0,308.5,321.5,317.0,313.5,324.5,306.0,332.5,299.0" stroke="black" stroke-width="2" fill="none" />
<polyline points="323.0,301.0,315.5,308.0,307.5,315.5,299.0,322.5,291.5,329.5,283.5,337.0,275.0,344.5,266.0,353.0,257.5,360.5,249.5,368.5,241.5,376.0,233.5,383.5" stroke="black" stroke-width="2" fill="none" />
<polyline points="226.5,382.0,234.0,374.5,242.0,366.5,250.0,359.0,258.5,351.5,266.0,344.5,273.5,338.0,281.0,331.0,289.0,323.5,297.5,316.5,306.0,309.0,315.0,301.0,323.0,293.0" stroke="black" stroke-width="2" fill="none" />
<polyline points="322.5,285.0,314.5,292.5,307.0,300.0,299.0,307.5,291.5,314.5,283.5,322.0,275.5,329.5,267.0,336.5,259.0,343.5,250.5,351.0,243.0,358.5,234.5,366.0,227.0,373.5,219.5,381.0" stroke="black" stroke-width="2" fill="none" />
<polyline points="211.0,380.0,218.5,372.5,226.0,365.0,233.5,357.0,242.0,350.0,250.5,342.5,259.5,335.5,268.0,328.5,276.5,321.0,285.5,313.5,294.0,306.0,302.0,298.5,309.5,291.0,317.5,283.0" stroke="black" stroke-width="2" fill="none" />
<polyline points="309.0,283.0,301.0,290.5,293.0,298.5,285.0,306.5,277.0,314.0,268.5,321.5,259.5,329.5,250.5,337.0,242.0,344.0,234.0,351.0,225.5,358.5,218.0,366.5,210.0,374.5,202.5,382.0" stroke="black" stroke-width="2" fill="none" />
<polyline points="195.0,381.5,202.0,374.5,209.5,367.0,218.0,359.5,225.5,352.5,234.0,344.5,242.5,336.5,250.5,328.5,258.0,321.0,266.5,313.0,275.0,305.0,284.0,297.5,292.5,289.5,301.0,282.5,308.5,275.5" stroke="black" stroke-width="2" fill="none" />
<polyline points="299.5,276.0,291.5,283.5,284.0,290.5,276.0,298.0,268.0,305.5,260.0,313.5,251.5,321.0,243.5,328.0,235.5,335.0,227.0,342.5,218.5,350.5,211.0,358.0,203.0,365.5,195.0,373.0,187.0,380.5" stroke="black" stroke-width="2" fill="none" />
<polyline points="179.5,381.0,188.0,373.5,196.0,365.5,204.0,358.0,212.5,350.5,220.5,343.0,228.0,336.0,236.0,328.5,244.5,320.5,253.5,313.0,261.0,305.5,268.5,299.0,276.5,291.5,285.0,283.5,293.5,275.5" stroke="black" stroke-width="2" fill="none" />
<polyline points="290.5,266.5,282.5,274.0,275.0,282.0,267.5,289.5,260.0,297.5,252.0,305.0,244.0,312.5,236.0,320.0" stroke="black" stroke-width="2" fill="none" />
<polyline points="237.0,322.0,245.5,322.0,253.5,321.0,260.5,321.0,268.0,320.5,275.5,320.0,283.5,319.5,291.0,319.0,298.5,318.5,307.0,317.5,315.0,317.0,323.0,316.5,330.5,316.5" stroke="black" stroke-width="2" fill="none" />
<polyline points="333.0,332.0,324.5,332.5,316.5,333.0,308.0,333.5,300.0,334.0,291.5,334.0,283.0,334.0,275.0,334.0,266.5,335.0,258.0,335.5,249.5,336.0,241.5,336.5,233.0,337.5" stroke="black" stroke-width="2" fill="none" />
<polyline points="230.0,330.0,221.5,338.0,213.0,345.5,205.0,353.0,196.0,360.5,188.0,368.0,180.0,376.0,172.5,383.0" stroke="black" stroke-width="2" fill="none" />
<polyline points="163.5,384.5,171.5,376.5,180.0,368.5,188.0,360.5,196.0,352.5,204.0,344.5,211.5,336.5,219.0,329.0,226.5,321.5" stroke="black" stroke-width="2" fill="none" />
<polyline points="225.5,313.5,217.5,321.0,209.5,329.5,201.5,337.5,194.0,345.5,186.5,353.5,178.5,361.5,171.0,369.5,163.0,377.5,155.0,384.5" stroke="black" stroke-width="2" fill="none" />
<polyline points="154.5,386.0,162.5,385.0,170.5,384.5,178.5,383.5,187.0,383.0,195.5,382.5,204.0,381.5,212.0,380.5,220.0,380.0,229.0,380.0,237.0,379.5,244.5,379.5,252.0,379.0,260.0,378.5,267.5,378.0,275.0,377.5,283.0,377.0,291.0,376.0,298.5,375.0" stroke="black" stroke-width="2" fill="none" />
<polyline points="302.5,374.0,311.0,375.0,319.0,375.0,326.5,374.5,334.0,369.5" stroke="black" stroke-width="2" fill="none" />
<polyline points="331.0,325.0,322.5,325.0,314.5,325.0,307.0,325.5,299.5,326.0,292.0,326.5,284.5,327.0,276.5,327.5,268.5,327.5,260.0,328.5,251.5,328.5,243.0,328.5,235.0,329.0" stroke="black" stroke-width="2" fill="none" />
<polyline points="236.0,314.0,244.0,313.5,252.0,313.5,260.0,313.0,267.5,312.0,275.5,311.5,283.5,311.0,291.5,310.5,299.5,310.0,307.5,309.5,315.0,308.5,323.5,308.0,331.5,307.5" stroke="black" stroke-width="2" fill="none" />
<polyline points="283.0,268.0,275.5,275.5,267.5,282.5,259.5,290.0,252.0,297.5,244.0,305.5,236.5,312.5" stroke="black" stroke-width="2" fill="none" />
<polyline points="235.5,305.5,243.5,305.0,251.5,304.0,260.0,304.0,268.5,303.5,277.0,303.0,285.0,302.5,293.0,302.0,301.0,301.5,309.0,301.0,316.5,300.5,325.0,300.0" stroke="black" stroke-width="2" fill="none" />
<polyline points="276.5,266.5,268.0,274.0,260.5,281.0,252.0,288.5,243.5,296.5,235.0,304.5" stroke="black" stroke-width="2" fill="none" />
<polyline points="236.0,296.5,244.5,296.0,252.0,296.0,260.0,295.5,268.0,295.5,276.0,294.5,284.0,294.0,292.5,293.5,301.0,292.5,309.0,292.5,317.0,292.5,325.0,291.5" stroke="black" stroke-width="2" fill="none" />
<polyline points="277.0,259.0,269.0,266.5,260.5,274.0,252.0,282.0,243.5,290.0,235.5,297.5,227.5,305.0,219.0,312.5,211.0,320.0,203.5,327.0,195.5,334.5,187.5,342.0,179.0,350.0,171.0,358.0,163.0,365.0,155.5,372.5,147.0,379.5" stroke="black" stroke-width="2" fill="none" />
<polyline points="148.0,379.0,156.0,378.5,164.0,378.0,172.0,377.5,180.0,377.0,188.0,376.5,196.0,375.5,204.0,374.5,212.0,374.0,220.0,373.0,228.0,373.0,235.5,372.0,243.0,371.0,250.5,370.5,258.5,370.0,266.5,370.0,274.5,369.5,282.5,368.5,290.5,368.5,299.0,368.0,307.0,368.0" stroke="black" stroke-width="2" fill="none" />
<polyline points="268.0,264.5,260.0,265.0,252.0,264.5" stroke="black" stroke-width="2" fill="none" />
<polyline points="261.0,259.5,253.0,266.5,244.0,274.0,235.5,282.0,227.0,290.0,219.0,297.5,211.0,305.0,203.5,312.0,195.5,319.0,188.0,326.5,180.0,334.5,172.0,342.0,164.0,348.5,155.5,356.0,147.5,363.5,138.5,371.5" stroke="black" stroke-width="2" fill="none" />
<polyline points="140.0,379.0,148.0,372.0,156.0,365.0,164.5,357.5,172.5,350.5,180.5,343.5,188.5,336.5,196.5,328.5,203.5,321.5,211.0,314.0,218.5,306.0,226.5,298.5,234.5,291.0,243.0,283.5,251.0,276.0,258.5,268.0,266.5,260.0" stroke="black" stroke-width="2" fill="none" />
<polyline points="259.5,252.0,251.5,259.5,243.5,267.5,235.5,275.0,228.0,282.5,220.0,290.0,212.0,298.0,203.5,306.0,195.5,313.0,187.5,320.0,180.0,327.5,172.0,335.0,163.5,343.0,155.0,350.5,147.0,358.0,139.0,365.5,130.5,372.5" stroke="black" stroke-width="2" fill="none" />
<polyline points="130.5,368.5,138.5,368.0,146.5,367.5,155.0,367.0,163.5,366.5,172.0,366.5,180.0,366.0,188.0,366.0,196.0,365.5,203.5,365.5,211.5,364.5,219.5,364.0,227.5,363.0,236.0,363.0,244.5,362.5,253.0,362.0,261.0,361.5,269.0,361.0,277.0,360.5,285.0,360.0,292.5,359.5,301.0,359.0,309.0,358.0,317.0,357.0,325.0,356.5,332.5,356.5" stroke="black" stroke-width="2" fill="none" />
<polyline points="285.5,269.5,277.0,270.0,268.0,271.5,259.5,272.0,250.5,272.0,242.5,272.5" stroke="black" stroke-width="2" fill="none" />
<polyline points="234.5,266.5,226.5,274.5,218.5,282.5,211.0,290.0,203.5,298.5,196.0,306.0,188.0,312.5,180.0,319.5,172.5,326.5,164.5,333.5,156.5,341.0,148.5,348.5,140.5,356.5,132.0,365.0" stroke="black" stroke-width="2" fill="none" />
<polyline points="129.5,361.0,137.5,361.0,146.0,360.0,154.5,359.0,163.0,359.0,171.5,358.5,179.5,358.0,187.5,357.0,196.0,356.5,204.0,356.0,212.0,355.5,220.5,355.0,228.0,355.0,236.0,354.5,244.0,354.5,252.0,353.5,260.0,353.0,268.5,352.5,277.0,351.5,285.0,351.5,293.0,351.5,301.0,350.5,308.0,350.0,315.5,350.0,323.0,350.0,331.0,349.5,339.0,349.0" stroke="black" stroke-width="2" fill="none" />
<polyline points="265.5,248.0,257.5,248.5,249.5,249.5,241.5,250.0,234.5,250.5,227.0,250.5,219.5,250.5,212.5,250.0,204.5,250.0" stroke="black" stroke-width="2" fill="none" />
<polyline points="208.0,251.0,216.0,261.0,224.0,267.5,232.5,270.5,240.5,263.5,248.5,259.0,259.5,251.0,268.5,259.5,284.5,267.5,301.5,275.5,318.5,283.5,324.5,291.5,327.5,299.5,328.0,307.5,330.0,315.0,332.0,323.0,333.0,331.0,334.0,339.0,336.5,347.0,336.5,354.5,338.5,362.5,332.5,371.0,332.5,377.5" stroke="black" stroke-width="2" fill="none" />
<polyline points="283.5,255.0,275.5,256.5,267.0,257.5,259.0,257.5,250.5,257.5,242.5,257.5,234.5,257.5,226.5,258.0,219.5,258.5,212.5,258.5,205.5,259.0,198.0,259.5,190.0,260.0" stroke="black" stroke-width="2" fill="none" />
<polyline points="196.5,264.0,204.0,263.5,211.5,262.5" stroke="black" stroke-width="2" fill="none" />
<polyline points="210.0,259.5,202.0,267.5,194.5,274.5,187.0,281.5,180.0,289.0,172.0,297.0,164.5,304.0,156.0,311.5,148.0,319.5,139.5,327.5,131.5,335.0" stroke="black" stroke-width="2" fill="none" />
<polyline points="133.0,339.0,141.0,338.5,148.5,337.0,156.5,336.5,164.0,336.0,171.5,335.5,179.5,335.0,187.5,334.0,195.0,334.0,203.0,334.0,210.5,334.0,218.5,333.5,226.0,332.5" stroke="black" stroke-width="2" fill="none" />
<polyline points="218.5,315.5,210.5,316.0,202.5,316.5,194.5,316.5,187.0,317.0,179.5,317.5,171.0,318.5,162.5,319.5,154.5,321.0,147.0,322.5,139.0,323.0" stroke="black" stroke-width="2" fill="none" />
<polyline points="133.5,326.5,141.0,319.5,148.5,312.0,156.0,304.0,163.5,296.5,171.5,289.0,179.0,281.5,187.5,273.5,195.5,266.0,203.5,259.5,211.0,252.5" stroke="black" stroke-width="2" fill="none" />
<polyline points="218.5,260.5,210.5,268.0,202.5,275.5,194.5,283.0,187.0,290.5,179.0,297.5,171.5,305.0,164.0,312.0,156.5,319.0,149.0,326.5,140.5,334.5,133.0,341.5,124.5,348.5" stroke="black" stroke-width="2" fill="none" />
<polyline points="122.5,349.0,130.5,348.5,138.0,348.0,145.5,347.0,153.5,346.5,161.0,345.5,170.0,345.0,178.5,345.0,187.0,344.5,194.5,343.5,202.5,343.0,211.0,342.5,219.5,342.5,228.0,342.0,236.0,341.5,243.5,340.5,251.5,340.5,259.5,340.0,267.0,339.5,274.0,340.0,282.0,339.5,290.5,339.0,298.5,338.5,307.0,337.5,315.5,337.0,324.0,336.0,332.5,336.0,340.5,336.0" stroke="black" stroke-width="2" fill="none" />
<polyline points="306.5,270.5,298.0,271.5,289.5,273.0,281.5,274.5,273.5,275.5,265.5,276.0,257.5,276.5,249.0,277.5,241.0,278.0,233.5,278.5,226.0,279.0,218.5,279.5,211.5,280.0,204.0,280.5,196.5,280.0,189.0,279.5,181.5,279.5,173.5,280.0,165.5,280.0" stroke="black" stroke-width="2" fill="none" />
<polyline points="163.0,275.5,155.0,282.5,147.0,289.5,139.0,297.0" stroke="black" stroke-width="2" fill="none" />
<polyline points="139.5,297.5,148.0,296.5,156.0,296.0,164.0,295.5,171.5,295.0,179.0,294.5,187.0,294.0,195.0,293.5,203.0,293.0,211.0,293.0,219.0,292.0,227.0,291.5" stroke="black" stroke-width="2" fill="none" />
<polyline points="227.0,286.5,226.0,294.5,225.5,302.5,224.5,310.0,223.0,318.0,224.0,326.0,226.0,331.5" stroke="black" stroke-width="2" fill="none" />
<polyline points="218.5,308.0,210.5,309.0,202.5,309.0,194.5,309.5,186.5,309.5,179.0,310.0,171.0,310.5,163.0,311.5,154.5,312.5,146.5,314.0,139.0,315.0" stroke="black" stroke-width="2" fill="none" />
<polyline points="131.0,315.5,139.0,315.5,147.0,315.5,155.0,315.5,163.5,315.5,171.0,315.5,179.0,315.0,187.0,314.5,195.0,314.5,202.5,314.0,210.5,313.5,219.0,312.5,226.5,312.0,234.5,311.0,243.0,310.5,250.5,310.0,258.5,309.0,266.0,308.0,273.5,307.5,281.5,307.5,289.5,307.0,298.0,306.5,306.0,305.5,314.5,305.5,323.0,305.0,331.5,304.5,339.5,304.0" stroke="black" stroke-width="2" fill="none" />
<polyline points="299.0,260.0,291.0,260.5,283.0,260.5,274.5,261.5,267.0,262.0,259.0,262.5,251.0,263.5,243.0,264.5,234.5,264.5,226.5,265.0,218.5,265.5,210.5,266.0,202.5,266.0,195.0,266.5,187.0,267.0,179.0,267.5,171.5,268.5,163.5,269.0" stroke="black" stroke-width="2" fill="none" />
<polyline points="177.0,269.0,169.0,276.5,161.5,283.5,153.5,291.0,145.5,298.5,137.5,305.5,129.5,312.0" stroke="black" stroke-width="2" fill="none" />
<polyline points="130.0,309.0,138.0,309.0,146.0,309.0,154.5,308.5,162.5,308.5,170.5,308.5,178.5,308.5,186.5,308.0,194.5,307.5,202.5,307.0,210.5,306.5,218.0,306.0,226.0,305.5,234.0,305.0,241.5,304.0,249.5,303.0,257.5,303.0,266.0,302.5,274.0,301.5,282.5,301.0,290.5,300.5,298.5,300.0,306.5,299.0,315.0,298.0,324.0,297.0,332.0,296.0" stroke="black" stroke-width="2" fill="none" />
<polyline points="315.0,280.0,307.0,280.5,299.0,281.5,291.0,282.0,282.5,282.5,274.5,283.5,266.5,284.0,259.0,284.5,251.0,285.0,243.0,285.5,234.5,285.5,226.5,286.0,218.5,286.5,211.0,287.0,203.5,287.5,195.5,288.0,188.0,288.5,180.0,289.0,172.5,290.0,164.5,291.0,156.5,291.5,148.5,292.0" stroke="black" stroke-width="2" fill="none" />
<polyline points="140.5,290.5,149.0,282.5" stroke="black" stroke-width="2" fill="none" />
<polyline points="146.5,277.5,154.5,277.5,163.5,277.0,171.5,276.5,179.5,275.5,187.5,274.5,196.0,274.0,204.0,273.0,212.0,272.5,220.0,272.5,228.0,271.5,236.0,272.0,244.0,271.5,252.0,271.5,260.0,271.0,268.5,270.5,276.5,270.0,284.5,270.0,292.5,269.5,300.5,268.5,308.0,268.0,316.0,267.5" stroke="black" stroke-width="2" fill="none" />
<polyline points="331.0,282.0,323.0,283.0,314.5,283.5,307.0,283.5,299.0,284.0,291.0,284.5,282.5,285.5,275.0,286.0,267.5,286.5,259.5,287.0,252.0,287.5,244.5,288.0,237.5,288.0,229.5,289.0,221.0,289.0,213.0,290.0,205.0,291.0,196.0,291.5,187.0,291.5,178.5,291.5,170.5,292.0,162.5,292.5,154.0,293.0,145.5,293.0,137.0,293.5" stroke="black" stroke-width="2" fill="none" />
<polyline points="136.0,289.5,143.5,279.5,151.5,276.0,159.5,273.5,168.0,269.5,176.5,267.0,184.5,264.0,192.5,260.5,200.5,254.0,208.5,239.0,209.0,246.0,210.5,254.0,217.5,262.5,228.0,270.5" stroke="black" stroke-width="2" fill="none" />
<polyline points="227.0,267.0,219.0,274.0,211.0,281.5,202.5,289.5,194.0,297.5,186.0,305.0,178.5,313.0,171.0,321.5,163.0,329.0,155.0,336.5,146.5,344.0,138.5,351.5,131.0,359.0,123.0,366.5" stroke="black" stroke-width="2" fill="none" />
<polyline points="125.0,366.5,133.0,366.0,141.5,365.5,150.0,365.0,158.0,363.5,165.5,362.0,173.5,361.5,181.0,360.5,188.5,359.5,196.5,358.5,204.5,357.0,212.5,357.0,219.5,357.5,227.0,357.5,234.5,357.5,241.5,357.0,249.5,356.5,257.5,355.5,265.5,355.0,273.5,354.5,281.5,353.5,289.5,353.0,297.5,353.5,305.5,353.5,314.0,353.5,322.5,353.5,330.5,353.5,339.0,353.5" stroke="black" stroke-width="2" fill="none" />
<polyline points="225.5,299.5,217.0,300.5,210.0,300.5,202.0,301.0,194.5,301.0,187.5,300.5,180.5,300.5,173.0,301.5,165.0,302.5,157.5,303.0,150.0,303.5,142.0,304.0" stroke="black" stroke-width="2" fill="none" />
<polyline points="132.0,300.5,139.5,300.0,147.0,299.5,154.0,299.5,162.0,299.0,170.0,298.5,178.5,298.5,187.0,298.5,195.5,298.0,203.0,297.5,211.5,296.5,219.5,296.0,228.0,295.5,236.0,295.0,244.0,294.5,252.0,294.0,260.0,293.5,268.0,293.0,276.0,293.0,284.0,292.5,292.0,291.5,300.5,291.0,308.5,291.0,316.5,290.0,324.5,289.0,332.5,288.5" stroke="black" stroke-width="2" fill="none" />
<polyline points="324.0,274.0,315.5,274.5,307.5,275.0,299.0,275.5,291.5,276.5,283.5,277.0,275.5,277.5,267.5,278.0,259.5,278.5,251.5,279.0,244.0,280.0,236.0,280.5,228.0,280.5,220.0,281.0,212.0,281.5,203.5,282.0,195.5,282.5,187.5,283.0,179.5,283.0,171.0,283.5,162.5,283.5,154.5,284.0,146.5,284.5,138.0,285.0" stroke="black" stroke-width="2" fill="none" />
<polyline points="130.5,319.0,138.5,311.5,146.5,304.0,154.5,297.0,162.0,290.5,170.0,283.5,178.5,276.5,186.5,269.0" stroke="black" stroke-width="2" fill="none" />
<polyline points="180.5,273.0,189.0,272.5,196.5,272.5,204.0,272.5,211.5,272.0,219.0,272.0,226.5,272.0" stroke="black" stroke-width="2" fill="none" />
<polyline points="217.5,267.5,209.5,275.5,201.5,283.0,194.0,290.5,186.5,298.0,179.0,305.0,171.5,312.5,164.5,320.0,156.5,327.5,149.0,334.5,141.0,342.0,133.0,349.5,125.0,357.5" stroke="black" stroke-width="2" fill="none" />
<polyline points="123.0,358.0,131.5,357.5,140.0,357.0,148.0,356.0,155.5,355.0,163.5,354.5,171.5,353.5,180.0,352.5,188.0,352.0,195.5,351.0,203.0,350.5,211.0,350.0,219.0,349.5,227.0,349.0,234.5,348.5,242.5,348.0,250.0,348.0,258.5,348.0,267.0,347.5,275.5,347.0,283.0,347.0,291.0,346.0,299.0,345.5,306.5,345.5,314.0,345.5,322.0,345.0,330.5,345.0,339.0,345.5" stroke="black" stroke-width="2" fill="none" />
<polyline points="332.0,342.0,324.0,342.5,315.5,343.0,307.5,343.5,299.5,343.5,291.5,344.0,283.5,344.5,276.0,344.5,268.5,345.0,261.0,346.0,252.5,346.5,244.5,346.5,236.0,346.0,227.5,346.0,219.0,346.0,211.0,346.5,203.0,347.0,196.0,347.5,188.0,348.5,180.0,349.5,171.5,350.5,163.5,352.0,155.0,353.5,146.5,354.5,137.0,355.5,129.0,356.5" stroke="black" stroke-width="2" fill="none" />
<polyline points="131.0,348.5,139.0,347.5,146.5,347.0,154.5,346.5,162.5,345.0,170.5,344.0,179.0,343.0,187.0,343.0,195.0,342.0,202.5,341.5,210.5,341.0,218.5,340.5,227.0,340.0,235.0,339.5,243.5,339.5,251.5,339.0,259.0,338.5,267.0,338.0,274.5,337.0,282.5,336.0,291.0,335.0,298.5,334.5,306.5,334.5,314.5,334.0,322.5,333.5,330.5,333.0" stroke="black" stroke-width="2" fill="none" />
<polyline points="338.0,312.0,329.5,313.0,321.5,313.0,314.0,313.0,306.0,313.5,298.0,314.5,289.5,315.0,282.0,315.5,274.5,316.0,267.0,316.5,259.0,316.5,251.5,316.5,243.5,316.5,234.5,317.0,226.5,317.5,218.5,318.5,210.5,319.0,202.0,319.0,194.0,320.0,186.0,320.5,178.5,321.5,170.5,322.5,162.5,322.5,154.0,322.0,146.0,322.5,138.5,323.0,130.5,323.5" stroke="black" stroke-width="2" fill="none" />
<polyline points="132.5,329.5,140.0,329.0,147.0,328.5,154.5,328.0,162.5,327.0,170.5,326.5,178.5,326.0,185.5,325.0,193.5,324.0,201.5,323.5,209.5,323.0,217.0,322.5" stroke="black" stroke-width="2" fill="none" />
<polyline points="233.5,325.5,233.5,318.0,233.5,310.5,232.5,302.5,231.0,294.5,230.0,287.0" stroke="black" stroke-width="2" fill="none" />
<polyline points="261.5,248.5,269.5,256.5,277.5,260.5,285.0,265.0,293.0,268.5,300.5,273.0,308.0,277.0,315.5,280.0,323.0,288.0" stroke="black" stroke-width="2" fill="none" />
<polyline points="289.5,192.5,281.5,192.5,273.5,193.5,266.0,194.0,258.0,194.0,250.5,193.5,242.5,194.0,234.5,194.0,226.5,195.0,218.5,195.5,211.0,196.0,203.0,196.0" stroke="black" stroke-width="2" fill="none" />
<polyline points="203.0,188.0,211.5,187.5,219.0,187.0,227.0,186.5,234.0,186.5,242.0,186.0,249.5,185.5,257.5,185.5,266.0,185.5,274.5,185.5,282.5,185.5,290.5,185.0" stroke="black" stroke-width="2" fill="none" />
<polyline points="292.0,137.5,284.5,138.0,277.0,139.0,268.5,139.5,260.5,139.5,252.0,139.0,243.5,139.0,235.0,139.0,227.0,139.5" stroke="black" stroke-width="2" fill="none" />
<polyline points="226.0,147.5,218.5,155.0" stroke="black" stroke-width="2" fill="none" />
<polyline points="216.0,154.0,219.0,145.0,214.0,152.5,212.5,160.5,211.5,168.5,209.0,176.5,203.0,184.5,202.0,192.0,196.0,200.5,193.5,209.0" stroke="black" stroke-width="2" fill="none" />
<polyline points="206.5,199.5,208.5,191.5,210.0,183.5,202.5,186.5" stroke="black" stroke-width="2" fill="none" />
<polyline points="211.5,173.5,219.5,173.0,228.0,172.5,236.0,172.0,244.0,171.5,252.0,171.0,260.0,170.5" stroke="black" stroke-width="2" fill="none" />
<polyline points="244.5,155.0,264.5,163.0,279.0,171.0,279.0,178.5,278.0,186.5,276.5,194.0,275.0,202.0,274.5,210.5,272.5,218.5,264.5,230.0,260.5,238.0,256.5,246.0,253.0,254.5,241.5,262.5" stroke="black" stroke-width="2" fill="none" />
<polyline points="226.0,234.5,233.5,227.0" stroke="black" stroke-width="2" fill="none" />
<polyline points="236.0,226.0,243.5,230.0" stroke="black" stroke-width="2" fill="none" />
<polyline points="239.5,218.0,234.5,213.5,226.5,216.0" stroke="black" stroke-width="2" fill="none" />
<polyline points="222.5,226.0,230.5,228.5,238.5,229.0,246.0,231.0" stroke="black" stroke-width="2" fill="none" />
<polyline points="244.5,230.5,227.0,224.0,218.5,227.0" stroke="black" stroke-width="2" fill="none" />
<polyline points="243.5,197.0,251.5,192.5,260.0,192.5,268.0,197.5" stroke="black" stroke-width="2" fill="none" />
<polyline points="294.0,159.0,285.5,160.0,277.0,161.5,268.5,162.0,260.0,163.0,251.5,163.5,243.5,164.0,235.5,164.5,228.0,165.0,220.0,165.0,212.5,165.0" stroke="black" stroke-width="2" fill="none" />
<polyline points="212.0,157.0,219.5,156.5,227.5,156.5,235.5,156.0,243.0,156.0,251.0,155.0,259.0,154.5,267.0,153.0,274.5,152.0,282.5,151.5,290.5,150.5,299.0,150.0" stroke="black" stroke-width="2" fill="none" />
<polyline points="275.0,130.0,266.5,131.0,258.5,132.0,250.5,133.0,242.5,133.0" stroke="black" stroke-width="2" fill="none" />
<polyline points="268.5,131.0,283.5,139.0,289.5,147.0,293.5,155.0,291.5,163.0,287.5,171.0,287.5,178.5,287.5,186.5,286.5,194.5,279.5,202.5,277.0,210.0,283.5,200.5" stroke="black" stroke-width="2" fill="none" />
<polyline points="295.5,152.5,291.5,143.5,283.5,139.5,275.5,134.5,267.5,130.5,259.5,131.5,252.0,130.5,244.0,132.0,236.0,139.0,228.0,140.5,220.0,142.5,211.5,152.0" stroke="black" stroke-width="2" fill="none" />
<polyline points="124.0,334.0,132.0,334.0,140.0,333.5,147.5,332.5,155.0,332.5,162.5,331.5,170.5,330.5,178.5,329.5,186.5,328.5,195.0,327.5,203.0,327.0,211.5,326.5,219.0,326.0,227.0,325.5,234.0,325.5,242.0,325.0,249.5,324.5,257.5,324.5,266.0,324.5,274.5,324.5,282.5,324.5,290.5,324.0,298.5,323.5,306.5,323.0,315.0,322.5,323.0,321.5,331.5,321.0,340.0,320.0" stroke="black" stroke-width="2" fill="none" />
<polyline points="332.0,360.5,324.0,360.5,316.0,360.5,308.0,360.5,299.5,360.5,291.0,361.0,282.5,361.5,274.5,362.5,266.5,363.0,259.0,364.0,251.0,365.5,243.0,366.0,235.0,367.0,227.5,367.0,219.5,367.5,211.5,367.5,204.0,368.0,196.0,368.0,187.5,368.5,179.0,370.0,171.0,371.5,163.0,372.5,155.0,372.5,147.5,373.5,139.0,373.5,130.5,373.0,123.0,373.5" stroke="black" stroke-width="2" fill="none" />
<polyline points="122.5,372.0,130.5,373.0,139.0,374.5,147.0,375.0" stroke="black" stroke-width="2" fill="none" />
<polyline points="122.5,341.5,130.5,341.0,138.5,340.5,146.0,340.0,154.5,339.5,162.0,338.5,170.5,338.0,178.5,337.0,186.5,336.5,194.5,336.0,203.0,335.0,211.0,335.0,218.5,334.5,226.5,334.0,234.5,333.0,242.5,333.0,250.5,332.5,258.0,333.0,266.0,333.0,273.5,332.5,281.5,331.5,289.5,331.5,297.5,331.0,306.0,330.5,314.5,330.0,323.0,329.0,331.5,328.5,340.5,328.0" stroke="black" stroke-width="2" fill="none" />
</svg>