<svg xmlns="http://www.w3.org/2000/svg" version="1.1"><polyline points="4.5,5.5,11.0,13.5,11.0,21.5,11.0,29.5" stroke="black" stroke-width="2" fill="none" />
<polyline points="12.5,11.0,21.0,3.5" stroke="black" stroke-width="2" fill="none" />
<polyline points="28.5,12.5,37.0,12.0,45.0,11.0,52.5,10.5,60.0,9.5,68.5,9.5,76.0,9.0,83.0,9.0,90.5,8.0,98.5,7.5,106.5,7.0,114.5,6.5,123.0,6.0,131.0,6.0,139.5,5.5,147.5,5.0,155.5,4.5,163.5,4.0,171.0,4.0" stroke="black" stroke-width="2" fill="none" />
<polyline points="202.5,14.5,210.5,14.0" stroke="black" stroke-width="2" fill="none" />
<polyline points="140.5,4.0,132.5,4.5,124.5,5.0,116.5,5.0,108.0,5.5,100.0,5.5,92.0,5.5,83.5,6.5,75.5,6.5,67.5,6.5,60.0,7.5,52.0,7.5,44.0,7.5,36.0,3.5" stroke="black" stroke-width="2" fill="none" />
<polyline points="43.5,11.0,51.0,3.5" stroke="black" stroke-width="2" fill="none" />
<polyline points="50.0,10.0,58.0,2.5" stroke="black" stroke-width="2" fill="none" />
<polyline points="59.0,9.5,67.0,1.5" stroke="black" stroke-width="2" fill="none" />
<polyline points="67.5,9.5,75.5,2.0" stroke="black" stroke-width="2" fill="none" />
<polyline points="82.5,3.5,75.0,11.0" stroke="black" stroke-width="2" fill="none" />
<polyline points="91.5,11.0,99.5,3.5" stroke="black" stroke-width="2" fill="none" />
<polyline points="100.5,10.5,108.5,3.0" stroke="black" stroke-width="2" fill="none" />
<polyline points="116.5,3.5,108.5,11.5" stroke="black" stroke-width="2" fill="none" />
<polyline points="91.0,1.5,83.0,9.0" stroke="black" stroke-width="2" fill="none" />
<polyline points="67.0,37.0,59.0,37.0,51.0,37.0" stroke="black" stroke-width="2" fill="none" />
<polyline points="50.5,30.0,58.0,29.5,66.0,29.0,74.0,29.0,82.0,28.5,90.0,28.0" stroke="black" stroke-width="2" fill="none" />
<polyline points="122.0,16.0,114.5,17.0,106.0,17.5,98.0,18.5,89.5,19.5,82.0,20.0,74.5,20.5,67.5,21.0,60.0,21.5,52.0,22.5,44.5,23.0" stroke="black" stroke-width="2" fill="none" />
<polyline points="26.0,60.0,18.0,68.0" stroke="black" stroke-width="2" fill="none" />
<polyline points="18.5,70.0,26.5,69.5,34.5,68.5" stroke="black" stroke-width="2" fill="none" />
<polyline points="28.5,70.0,20.0,77.5" stroke="black" stroke-width="2" fill="none" />
<polyline points="18.5,75.5,26.5,75.5,35.0,75.0" stroke="black" stroke-width="2" fill="none" />
<polyline points="27.5,77.0,19.5,84.0" stroke="black" stroke-width="2" fill="none" />
<polyline points="21.0,83.0,29.0,82.5,36.5,82.5" stroke="black" stroke-width="2" fill="none" />
<polyline points="27.0,82.5,19.0,90.0" stroke="black" stroke-width="2" fill="none" />
<polyline points="19.0,93.0,27.0,92.5,35.0,92.0" stroke="black" stroke-width="2" fill="none" />
<polyline points="34.5,100.0,43.0,102.0,51.0,101.0,55.5,106.0" stroke="black" stroke-width="2" fill="none" />
<polyline points="60.0,115.5,51.5,116.0,43.5,116.0,35.5,116.5,28.0,116.5,19.5,117.0" stroke="black" stroke-width="2" fill="none" />
<polyline points="20.0,123.5,28.5,116.0,37.0,108.5" stroke="black" stroke-width="2" fill="none" />
<polyline points="32.5,109.5,43.5,123.5" stroke="black" stroke-width="2" fill="none" />
<polyline points="34.5,125.5,27.0,132.5,19.0,139.0" stroke="black" stroke-width="2" fill="none" />
<polyline points="21.0,140.0,29.5,139.5,37.0,139.5,44.5,139.0,52.0,138.5,60.0,138.0" stroke="black" stroke-width="2" fill="none" />
<polyline points="58.5,138.0,66.5,140.0,74.5,142.0,82.5,142.5" stroke="black" stroke-width="2" fill="none" />
<polyline points="61.0,148.0,53.0,148.5" stroke="black" stroke-width="2" fill="none" />
<polyline points="51.0,149.0,51.0,157.0,60.5,169.0,68.5,180.0,76.0,180.5" stroke="black" stroke-width="2" fill="none" />
<polyline points="81.5,189.0,79.5,183.0,71.5,183.0,63.0,183.0" stroke="black" stroke-width="2" fill="none" />
<polyline points="36.0,193.5,28.0,201.5" stroke="black" stroke-width="2" fill="none" />
<polyline points="29.5,211.0,37.5,203.5" stroke="black" stroke-width="2" fill="none" />
<polyline points="33.5,203.5,25.0,204.0,17.5,205.0" stroke="black" stroke-width="2" fill="none" />
<polyline points="17.5,212.5,26.0,212.0,34.5,212.0" stroke="black" stroke-width="2" fill="none" />
<polyline points="37.0,212.0,38.5,220.0,38.0,228.0" stroke="black" stroke-width="2" fill="none" />
<polyline points="35.0,235.5,27.0,243.0" stroke="black" stroke-width="2" fill="none" />
<polyline points="34.0,245.0,26.0,252.5" stroke="black" stroke-width="2" fill="none" />
<polyline points="20.0,254.0,28.0,253.5,35.5,253.0" stroke="black" stroke-width="2" fill="none" />
<polyline points="34.5,254.0,27.0,261.0" stroke="black" stroke-width="2" fill="none" />
<polyline points="27.5,267.5,35.0,259.5" stroke="black" stroke-width="2" fill="none" />
<polyline points="35.5,265.5,27.5,273.5" stroke="black" stroke-width="2" fill="none" />
<polyline points="27.5,281.5,36.0,274.0" stroke="black" stroke-width="2" fill="none" />
<polyline points="35.0,283.0,27.0,290.5,19.0,297.5" stroke="black" stroke-width="2" fill="none" />
<polyline points="19.5,301.5,27.5,301.0,35.5,301.0,43.5,300.5,51.5,300.5,59.5,299.5" stroke="black" stroke-width="2" fill="none" />
<polyline points="58.5,309.0,67.0,308.0,75.0,307.0,83.5,307.0" stroke="black" stroke-width="2" fill="none" />
<polyline points="80.5,307.0,72.5,310.0,64.5,314.5,56.5,318.5,48.5,323.5,40.5,327.0,49.0,322.0,62.0,313.5,78.0,305.5" stroke="black" stroke-width="2" fill="none" />
<polyline points="74.0,300.5,82.0,300.0,89.5,299.5" stroke="black" stroke-width="2" fill="none" />
<polyline points="85.0,284.5,93.0,284.0" stroke="black" stroke-width="2" fill="none" />
<polyline points="93.5,276.5,85.0,276.5" stroke="black" stroke-width="2" fill="none" />
<polyline points="91.0,267.5,84.0,267.5,76.0,268.0" stroke="black" stroke-width="2" fill="none" />
<polyline points="74.0,270.0,76.0,278.0,78.5,286.0,79.5,294.0,68.0,301.5,74.5,299.5" stroke="black" stroke-width="2" fill="none" />
<polyline points="67.0,315.0,59.0,315.0,51.5,315.5,43.5,316.5,36.0,317.0,28.0,317.0,20.0,317.5" stroke="black" stroke-width="2" fill="none" />
<polyline points="18.0,315.5,25.5,307.5,33.5,300.0" stroke="black" stroke-width="2" fill="none" />
<polyline points="34.5,292.0,26.0,299.5,18.0,307.0" stroke="black" stroke-width="2" fill="none" />
<polyline points="19.5,310.0,27.0,309.5,35.0,309.0,43.0,308.5,50.5,308.0" stroke="black" stroke-width="2" fill="none" />
<polyline points="34.0,309.5,26.5,316.5,18.5,323.5" stroke="black" stroke-width="2" fill="none" />
<polyline points="19.5,323.0,27.5,322.5,35.5,322.5,44.0,322.5,52.0,322.5,60.0,322.5" stroke="black" stroke-width="2" fill="none" />
<polyline points="36.0,318.0,27.5,325.5,19.0,332.5" stroke="black" stroke-width="2" fill="none" />
<polyline points="13.0,335.0,20.5,334.5,28.5,334.5,36.5,334.0,44.5,333.5,52.0,333.0" stroke="black" stroke-width="2" fill="none" />
<polyline points="35.5,325.5,27.5,332.5,19.0,339.0" stroke="black" stroke-width="2" fill="none" />
<polyline points="25.5,338.5,33.5,331.0" stroke="black" stroke-width="2" fill="none" />
<polyline points="34.0,339.0,26.0,346.5" stroke="black" stroke-width="2" fill="none" />
<polyline points="32.5,348.0,25.0,356.0,17.0,363.0,9.5,370.5" stroke="black" stroke-width="2" fill="none" />
<polyline points="4.5,372.0,12.5,364.0" stroke="black" stroke-width="2" fill="none" />
<polyline points="18.5,370.5,25.5,362.5,33.5,355.0" stroke="black" stroke-width="2" fill="none" />
<polyline points="34.0,364.5,26.5,372.0" stroke="black" stroke-width="2" fill="none" />
<polyline points="19.5,348.5,27.5,348.0,36.0,348.0,44.0,348.0" stroke="black" stroke-width="2" fill="none" />
<polyline points="43.5,340.5,36.0,341.0,28.0,342.0,19.5,342.0,11.5,342.5" stroke="black" stroke-width="2" fill="none" />
<polyline points="3.5,358.5,12.0,358.0,20.0,357.5,28.0,357.0,35.5,356.5,43.5,356.0" stroke="black" stroke-width="2" fill="none" />
<polyline points="35.0,372.5,26.5,373.0,18.5,373.5,10.0,373.5,1.5,374.0" stroke="black" stroke-width="2" fill="none" />
<polyline points="1.5,376.0,9.5,375.0,17.5,374.0,26.0,374.0,34.0,367.5" stroke="black" stroke-width="2" fill="none" />
<polyline points="42.0,363.0,34.0,364.0,25.5,365.0,17.5,365.0,10.0,365.0,2.0,365.5" stroke="black" stroke-width="2" fill="none" />
<polyline points="1.5,361.5,9.5,362.0,17.5,361.0" stroke="black" stroke-width="2" fill="none" />
<polyline points="21.0,353.5,21.0,346.0,20.5,338.5,20.0,331.0,20.0,323.0,20.5,315.0,20.5,307.0,20.5,299.0,21.0,291.0,21.0,283.5,20.5,275.0,20.5,267.0,20.5,258.5,20.5,250.0,20.0,242.0,19.0,233.5,19.0,225.5,19.5,217.5,19.0,212.0,19.0,204.0,19.0,196.0,18.5,188.0,18.5,180.0,18.5,172.5,18.5,164.5,18.0,157.0,18.5,149.0,17.5,140.0,18.0,132.5,12.5,129.5" stroke="black" stroke-width="2" fill="none" />
<polyline points="19.0,132.5,27.0,125.0,35.0,117.0" stroke="black" stroke-width="2" fill="none" />
<polyline points="40.0,112.5,48.5,119.5" stroke="black" stroke-width="2" fill="none" />
<polyline points="37.0,130.5,29.5,131.0,21.5,132.0" stroke="black" stroke-width="2" fill="none" />
<polyline points="21.5,125.5,29.0,125.0,37.0,124.0" stroke="black" stroke-width="2" fill="none" />
<polyline points="33.5,129.5,41.5,130.5" stroke="black" stroke-width="2" fill="none" />
<polyline points="34.0,130.0,42.0,133.5,50.0,135.5,58.0,136.0,66.0,137.0,74.0,139.0,81.5,147.0,83.0,155.0" stroke="black" stroke-width="2" fill="none" />
<polyline points="44.5,162.0,37.0,158.0" stroke="black" stroke-width="2" fill="none" />
<polyline points="35.5,156.0,27.0,157.0,19.0,158.0" stroke="black" stroke-width="2" fill="none" />
<polyline points="18.5,164.0,26.5,156.5,34.5,149.5" stroke="black" stroke-width="2" fill="none" />
<polyline points="35.0,145.5,27.0,146.0,19.0,146.5" stroke="black" stroke-width="2" fill="none" />
<polyline points="17.5,156.0,25.5,148.5,34.0,141.0" stroke="black" stroke-width="2" fill="none" />
<polyline points="35.0,144.5,43.0,146.5,46.5,150.5,51.0,161.5,59.0,169.0,62.5,175.0,65.5,186.0,67.5,194.5,69.5,202.5,71.5,210.5,82.5,220.0,83.5,228.0" stroke="black" stroke-width="2" fill="none" />
<polyline points="82.5,237.5,74.0,238.0,66.0,238.5" stroke="black" stroke-width="2" fill="none" />
<polyline points="60.5,238.0,68.5,234.0,70.0,235.5,66.0,243.5,67.0,251.5,67.0,259.5" stroke="black" stroke-width="2" fill="none" />
<polyline points="67.5,252.5,75.5,251.5,84.0,250.5,92.0,250.0" stroke="black" stroke-width="2" fill="none" />
<polyline points="92.0,261.0,83.5,261.5" stroke="black" stroke-width="2" fill="none" />
<polyline points="82.0,259.5,72.0,267.5,67.5,272.5,76.0,264.5" stroke="black" stroke-width="2" fill="none" />
<polyline points="68.0,244.5,75.5,244.0,83.5,243.5" stroke="black" stroke-width="2" fill="none" />
<polyline points="82.5,222.0,75.0,223.0" stroke="black" stroke-width="2" fill="none" />
<polyline points="73.5,215.5,74.5,221.0,74.5,229.0,61.5,237.0,61.5,245.0,62.5,253.5,64.0,261.5,69.0,262.0,77.0,260.0,78.5,250.0,77.0,252.0,77.0,260.0" stroke="black" stroke-width="2" fill="none" />
<polyline points="59.5,286.0,61.5,294.0,59.5,302.5,53.5,310.5,35.5,320.0,43.5,316.0,51.5,311.0,59.0,302.0" stroke="black" stroke-width="2" fill="none" />
<polyline points="60.5,290.0,52.5,290.5,45.0,291.0,37.5,291.5,29.0,292.0,21.0,292.0" stroke="black" stroke-width="2" fill="none" />
<polyline points="20.0,285.5,28.0,285.0,36.0,285.0" stroke="black" stroke-width="2" fill="none" />
<polyline points="33.5,278.0,26.0,278.5,18.0,279.0" stroke="black" stroke-width="2" fill="none" />
<polyline points="18.5,270.5,26.5,270.0,34.5,269.0" stroke="black" stroke-width="2" fill="none" />
<polyline points="35.0,260.5,27.0,261.0,19.0,261.5" stroke="black" stroke-width="2" fill="none" />
<polyline points="20.5,248.0,28.5,247.5,36.5,246.5" stroke="black" stroke-width="2" fill="none" />
<polyline points="34.5,237.0,26.5,238.0,18.5,239.0" stroke="black" stroke-width="2" fill="none" />
<polyline points="17.5,231.5,25.5,230.5,33.0,230.0" stroke="black" stroke-width="2" fill="none" />
<polyline points="28.5,227.0,36.5,220.0" stroke="black" stroke-width="2" fill="none" />
<polyline points="34.5,221.5,26.0,221.5,17.5,222.0" stroke="black" stroke-width="2" fill="none" />
<polyline points="23.5,217.5,11.0,218.5,3.5,218.5" stroke="black" stroke-width="2" fill="none" />
<polyline points="3.0,216.0,11.0,215.0,25.0,211.5" stroke="black" stroke-width="2" fill="none" />
<polyline points="18.0,197.0,26.5,196.5,34.5,196.0" stroke="black" stroke-width="2" fill="none" />
<polyline points="25.0,193.5,33.0,186.0" stroke="black" stroke-width="2" fill="none" />
<polyline points="26.5,186.5,34.0,179.0" stroke="black" stroke-width="2" fill="none" />
<polyline points="28.0,178.0,36.0,170.0" stroke="black" stroke-width="2" fill="none" />
<polyline points="35.5,162.5,27.5,170.0" stroke="black" stroke-width="2" fill="none" />
<polyline points="19.0,170.0,27.0,162.0,35.5,154.5" stroke="black" stroke-width="2" fill="none" />
<polyline points="34.0,159.0,42.0,156.0,54.0,148.0,62.0,148.0,70.5,147.5" stroke="black" stroke-width="2" fill="none" />
<polyline points="75.5,145.0,67.5,144.0,60.0,142.0,52.5,140.0,44.5,138.0,36.5,137.0" stroke="black" stroke-width="2" fill="none" />
<polyline points="34.0,132.5,26.0,140.0,18.0,147.0" stroke="black" stroke-width="2" fill="none" />
<polyline points="17.0,166.5,25.5,166.0,34.0,165.5" stroke="black" stroke-width="2" fill="none" />
<polyline points="36.5,180.5,28.5,181.0,20.5,181.5" stroke="black" stroke-width="2" fill="none" />
<polyline points="18.5,173.5,26.5,173.0,34.5,173.0" stroke="black" stroke-width="2" fill="none" />
<polyline points="35.0,188.0,26.5,189.0,18.5,189.5" stroke="black" stroke-width="2" fill="none" />
<polyline points="11.0,183.0,12.0,191.0,10.5,198.5,10.5,206.5,10.5,214.5,12.0,228.0,11.0,236.0,12.0,244.0,12.0,252.0,11.0,259.5,12.5,267.5,11.5,275.5,11.0,283.5,12.0,291.5,12.0,299.5,12.0,307.5,12.5,316.0,12.0,323.5,12.0,331.5,4.5,339.5,6.5,338.5" stroke="black" stroke-width="2" fill="none" />
<polyline points="1.5,359.0,9.5,358.0,17.5,357.5" stroke="black" stroke-width="2" fill="none" />
<polyline points="149.0,372.0,157.0,371.5,164.5,371.0,172.5,370.5,179.5,369.5,187.5,369.0,196.0,368.5,204.0,368.5,212.0,368.5,220.0,368.5,228.0,368.0,235.5,367.5,243.5,367.0,251.5,366.5,259.5,365.5,267.5,365.0,276.0,365.0,284.5,364.5,292.5,364.0,300.0,363.5,308.5,363.0,316.5,363.0,324.0,362.5,332.0,362.0,340.5,361.0,348.5,360.0,356.5,359.5" stroke="black" stroke-width="2" fill="none" />
<polyline points="347.0,371.0,339.0,378.0,331.0,385.5" stroke="black" stroke-width="2" fill="none" />
<polyline points="340.0,387.0,347.5,380.0" stroke="black" stroke-width="2" fill="none" />
<polyline points="341.0,372.5,333.5,380.0" stroke="black" stroke-width="2" fill="none" />
<polyline points="340.5,364.5,333.0,372.0,325.0,379.5,317.5,387.0" stroke="black" stroke-width="2" fill="none" />
<polyline points="308.0,385.0,315.5,377.0,323.5,369.5,332.0,362.0" stroke="black" stroke-width="2" fill="none" />
<polyline points="331.5,354.5,323.5,362.0,315.5,369.5,308.0,377.0" stroke="black" stroke-width="2" fill="none" />
<polyline points="307.5,369.5,316.0,362.5,324.5,355.0,333.0,347.5" stroke="black" stroke-width="2" fill="none" />
<polyline points="333.5,346.5,328.0,355.0,325.0,363.5,331.0,350.5" stroke="black" stroke-width="2" fill="none" />
<polyline points="323.5,347.0,315.5,354.5,307.5,362.0" stroke="black" stroke-width="2" fill="none" />
<polyline points="309.0,353.0,316.5,345.0,324.5,337.5" stroke="black" stroke-width="2" fill="none" />
<polyline points="314.5,339.5,306.5,347.0" stroke="black" stroke-width="2" fill="none" />
<polyline points="299.0,349.0,307.0,364.0" stroke="black" stroke-width="2" fill="none" />
<polyline points="284.0,358.0,291.5,357.5,299.5,357.0,307.5,356.5,315.5,355.5,323.5,354.5,331.0,354.5,339.0,354.0,347.0,354.0,355.0,353.5,363.0,353.0" stroke="black" stroke-width="2" fill="none" />
<polyline points="356.5,360.0,348.5,360.5,340.5,361.5,332.5,362.5,323.5,363.5,315.5,364.5,308.0,365.0,300.0,365.5,292.5,366.5,285.0,366.5,276.5,367.5" stroke="black" stroke-width="2" fill="none" />
<polyline points="273.5,365.5,281.5,376.0" stroke="black" stroke-width="2" fill="none" />
<polyline points="276.0,376.0,280.5,384.0" stroke="black" stroke-width="2" fill="none" />
<polyline points="293.0,383.5,288.0,383.5,283.5,381.5,278.5,373.0,278.5,365.0,276.0,361.0,265.0,361.0" stroke="black" stroke-width="2" fill="none" />
<polyline points="267.5,360.5,267.5,368.5,268.0,376.0,275.0,378.5" stroke="black" stroke-width="2" fill="none" />
<polyline points="268.5,358.5,260.5,359.0,252.0,360.0,244.0,360.5,236.0,361.0,228.0,361.5,220.5,361.5,212.5,362.0,204.5,362.5,197.0,362.5,188.5,363.0,180.0,363.5,171.5,364.5,163.5,365.0,155.0,365.5" stroke="black" stroke-width="2" fill="none" />
<polyline points="155.0,357.5,163.5,356.5,171.5,356.0,179.5,355.5,188.0,355.0,196.0,354.5,204.0,354.0,212.0,354.0,220.0,354.0,228.0,354.0,236.0,353.5,244.0,353.0,252.0,352.0,260.0,351.0,268.0,350.5,275.5,349.5" stroke="black" stroke-width="2" fill="none" />
<polyline points="272.0,349.5,264.0,357.5,261.0,365.5,263.0,373.5,256.5,382.0,267.5,380.5,261.5,383.5,269.0,381.5,277.0,380.5" stroke="black" stroke-width="2" fill="none" />
<polyline points="297.0,378.5,300.0,382.5,297.0,375.5,291.0,369.5,289.5,367.5,283.5,365.0,280.5,357.0,280.5,354.5,279.5,352.5,271.5,349.0,263.5,355.0" stroke="black" stroke-width="2" fill="none" />
<polyline points="261.0,348.5,253.0,356.0,245.0,363.5,237.0,371.0,229.0,378.0" stroke="black" stroke-width="2" fill="none" />
<polyline points="220.0,377.0,227.0,370.0,235.0,363.0,243.5,355.5,251.5,347.5" stroke="black" stroke-width="2" fill="none" />
<polyline points="250.0,363.5,242.0,370.5" stroke="black" stroke-width="2" fill="none" />
<polyline points="243.5,375.5,237.0,383.5,243.0,375.5,253.0,372.0,260.5,371.5,269.5,372.0,277.5,381.0,289.0,379.0" stroke="black" stroke-width="2" fill="none" />
<polyline points="306.5,366.0,304.0,358.0,300.0,350.5,293.5,350.5,282.5,342.0" stroke="black" stroke-width="2" fill="none" />
<polyline points="290.0,316.5,297.5,316.5,305.5,315.5,314.0,315.0,322.5,314.5,331.0,314.0,339.5,314.0" stroke="black" stroke-width="2" fill="none" />
<polyline points="347.0,300.5,355.0,300.5,363.0,300.5,371.0,300.5,379.5,300.5,387.0,300.0,395.5,299.5,403.0,298.5,411.5,298.0,419.5,297.0,427.5,297.0,435.0,296.5" stroke="black" stroke-width="2" fill="none" />
<polyline points="437.0,294.5,438.0,302.5,445.0,302.5,457.5,302.5,465.5,303.5,473.5,303.5,481.5,303.5,489.5,304.0,497.5,304.0,505.0,303.5" stroke="black" stroke-width="2" fill="none" />
<polyline points="514.0,299.5,507.0,300.0,499.0,300.5,491.5,300.5,484.0,300.0,476.0,300.0,467.5,300.0,459.5,300.0" stroke="black" stroke-width="2" fill="none" />
<polyline points="450.5,301.5,443.0,302.0" stroke="black" stroke-width="2" fill="none" />
<polyline points="437.5,304.0,429.5,304.5,421.0,304.5,412.5,305.5,404.0,306.5,396.0,307.5,387.5,307.5,379.5,308.0,371.5,308.0,363.5,308.0,355.5,308.5" stroke="black" stroke-width="2" fill="none" />
<polyline points="354.0,305.5,362.0,298.0,370.0,290.5,377.5,283.0,385.5,275.0" stroke="black" stroke-width="2" fill="none" />
<polyline points="381.0,276.0,373.0,283.0,365.5,290.5,357.5,297.5" stroke="black" stroke-width="2" fill="none" />
<polyline points="355.5,304.0,363.5,303.5,371.5,303.5,379.5,303.0" stroke="black" stroke-width="2" fill="none" />
<polyline points="388.0,300.0,379.5,307.5,371.0,315.0,362.5,323.0" stroke="black" stroke-width="2" fill="none" />
<polyline points="364.5,318.5,372.5,318.0,380.5,317.0,388.5,316.0,396.0,315.5,404.0,315.0,412.0,314.5,420.5,314.0,429.0,314.0,436.5,313.0" stroke="black" stroke-width="2" fill="none" />
<polyline points="435.5,316.0,427.5,323.0,420.0,330.0" stroke="black" stroke-width="2" fill="none" />
<polyline points="411.5,330.5,419.0,324.0,426.5,317.5,434.5,310.0" stroke="black" stroke-width="2" fill="none" />
<polyline points="427.0,307.5,419.5,315.0,412.0,323.0,404.0,331.0" stroke="black" stroke-width="2" fill="none" />
<polyline points="403.5,323.0,412.0,316.0,420.5,308.0,428.0,300.0" stroke="black" stroke-width="2" fill="none" />
<polyline points="428.0,292.5,419.5,300.0,411.0,307.5,402.5,315.0,394.5,322.5" stroke="black" stroke-width="2" fill="none" />
<polyline points="395.0,320.5,403.5,320.0,411.5,320.0,419.5,320.0,427.5,320.0" stroke="black" stroke-width="2" fill="none" />
<polyline points="428.0,333.0,436.0,332.5" stroke="black" stroke-width="2" fill="none" />
<polyline points="443.5,335.0,451.5,341.0,459.5,348.0,467.5,356.0,475.5,363.0,484.0,370.5,492.0,378.5" stroke="black" stroke-width="2" fill="none" />
<polyline points="485.0,381.5,477.0,381.5" stroke="black" stroke-width="2" fill="none" />
<polyline points="476.0,372.5,468.5,372.5" stroke="black" stroke-width="2" fill="none" />
<polyline points="468.5,364.5,460.5,365.5" stroke="black" stroke-width="2" fill="none" />
<polyline points="461.0,356.0,453.0,356.5" stroke="black" stroke-width="2" fill="none" />
<polyline points="450.0,349.5,441.5,350.5" stroke="black" stroke-width="2" fill="none" />
<polyline points="437.0,341.0,445.0,340.5" stroke="black" stroke-width="2" fill="none" />
<polyline points="443.5,336.0,452.5,344.0,460.5,351.5,469.0,359.5,476.5,367.5,485.0,376.0,494.0,383.5" stroke="black" stroke-width="2" fill="none" />
<polyline points="419.5,339.0,411.5,339.5,403.5,339.5,395.0,340.5" stroke="black" stroke-width="2" fill="none" />
<polyline points="397.0,334.0,389.0,334.5" stroke="black" stroke-width="2" fill="none" />
<polyline points="380.5,338.5,370.5,346.5,363.0,354.5,357.0,362.5,352.0,370.5,348.0,378.5,348.5,379.0,356.0,363.5,364.0,353.5,372.5,344.5,380.5,338.5" stroke="black" stroke-width="2" fill="none" />
<polyline points="370.5,325.0,378.5,324.5,387.0,324.5,395.5,324.0,404.0,323.5,412.0,323.0,420.5,322.0,429.0,321.5,437.0,321.0" stroke="black" stroke-width="2" fill="none" />
<polyline points="427.5,311.5,419.5,312.5,411.0,313.0,402.5,314.0,394.5,314.5" stroke="black" stroke-width="2" fill="none" />
<polyline points="393.5,313.5,401.5,306.5,409.5,299.0,418.0,291.0,425.5,284.0" stroke="black" stroke-width="2" fill="none" />
<polyline points="427.0,277.0,419.0,284.0,411.5,291.5,403.5,298.5,395.5,305.5" stroke="black" stroke-width="2" fill="none" />
<polyline points="396.5,305.5,404.5,305.0,413.0,305.0,421.5,304.5,429.0,304.0" stroke="black" stroke-width="2" fill="none" />
<polyline points="428.0,296.0,421.0,296.5,413.0,297.5,405.5,298.5,397.5,299.5" stroke="black" stroke-width="2" fill="none" />
<polyline points="395.0,297.0,403.5,289.5,411.5,282.0,419.5,275.5,428.0,268.0" stroke="black" stroke-width="2" fill="none" />
<polyline points="428.5,259.0,420.5,266.5,413.0,274.5,405.0,282.5,396.5,290.0" stroke="black" stroke-width="2" fill="none" />
<polyline points="395.5,292.0,403.5,291.0,412.0,290.0,420.5,289.5,429.0,289.0" stroke="black" stroke-width="2" fill="none" />
<polyline points="437.0,293.5,445.0,293.5" stroke="black" stroke-width="2" fill="none" />
<polyline points="451.0,285.5,459.0,284.5,467.5,284.5,475.5,284.0,483.5,284.0,491.5,284.0,499.0,283.5,507.0,283.5" stroke="black" stroke-width="2" fill="none" />
<polyline points="516.5,281.5,508.0,281.5,500.0,282.0,492.0,282.0,484.5,282.5,477.0,283.0,469.0,283.5,461.5,284.0,453.5,285.0,445.5,285.0,436.5,286.0,428.5,286.5,421.0,287.5,413.0,288.0,405.0,288.5,397.0,289.0,389.0,289.5,381.5,290.0,373.5,290.5,365.0,291.0,356.5,291.0,348.0,291.0,339.5,291.0,331.5,291.0" stroke="black" stroke-width="2" fill="none" />
<polyline points="332.5,288.5,340.0,281.0,348.0,274.0,355.5,266.5" stroke="black" stroke-width="2" fill="none" />
<polyline points="351.5,269.0,359.5,268.5,368.0,268.5,376.0,268.0,384.0,268.0,392.0,268.0,400.0,269.0" stroke="black" stroke-width="2" fill="none" />
<polyline points="403.5,265.5,412.0,258.0,420.5,251.0,428.5,244.0" stroke="black" stroke-width="2" fill="none" />
<polyline points="428.0,251.0,420.5,258.5,413.0,266.0" stroke="black" stroke-width="2" fill="none" />
<polyline points="410.0,265.5,418.5,265.0,426.5,264.0" stroke="black" stroke-width="2" fill="none" />
<polyline points="427.0,272.0,419.0,272.0,411.0,272.0" stroke="black" stroke-width="2" fill="none" />
<polyline points="404.5,276.0,396.5,283.5" stroke="black" stroke-width="2" fill="none" />
<polyline points="396.0,282.5,403.5,282.5,412.0,281.5,420.5,280.5,428.5,279.5" stroke="black" stroke-width="2" fill="none" />
<polyline points="433.0,259.5,425.5,259.5,418.0,259.5,410.5,259.5,402.5,260.0" stroke="black" stroke-width="2" fill="none" />
<polyline points="403.5,257.0,411.5,249.5,419.5,242.5,427.5,235.0" stroke="black" stroke-width="2" fill="none" />
<polyline points="429.5,228.0,421.5,235.5,412.5,243.0,404.0,250.5,395.0,258.0" stroke="black" stroke-width="2" fill="none" />
<polyline points="393.0,257.0,404.5,264.5" stroke="black" stroke-width="2" fill="none" />
<polyline points="397.5,258.5,405.5,258.0,413.0,257.0,421.0,256.5,428.5,256.0" stroke="black" stroke-width="2" fill="none" />
<polyline points="428.5,249.0,420.5,249.0,412.5,249.0,404.5,249.0,397.0,249.0,389.0,249.5" stroke="black" stroke-width="2" fill="none" />
<polyline points="395.5,249.5,403.5,242.0,411.5,235.0,419.5,228.0,428.0,220.5" stroke="black" stroke-width="2" fill="none" />
<polyline points="427.5,211.5,419.5,219.0,411.0,227.0,403.0,234.5,395.0,242.0,387.5,249.5" stroke="black" stroke-width="2" fill="none" />
<polyline points="387.5,241.0,395.0,233.5,403.0,226.5,411.0,219.5,418.5,212.0,426.5,204.5" stroke="black" stroke-width="2" fill="none" />
<polyline points="428.5,202.5,420.5,203.5,412.0,204.5,403.5,205.5,396.0,205.5,387.5,206.0,380.0,206.0,372.0,206.0,364.5,206.5,356.5,206.5,348.5,207.0,341.0,207.5,333.0,208.0,325.0,208.0,317.0,208.0" stroke="black" stroke-width="2" fill="none" />
<polyline points="315.0,212.0,322.5,205.0,330.0,197.5,338.0,190.0,345.5,183.0,354.0,175.0,362.0,167.0,370.5,159.0,378.5,151.5,386.5,143.5,395.5,135.5,404.0,127.5,412.5,120.0,420.5,112.5,428.5,104.5" stroke="black" stroke-width="2" fill="none" />
<polyline points="427.5,98.5,419.5,106.0,412.0,114.0,404.0,122.0,396.5,129.0,389.0,137.0,381.0,144.5,372.5,152.5,364.0,160.5,355.0,168.0,346.5,175.0,339.0,183.0,331.0,190.5,323.5,198.0,316.0,205.5" stroke="black" stroke-width="2" fill="none" />
<polyline points="308.5,206.0,316.5,198.5,325.0,190.0,333.0,182.0,341.0,174.0,349.0,166.5,357.0,159.0,364.5,151.5,372.0,144.5,379.5,137.0,388.0,130.0,395.5,121.5,403.5,113.5,411.5,105.5,419.5,97.5,427.0,90.5" stroke="black" stroke-width="2" fill="none" />
<polyline points="429.5,87.5,421.0,88.0,412.5,88.0,404.5,88.5,397.0,89.0,389.0,89.5,381.0,90.5,373.0,91.0,364.5,91.0,356.5,90.5,348.5,90.5,340.0,90.0,332.5,90.0,324.5,90.0" stroke="black" stroke-width="2" fill="none" />
<polyline points="324.5,99.5,316.5,107.0,308.5,114.5,300.5,121.5,291.5,128.5,284.0,136.0,276.5,144.0,269.0,152.0,261.0,160.0,253.0,168.0,245.0,176.0,237.0,183.0,228.5,190.5" stroke="black" stroke-width="2" fill="none" />
<polyline points="230.0,191.0,237.5,198.0,251.0,206.0,260.0,205.0,267.5,205.0,275.5,205.5,284.0,205.5,292.0,207.0,300.0,208.0,308.0,208.5" stroke="black" stroke-width="2" fill="none" />
<polyline points="306.0,208.5,311.0,216.5,313.0,224.0,314.5,232.0,315.5,240.0,316.5,248.0,320.5,257.0,317.5,266.0,321.5,278.5" stroke="black" stroke-width="2" fill="none" />
<polyline points="323.5,280.5,331.0,279.5,339.0,279.0,346.5,279.0,354.5,279.0,362.5,278.5,370.0,278.0" stroke="black" stroke-width="2" fill="none" />
<polyline points="373.0,276.0,364.5,283.5,356.0,291.5,348.0,298.5" stroke="black" stroke-width="2" fill="none" />
<polyline points="346.5,297.0,355.0,297.0,363.5,296.5,371.5,296.5,379.0,296.0" stroke="black" stroke-width="2" fill="none" />
<polyline points="385.5,291.5,378.0,299.5,370.5,307.0,362.5,314.5" stroke="black" stroke-width="2" fill="none" />
<polyline points="365.5,314.5,373.0,314.0,381.0,313.5" stroke="black" stroke-width="2" fill="none" />
<polyline points="388.0,314.5,380.5,321.5" stroke="black" stroke-width="2" fill="none" />
<polyline points="387.5,321.5,379.5,323.0,372.0,323.5" stroke="black" stroke-width="2" fill="none" />
<polyline points="355.0,314.0,362.5,306.0,371.0,297.5,379.0,289.5,386.5,281.5,394.5,274.0" stroke="black" stroke-width="2" fill="none" />
<polyline points="379.5,261.0,371.0,262.0" stroke="black" stroke-width="2" fill="none" />
<polyline points="371.0,272.0,379.0,275.0,388.0,270.5,390.0,278.5,388.5,286.0,389.5,293.5,392.0,303.5,392.0,311.5,391.5,319.5,391.5,325.5,400.0,326.5,407.5,326.5,415.5,327.0,424.0,328.0" stroke="black" stroke-width="2" fill="none" />
<polyline points="388.5,307.0,380.0,315.0,371.5,323.0" stroke="black" stroke-width="2" fill="none" />
<polyline points="339.0,298.0,347.0,290.0,355.5,282.5,363.5,275.0" stroke="black" stroke-width="2" fill="none" />
<polyline points="366.5,272.0,374.5,276.5,382.5,279.0,392.5,285.0,393.0,293.0,389.5,301.0,389.5,308.5,389.0,316.5,389.0,325.0,389.5,332.5,397.0,332.5,405.0,333.0,413.0,333.0,421.0,333.5,429.0,333.5,437.0,334.5,445.0,342.5,453.0,349.5,461.0,357.5,469.0,365.0,477.0,373.5,485.0,381.5" stroke="black" stroke-width="2" fill="none" />
<polyline points="486.5,383.0,478.5,375.0,471.0,367.0,463.0,359.5,454.0,351.5,446.0,343.5,438.0,336.0,433.0,330.0,432.0,321.0,431.0,312.5,430.5,304.0,430.5,296.5,430.5,288.5,429.0,280.5,429.0,272.5,429.0,264.0,429.0,256.0,429.5,248.0,428.5,240.0,428.5,232.0,428.5,224.0,428.5,215.5,428.5,207.5,428.5,199.5,427.5,191.5,427.5,183.5,427.5,175.0,427.5,167.0,427.5,159.0,427.5,151.5,427.5,143.5,427.0,136.5,427.0,128.5,426.0,120.5,426.0,112.5,425.5,104.5,426.0,96.5,431.0,90.5,423.0,90.0,415.0,90.5,407.0,91.5,399.0,91.5,391.0,91.5,383.0,92.5,375.0,92.5,367.0,92.0,359.0,93.0,351.0,92.5,342.5,92.5,335.0,93.0,327.0,93.5,319.5,93.5,311.5,94.0,304.0,95.0,295.5,95.0,287.5,95.0,279.5,96.5,271.5,96.0,263.5,96.5,255.5,97.5,247.5,97.5,239.0,98.0,231.0,98.0,223.0,99.0,215.0,98.5,207.0,98.5,199.0,98.5,191.5,100.5" stroke="black" stroke-width="2" fill="none" />
<polyline points="194.5,97.5,192.5,105.5,192.5,113.5,192.0,121.0,189.5,129.0,190.5,137.0,191.0,145.5,191.0,153.5,184.0,161.5,168.0,170.0,157.0,178.0,149.0,186.0,148.5,194.0,146.0,202.0,148.0,196.0,149.0,185.0,157.0,177.5,165.5,171.0,174.0,166.0,182.0,162.0,190.0,159.0,200.0,164.0" stroke="black" stroke-width="2" fill="none" />
<polyline points="202.5,160.0,210.5,152.0,218.5,144.5,227.0,136.5,235.5,129.5,244.0,122.0,253.0,114.0,261.5,107.0,270.0,99.5" stroke="black" stroke-width="2" fill="none" />
<polyline points="268.0,104.0,276.0,103.5,284.0,103.0,292.0,103.0,300.0,102.5,308.0,102.5,316.0,102.0,323.5,101.5,331.5,101.5,339.0,101.5,347.0,101.0,355.5,100.0,363.5,100.0,371.5,99.5,379.0,99.5,387.0,99.5,395.0,98.5,403.5,98.0,411.5,96.5,420.0,95.5,428.5,94.5" stroke="black" stroke-width="2" fill="none" />
<polyline points="429.0,96.5,421.0,96.5,412.5,97.0,404.5,97.5,396.0,97.5,387.5,97.5,379.0,97.5,370.5,98.0,363.0,98.5,355.0,98.5,347.0,99.5,338.5,100.0,331.0,100.0,323.5,100.5,316.0,101.5,308.5,102.5,301.0,103.5,293.0,104.5,285.0,105.5,276.5,106.0,269.0,106.0,261.0,106.5,253.0,107.0,244.5,107.5,236.0,108.0,227.5,109.0,218.5,109.5,210.0,110.0,202.0,110.0,193.5,110.0" stroke="black" stroke-width="2" fill="none" />
<polyline points="196.0,102.0,203.5,101.5,211.5,101.0,219.5,101.0,227.5,100.5,235.5,100.0,243.5,100.0,252.0,99.0,260.0,98.5,268.0,97.5,276.5,96.5,284.5,96.5,292.5,95.5,300.5,95.0,308.5,94.0,316.5,93.5,324.0,93.0,331.5,92.5,339.0,92.0,347.0,91.5,355.0,90.5,363.0,90.5,371.0,90.5,379.0,90.5,387.5,90.5,395.0,90.0,403.5,89.5,411.0,88.5,419.5,88.0,427.5,87.0" stroke="black" stroke-width="2" fill="none" />
<polyline points="433.0,91.0,434.0,99.0,433.5,107.0,433.5,115.0,433.5,123.0,438.5,131.5,439.5,139.5,433.5,148.0,439.0,152.0,433.5,160.0,438.5,168.0,439.5,176.0,437.5,183.5,437.5,191.0,434.0,199.0,434.0,207.0,435.0,215.0,441.0,215.5,448.5,215.5,456.5,215.5,465.0,215.0,473.0,215.5,481.0,215.5,489.0,216.0,497.0,216.0,505.0,215.0" stroke="black" stroke-width="2" fill="none" />
<polyline points="504.0,217.0,511.0,229.5,511.0,237.5" stroke="black" stroke-width="2" fill="none" />
<polyline points="515.0,219.5,507.0,219.5,499.5,219.5,492.0,220.0,484.5,220.5,476.5,221.5" stroke="black" stroke-width="2" fill="none" />
<polyline points="460.5,191.0,453.0,191.0" stroke="black" stroke-width="2" fill="none" />
<polyline points="457.0,188.0,457.0,181.5,449.5,185.5" stroke="black" stroke-width="2" fill="none" />
<polyline points="460.5,182.5,468.5,179.5,470.0,186.5" stroke="black" stroke-width="2" fill="none" />
<polyline points="479.0,181.0,487.0,179.5,488.0,185.5" stroke="black" stroke-width="2" fill="none" />
<polyline points="494.0,180.5,493.0,188.5,493.0,180.0,487.0,168.0,494.0,161.5,499.0,149.0,500.0,134.5,499.0,126.0,493.0,125.0,491.0,128.0" stroke="black" stroke-width="2" fill="none" />
<polyline points="490.5,136.0,498.5,136.0" stroke="black" stroke-width="2" fill="none" />
<polyline points="501.0,149.5,493.5,150.0" stroke="black" stroke-width="2" fill="none" />
<polyline points="485.5,158.0,478.0,152.0" stroke="black" stroke-width="2" fill="none" />
<polyline points="475.0,148.5,483.0,146.5,483.0,150.5,477.0,161.5,485.5,161.5,494.5,156.5" stroke="black" stroke-width="2" fill="none" />
<polyline points="494.5,163.0,489.5,171.0,491.5,165.5" stroke="black" stroke-width="2" fill="none" />
<polyline points="491.5,165.5,483.0,165.5" stroke="black" stroke-width="2" fill="none" />
<polyline points="478.0,171.5,486.0,170.5,499.0,174.5" stroke="black" stroke-width="2" fill="none" />
<polyline points="497.0,188.5,498.0,188.5,484.0,193.5,478.0,191.0,478.0,182.5,478.0,170.0,478.0,161.5,476.0,150.5,485.0,137.5,489.0,135.0,489.5,127.0,480.5,126.0" stroke="black" stroke-width="2" fill="none" />
<polyline points="481.0,133.0,477.0,135.0,479.0,140.5,491.0,145.5,498.5,145.5" stroke="black" stroke-width="2" fill="none" />
<polyline points="469.0,132.5,461.5,133.0" stroke="black" stroke-width="2" fill="none" />
<polyline points="459.5,128.5,467.0,128.5,468.0,133.5,468.0,146.5" stroke="black" stroke-width="2" fill="none" />
<polyline points="459.0,149.5,451.5,150.0" stroke="black" stroke-width="2" fill="none" />
<polyline points="454.0,152.5,460.0,150.0,459.5,158.0,464.5,167.0,461.5,175.0,462.0,188.0" stroke="black" stroke-width="2" fill="none" />
<polyline points="460.0,168.5,460.0,163.5,468.5,162.0,468.5,168.5" stroke="black" stroke-width="2" fill="none" />
<polyline points="466.5,158.0,456.5,159.0,448.0,158.5" stroke="black" stroke-width="2" fill="none" />
<polyline points="436.5,157.0,429.0,157.5,421.0,158.0,413.5,159.0,405.5,159.5,397.0,159.5,389.0,160.5,380.5,161.0,372.5,161.5,365.0,162.0,356.5,163.0,348.5,163.0,341.0,163.5,333.0,163.5,325.0,164.0,317.0,164.5,309.5,165.5,301.0,166.0,292.5,166.0,284.0,166.0,276.0,166.0,268.0,166.0,260.0,166.0,252.0,166.5,244.0,167.0,236.0,168.0,228.0,168.5,220.0,169.0,212.0,169.0,204.0,169.0,196.5,170.0,188.5,171.0,180.5,172.0,171.5,172.5,163.5,173.0" stroke="black" stroke-width="2" fill="none" />
<polyline points="157.5,180.5,165.0,180.0,172.5,179.5,180.0,179.0,187.5,178.0,195.0,177.5,203.0,177.0,210.5,176.5,218.5,176.5,227.0,176.0,235.0,175.5,243.0,175.0,250.5,175.0,258.5,174.5,266.5,174.0,274.5,173.0,282.5,173.0,290.0,173.0,298.0,172.5,306.0,171.5,313.5,171.0,321.5,171.0,330.0,170.5,338.5,170.0,346.0,169.5,354.5,169.0,363.0,169.0,371.0,168.5,379.0,168.5,387.5,169.0,396.0,168.5,403.5,168.0,411.5,166.5,420.0,165.5,428.0,165.0,436.0,164.0" stroke="black" stroke-width="2" fill="none" />
<polyline points="428.0,164.0,420.5,171.5,412.5,178.5,404.5,185.5,397.0,193.0,389.0,200.5,380.5,208.0" stroke="black" stroke-width="2" fill="none" />
<polyline points="387.5,215.5,395.5,208.5,404.0,201.5,412.0,194.0,420.0,186.5,428.5,179.5" stroke="black" stroke-width="2" fill="none" />
<polyline points="427.0,188.5,418.5,196.5,410.5,203.5,402.5,210.5,394.5,218.0,387.5,225.5" stroke="black" stroke-width="2" fill="none" />
<polyline points="387.0,226.0,395.0,225.5,403.5,225.0,411.5,224.5,419.5,224.0,428.0,223.0" stroke="black" stroke-width="2" fill="none" />
<polyline points="434.0,227.5,442.0,225.5,450.5,225.5,458.5,226.0,467.0,226.0,475.0,220.5,472.0,222.5,475.0,226.5,483.0,226.5,491.0,226.5,499.0,226.5,507.0,226.5,509.0,224.0" stroke="black" stroke-width="2" fill="none" />
<polyline points="435.5,226.5,427.0,227.0,418.5,228.0,410.5,228.5,403.0,228.5,395.0,228.5,387.0,228.5,379.0,228.5,370.5,229.5,362.5,230.0,354.5,230.0,347.0,230.5,339.5,231.0,331.5,231.5,323.5,232.0,315.5,232.0,307.5,232.5,300.0,232.5,292.0,233.0,284.0,233.5,275.5,234.5,267.0,235.5,259.0,236.5,251.0,237.0" stroke="black" stroke-width="2" fill="none" />
<polyline points="254.0,237.5,255.5,238.5,258.0,238.5,256.5,249.0" stroke="black" stroke-width="2" fill="none" />
<polyline points="259.5,254.0,267.0,253.5,275.5,252.0,284.0,251.0,292.0,250.0,300.0,249.5,308.0,249.0,316.0,249.0,324.0,248.5" stroke="black" stroke-width="2" fill="none" />
<polyline points="324.0,249.0,331.5,241.0,339.5,233.5,347.5,225.5" stroke="black" stroke-width="2" fill="none" />
<polyline points="352.5,227.0,360.5,228.5,368.5,227.5" stroke="black" stroke-width="2" fill="none" />
<polyline points="371.0,228.0,364.0,235.5" stroke="black" stroke-width="2" fill="none" />
<polyline points="355.0,236.5,363.0,229.0,371.0,221.5" stroke="black" stroke-width="2" fill="none" />
<polyline points="362.0,218.5,353.5,226.0" stroke="black" stroke-width="2" fill="none" />
<polyline points="355.0,224.5,363.0,224.5,370.5,224.0" stroke="black" stroke-width="2" fill="none" />
<polyline points="365.5,207.0,373.5,200.0,381.0,193.0,389.0,186.0,396.5,178.0,404.5,170.0,412.0,162.5,419.5,155.5,427.5,147.5" stroke="black" stroke-width="2" fill="none" />
<polyline points="428.5,140.5,420.5,148.0,412.5,155.5,405.0,163.5,397.0,171.0,389.0,178.5,380.5,186.0,372.0,193.0,364.0,200.5,355.0,208.0" stroke="black" stroke-width="2" fill="none" />
<polyline points="353.5,215.0,353.0,223.0,356.0,231.0,358.0,239.0,360.5,241.5,362.0,233.5,367.0,230.5" stroke="black" stroke-width="2" fill="none" />
<polyline points="378.5,244.5,386.5,243.5,394.5,243.0,403.0,243.0,411.0,243.0,419.5,242.5,427.5,242.5,435.5,242.0" stroke="black" stroke-width="2" fill="none" />
<polyline points="427.0,240.5,419.0,240.5,411.0,240.5,403.5,240.5,395.5,240.0,387.5,240.5" stroke="black" stroke-width="2" fill="none" />
<polyline points="388.0,233.5,395.5,226.0,403.5,219.0,411.5,211.5,419.5,204.0,428.0,196.5" stroke="black" stroke-width="2" fill="none" />
<polyline points="426.0,193.0,418.0,193.5,410.5,194.0,402.0,194.0,394.0,194.5,386.5,195.5,378.5,196.0,370.5,196.5,362.5,197.5,354.0,198.0,345.5,198.0,337.5,198.0,329.5,198.5,322.0,199.0,314.5,199.5,306.0,200.5,298.0,201.5,289.5,202.5" stroke="black" stroke-width="2" fill="none" />
<polyline points="300.5,204.0,309.0,196.5,317.0,188.5,324.5,180.5,332.5,173.0,340.5,166.0,348.5,158.5,356.0,151.5,364.5,144.0,372.5,136.5,380.5,128.5,388.5,121.5,396.0,114.0,404.0,106.0,412.5,99.0,421.0,91.5" stroke="black" stroke-width="2" fill="none" />
<polyline points="414.5,93.0,406.0,100.5,398.0,108.0,389.5,115.0,381.0,122.5,373.0,130.0,364.5,137.0,356.5,143.5,348.5,150.5,340.0,157.0,332.0,164.0,323.5,172.0,315.5,179.5,308.0,187.5,300.0,195.5,292.0,203.5" stroke="black" stroke-width="2" fill="none" />
<polyline points="292.0,198.0,300.0,190.0,307.5,182.0,315.0,174.5,323.5,167.5,332.0,160.0,340.0,152.5,348.0,144.5,356.5,137.0,364.0,129.0,372.0,121.0,380.0,113.5,388.0,106.0,396.0,99.0" stroke="black" stroke-width="2" fill="none" />
<polyline points="388.5,98.0,380.0,106.0,372.5,114.0,364.0,122.5,356.0,130.5,348.0,138.0,340.5,145.5,332.5,152.5,324.5,159.5,316.5,166.5,308.5,174.0,300.5,181.5,293.0,189.5,285.0,197.5" stroke="black" stroke-width="2" fill="none" />
<polyline points="285.0,200.5,277.0,201.5,269.0,202.5,260.5,203.0" stroke="black" stroke-width="2" fill="none" />
<polyline points="267.0,197.5,275.0,190.0,283.5,182.0,291.5,174.5,299.5,167.0,307.0,159.5,315.0,152.0,323.5,144.5,331.5,137.5,339.0,130.0,346.5,122.0,354.0,115.0,362.0,108.0,370.0,100.5" stroke="black" stroke-width="2" fill="none" />
<polyline points="362.5,99.5,354.5,107.0,346.5,115.0,338.0,122.5,330.0,130.0,322.0,137.5,314.0,145.0,306.5,152.0,299.0,160.0,290.5,168.0,283.0,175.5,274.5,183.5,266.5,190.5,258.5,197.5" stroke="black" stroke-width="2" fill="none" />
<polyline points="260.5,193.5,268.5,193.5,276.5,192.5,284.5,192.0,292.5,191.0,300.5,190.5,308.0,190.0,315.5,189.5,323.0,189.0,331.0,188.5,339.0,187.5,347.0,187.5,355.0,187.5,363.0,187.5,371.5,187.5,379.0,187.0,387.5,186.5,395.0,185.5,403.5,185.0,411.5,184.0,419.5,184.0,427.0,183.5" stroke="black" stroke-width="2" fill="none" />
<polyline points="428.5,170.0,421.0,178.0,412.0,186.0,404.0,194.0,396.0,201.5,387.5,209.0" stroke="black" stroke-width="2" fill="none" />
<polyline points="388.5,217.0,396.5,216.5,404.5,216.0,412.5,215.5,421.0,215.0,429.5,214.5" stroke="black" stroke-width="2" fill="none" />
<polyline points="435.0,215.0,426.5,215.5,418.0,216.0,410.0,216.5,402.5,217.0,394.0,217.0,386.0,217.5,378.5,218.5,370.5,219.0,362.5,219.5,354.5,220.5,346.0,221.0,337.5,221.0,329.5,221.0,321.5,221.5,314.0,222.0,306.5,222.5,298.0,223.5,290.0,224.5,281.5,225.5,274.0,226.0,266.5,226.0,259.0,226.0,252.0,226.0,245.0,226.5,237.0,226.5,228.5,227.0,220.5,227.0,212.5,227.5,204.5,228.5" stroke="black" stroke-width="2" fill="none" />
<polyline points="202.5,230.0,210.0,236.0,218.0,240.0,226.0,238.5,231.0,233.5" stroke="black" stroke-width="2" fill="none" />
<polyline points="221.0,226.0,213.0,233.0" stroke="black" stroke-width="2" fill="none" />
<polyline points="214.5,230.5,223.0,226.5" stroke="black" stroke-width="2" fill="none" />
<polyline points="213.5,238.0,221.5,237.5,229.0,237.0,236.0,236.0" stroke="black" stroke-width="2" fill="none" />
<polyline points="251.5,233.5,259.5,233.0,260.5,238.5,260.0,246.5,260.0,254.5,258.0,262.5,251.5,269.0,255.0,275.0,266.5,283.5,278.0,291.5,288.0,299.5,290.0,307.5,291.5,315.0,293.5,322.5,287.0,326.5,295.0,328.0" stroke="black" stroke-width="2" fill="none" />
<polyline points="298.5,312.0,290.5,305.5" stroke="black" stroke-width="2" fill="none" />
<polyline points="283.0,310.5,275.5,311.0,268.0,311.5,260.5,312.0,252.5,312.5,244.0,313.0,236.0,313.5,228.0,314.0,220.0,314.5,212.0,314.5,204.0,315.0,196.0,315.0,188.0,315.5,180.5,316.0" stroke="black" stroke-width="2" fill="none" />
<polyline points="180.5,309.5,188.5,308.5,196.5,308.0,204.5,308.0,212.5,308.0,220.0,307.5,228.0,307.0,235.5,306.5,243.0,306.0,251.0,305.5,259.0,305.0,267.5,303.5,275.0,303.0" stroke="black" stroke-width="2" fill="none" />
<polyline points="271.5,300.5,263.5,288.5" stroke="black" stroke-width="2" fill="none" />
<polyline points="264.0,287.5,265.0,295.5,267.0,303.5,268.0,311.5,268.0,319.5,266.5,327.5" stroke="black" stroke-width="2" fill="none" />
<polyline points="254.0,316.5,246.5,312.5,238.5,309.5" stroke="black" stroke-width="2" fill="none" />
<polyline points="237.0,306.0,245.0,298.0" stroke="black" stroke-width="2" fill="none" />
<polyline points="241.5,299.0,237.5,307.0,249.5,315.5" stroke="black" stroke-width="2" fill="none" />
<polyline points="250.5,289.0,242.5,289.5,234.5,290.5,226.5,291.0,219.0,291.5,211.0,291.0,203.5,291.0,196.0,291.5,188.0,292.0" stroke="black" stroke-width="2" fill="none" />
<polyline points="180.5,284.0,182.5,292.0,183.5,299.5,181.5,303.0,182.0,311.0,178.0,319.0,174.0,327.0,171.0,334.5,166.5,342.5,162.5,350.5,160.0,358.0,156.0,366.5,153.0,374.5,150.0,383.0,156.0,366.0,164.0,348.0,172.5,332.0,181.0,313.0" stroke="black" stroke-width="2" fill="none" />
<polyline points="187.5,315.5,195.5,307.5" stroke="black" stroke-width="2" fill="none" />
<polyline points="194.5,314.5,186.5,322.0" stroke="black" stroke-width="2" fill="none" />
<polyline points="197.5,328.5,205.5,320.5,213.0,313.0" stroke="black" stroke-width="2" fill="none" />
<polyline points="205.0,315.0,196.5,323.0" stroke="black" stroke-width="2" fill="none" />
<polyline points="211.5,324.0,203.5,331.5,195.0,338.0,186.5,345.0,178.5,353.0" stroke="black" stroke-width="2" fill="none" />
<polyline points="180.0,359.5,188.0,352.0,196.0,344.5,204.5,337.0,212.5,329.5,221.0,322.5" stroke="black" stroke-width="2" fill="none" />
<polyline points="220.5,333.0,212.5,340.0,204.0,347.5,196.0,354.5,188.0,361.5,180.0,369.0" stroke="black" stroke-width="2" fill="none" />
<polyline points="177.0,365.5,178.0,373.0,183.5,376.0" stroke="black" stroke-width="2" fill="none" />
<polyline points="188.5,376.5,197.0,369.0,205.5,361.5,213.5,354.5,221.5,346.5" stroke="black" stroke-width="2" fill="none" />
<polyline points="220.0,340.5,212.0,348.0,204.5,355.0,196.5,362.5,187.5,369.5" stroke="black" stroke-width="2" fill="none" />
<polyline points="194.0,369.5,202.0,369.0,210.0,368.5,218.5,368.0" stroke="black" stroke-width="2" fill="none" />
<polyline points="226.5,377.0,219.0,378.5,211.0,377.5,203.0,373.5" stroke="black" stroke-width="2" fill="none" />
<polyline points="200.5,375.0,209.5,383.0" stroke="black" stroke-width="2" fill="none" />
<polyline points="204.0,386.0,212.0,379.0,220.0,371.5,227.5,363.5,236.0,355.5" stroke="black" stroke-width="2" fill="none" />
<polyline points="228.0,354.0,220.0,361.5,212.5,369.5,205.0,376.5,197.0,384.0" stroke="black" stroke-width="2" fill="none" />
<polyline points="199.5,377.5,207.5,384.0" stroke="black" stroke-width="2" fill="none" />
<polyline points="197.0,377.0,204.5,369.5,212.5,362.0,220.0,354.0,228.0,346.0" stroke="black" stroke-width="2" fill="none" />
<polyline points="189.5,339.5,181.0,347.0" stroke="black" stroke-width="2" fill="none" />
<polyline points="185.5,361.5,188.0,369.5,191.0,377.5" stroke="black" stroke-width="2" fill="none" />
<polyline points="171.5,379.0,163.5,386.5" stroke="black" stroke-width="2" fill="none" />
<polyline points="164.0,379.5,156.5,387.0" stroke="black" stroke-width="2" fill="none" />
<polyline points="149.0,381.5,156.5,380.5,165.0,380.0,172.5,379.5,180.5,379.0,188.0,378.5,196.0,378.0,203.5,377.0,211.5,376.5,219.5,376.0,227.5,375.5,235.5,375.0,243.0,374.5,251.0,374.5,259.0,374.5,266.5,374.0,274.5,373.5,283.0,372.5,291.5,371.5,300.0,370.5,308.0,370.0,316.0,369.5,324.0,369.0,332.0,369.0,340.0,368.5,348.0,368.5,356.0,368.0,363.5,367.5,371.5,367.5" stroke="black" stroke-width="2" fill="none" />
<polyline points="339.0,291.5,347.0,283.5,355.5,276.0" stroke="black" stroke-width="2" fill="none" />
<polyline points="349.0,272.0,341.5,272.5,333.0,273.0,325.0,273.5" stroke="black" stroke-width="2" fill="none" />
<polyline points="331.0,281.5,339.0,274.0,346.5,266.5" stroke="black" stroke-width="2" fill="none" />
<polyline points="347.0,262.5,355.0,261.0,362.5,258.5,370.5,256.5,378.5,257.5" stroke="black" stroke-width="2" fill="none" />
<polyline points="379.0,252.5,386.5,252.5,395.0,252.5,403.0,252.0,411.0,252.0,419.5,252.0,428.5,251.5,436.5,251.0" stroke="black" stroke-width="2" fill="none" />
<polyline points="434.5,251.0,434.5,259.0,436.0,267.0,436.0,274.5,437.5,283.0" stroke="black" stroke-width="2" fill="none" />
<polyline points="434.0,278.0,426.5,278.5,419.0,279.0,411.0,279.0,403.0,279.0,394.5,279.5,386.5,280.5,378.5,281.0,370.5,281.0,362.5,281.5,354.5,281.5,346.0,282.5,338.0,283.0,329.0,284.0,321.0,285.0" stroke="black" stroke-width="2" fill="none" />
<polyline points="323.0,281.0,331.0,273.5,338.5,266.5,346.0,259.0" stroke="black" stroke-width="2" fill="none" />
<polyline points="342.0,258.0,334.0,266.0,325.0,273.5" stroke="black" stroke-width="2" fill="none" />
<polyline points="316.0,273.5,324.5,266.5,332.5,259.0" stroke="black" stroke-width="2" fill="none" />
<polyline points="324.5,258.0,316.5,265.5,308.5,273.5" stroke="black" stroke-width="2" fill="none" />
<polyline points="308.5,270.5,300.5,271.0,292.0,271.5,284.5,272.0,276.0,272.5,267.5,272.5,259.5,273.0" stroke="black" stroke-width="2" fill="none" />
<polyline points="260.5,273.5,268.5,275.0,276.5,274.5,284.5,274.0,292.5,273.0,300.0,273.0,308.0,272.5,315.5,273.5" stroke="black" stroke-width="2" fill="none" />
<polyline points="313.5,282.0,330.5,290.0,340.5,298.0,351.5,306.0,357.0,314.0,369.0,322.0" stroke="black" stroke-width="2" fill="none" />
<polyline points="387.5,286.0,379.0,286.5,371.0,286.5,363.0,287.0,355.0,287.0,347.0,287.0,339.0,287.0,331.0,287.0" stroke="black" stroke-width="2" fill="none" />
<polyline points="332.5,309.0,324.5,309.0,317.0,309.5,309.0,309.5,301.0,310.0" stroke="black" stroke-width="2" fill="none" />
<polyline points="300.5,301.0,308.5,300.5,316.0,300.5,324.0,300.0,332.0,299.5" stroke="black" stroke-width="2" fill="none" />
<polyline points="299.0,292.0,291.0,292.0" stroke="black" stroke-width="2" fill="none" />
<polyline points="298.5,274.5,305.5,266.5,313.5,259.0" stroke="black" stroke-width="2" fill="none" />
<polyline points="308.0,258.5,299.5,266.0,291.5,274.0" stroke="black" stroke-width="2" fill="none" />
<polyline points="283.5,274.0,292.0,266.5,301.0,258.5,309.0,251.0" stroke="black" stroke-width="2" fill="none" />
<polyline points="316.5,248.0,325.5,241.0,333.5,234.0,341.5,227.0,349.5,220.0" stroke="black" stroke-width="2" fill="none" />
<polyline points="352.5,215.5,360.5,215.5,368.0,215.5,373.5,217.5,374.5,225.5,372.5,236.5,363.5,243.5,372.0,238.0" stroke="black" stroke-width="2" fill="none" />
<polyline points="386.5,233.5,394.5,233.0,402.5,232.5,410.0,231.5,418.0,231.0,426.5,231.0" stroke="black" stroke-width="2" fill="none" />
<polyline points="434.5,227.5,434.0,236.0,436.0,243.5,436.5,251.0,438.5,258.5,440.0,266.5,441.5,274.5,443.5,282.5" stroke="black" stroke-width="2" fill="none" />
<polyline points="452.0,285.0,452.0,293.0,453.5,301.0,452.0,309.0,454.0,317.0,456.0,325.0,458.0,332.5,459.5,340.0" stroke="black" stroke-width="2" fill="none" />
<polyline points="437.5,266.5,428.5,266.5,420.5,267.5,412.5,268.0,405.0,269.0,396.5,269.0,388.0,269.5,380.0,270.0,372.0,270.5,364.5,271.0,356.5,272.0,348.5,273.0,340.5,273.5,332.5,273.5,324.5,273.5,316.5,273.5,308.5,273.5,300.5,274.0,292.5,275.0,284.0,276.0,276.0,276.5,268.5,277.0,260.5,277.0" stroke="black" stroke-width="2" fill="none" />
<polyline points="267.0,273.5,274.5,266.5,282.5,259.0,290.5,252.0" stroke="black" stroke-width="2" fill="none" />
<polyline points="282.5,253.0,274.5,260.5,267.0,268.0,259.5,276.0" stroke="black" stroke-width="2" fill="none" />
<polyline points="260.0,265.5,268.0,258.5,276.0,251.5" stroke="black" stroke-width="2" fill="none" />
<polyline points="284.0,265.0,275.5,265.5,267.5,266.0" stroke="black" stroke-width="2" fill="none" />
<polyline points="275.5,273.0,284.0,265.0,292.0,257.0,300.0,249.5" stroke="black" stroke-width="2" fill="none" />
<polyline points="317.5,253.0,320.5,250.0,328.5,250.0,336.5,251.0" stroke="black" stroke-width="2" fill="none" />
<polyline points="338.0,252.0,346.0,244.5" stroke="black" stroke-width="2" fill="none" />
<polyline points="340.0,251.5,348.0,251.5,356.0,251.0" stroke="black" stroke-width="2" fill="none" />
<polyline points="346.5,234.0,339.0,241.5,331.5,249.5" stroke="black" stroke-width="2" fill="none" />
<polyline points="339.0,249.0,330.5,250.5,323.0,251.5" stroke="black" stroke-width="2" fill="none" />
<polyline points="321.5,242.5,329.5,242.0,338.0,241.5,346.0,241.0" stroke="black" stroke-width="2" fill="none" />
<polyline points="339.0,231.5,331.5,232.0,323.5,232.5" stroke="black" stroke-width="2" fill="none" />
<polyline points="315.5,236.5,323.5,229.5,331.5,222.5,340.5,215.5,349.0,208.0,356.5,201.0,365.0,193.5,373.0,185.5,381.0,177.5,389.0,170.0,397.0,162.5,405.0,155.5,413.5,148.5,421.0,141.5,429.0,134.0" stroke="black" stroke-width="2" fill="none" />
<polyline points="429.5,124.0,421.0,132.0,413.0,140.0,404.5,148.0,396.0,155.5,387.5,163.0,380.0,170.5,372.5,178.0,364.5,185.5,357.0,192.5,349.0,199.0,341.0,206.5,333.0,214.0,325.0,221.5,317.5,228.5" stroke="black" stroke-width="2" fill="none" />
<polyline points="316.5,224.0,325.0,223.5,333.0,223.0,341.0,223.0" stroke="black" stroke-width="2" fill="none" />
<polyline points="339.5,215.0,331.5,215.0,324.0,215.0,316.0,215.5" stroke="black" stroke-width="2" fill="none" />
<polyline points="315.5,221.5,323.0,214.0,330.5,206.5,339.0,199.0,347.0,191.5,355.0,183.5,362.5,176.0,371.0,168.5,379.5,161.5,388.0,154.0,396.0,146.0,404.5,138.5,412.5,130.5,420.5,122.5,428.0,114.5" stroke="black" stroke-width="2" fill="none" />
<polyline points="427.0,119.5,419.0,120.5,411.5,121.0,403.5,121.0,395.5,121.5,387.5,121.5,379.0,122.0,371.0,122.0,362.5,122.0,354.5,122.5,346.5,123.5,339.0,123.5,331.5,124.0,324.0,124.5,315.5,125.5,307.5,126.5,299.5,127.5,291.5,128.5,283.5,129.5,275.5,131.0,268.0,132.0" stroke="black" stroke-width="2" fill="none" />
<polyline points="261.0,137.5,268.5,137.0,276.5,137.0,284.5,137.0,292.5,136.5,301.0,136.0,308.5,135.0,316.5,134.0,324.5,133.5,333.0,133.0,341.0,132.5,349.0,132.0,357.5,131.5,365.0,131.0,372.0,130.5,379.5,130.0,387.5,129.0,395.0,128.5,403.0,127.5,410.5,127.0,418.5,126.0,426.5,125.5" stroke="black" stroke-width="2" fill="none" />
<polyline points="429.0,111.5,420.5,112.0,413.0,112.0,405.0,112.5,396.5,113.0,388.0,114.0,380.0,114.5,371.5,115.0,363.0,115.5,354.5,115.5,346.5,116.0,338.5,116.5,330.5,116.5,322.5,117.5,314.5,119.0,306.5,120.0,298.5,120.5,290.5,121.0,282.5,122.0,274.5,122.0,266.0,122.5" stroke="black" stroke-width="2" fill="none" />
<polyline points="265.5,113.0,273.5,113.0,282.0,112.5,290.5,112.0,298.0,111.5,306.5,111.0,315.0,111.0,323.0,110.5,331.0,110.5,339.5,111.0,348.0,110.5,355.5,110.0,363.5,108.5,372.0,107.5,380.0,107.0,388.0,106.0,396.5,105.5,405.0,105.0,413.0,104.5,421.0,104.0,428.5,103.5" stroke="black" stroke-width="2" fill="none" />
<polyline points="426.5,135.0,418.0,135.5,410.0,136.0,402.0,136.5,394.0,137.0,386.0,137.0,378.5,137.5,370.5,138.0,362.5,138.0,355.0,138.0,347.0,138.5,339.5,139.5,331.0,140.0,323.0,140.0,315.0,140.5,307.0,141.0,298.5,141.5,290.5,142.5,282.5,143.5,274.5,144.5,266.5,145.0,258.0,145.5" stroke="black" stroke-width="2" fill="none" />
<polyline points="258.5,153.0,266.0,152.5,274.0,152.0,282.0,151.5,290.0,151.5,298.0,150.5,306.5,149.5,314.0,149.0,321.5,148.5,329.5,148.0,337.0,148.0,345.0,147.0,354.0,146.0,362.0,145.5,370.5,144.5,378.5,144.5,386.5,144.0,394.5,144.0,402.5,143.5,410.5,142.5,419.0,142.0,427.0,142.0" stroke="black" stroke-width="2" fill="none" />
<polyline points="427.5,155.0,419.5,162.5,412.0,170.0,404.0,177.5,396.0,184.0,388.0,191.0,380.5,198.0,373.0,205.0" stroke="black" stroke-width="2" fill="none" />
<polyline points="346.0,213.0,346.0,221.0,346.0,229.0,345.5,236.5,346.5,244.5,346.5,252.5,349.5,260.5,352.0,269.0,355.5,265.0,363.5,264.5,371.5,265.5,379.5,265.5,388.0,265.0,396.0,265.5,405.0,265.5" stroke="black" stroke-width="2" fill="none" />
<polyline points="435.5,257.0,427.5,257.5,419.5,257.5,411.0,258.5,403.0,259.0,395.0,260.0,386.5,260.5,378.5,261.0,370.5,261.5,362.5,262.5,355.0,263.0,347.0,264.0,338.5,265.5,331.0,266.5,323.0,266.5,315.0,267.0,307.0,267.5,299.0,267.5,290.5,268.0,282.5,268.0,274.5,268.0,267.0,268.0,259.0,268.5,251.5,269.0" stroke="black" stroke-width="2" fill="none" />
<polyline points="258.0,259.0,266.0,258.5,274.5,258.5,282.5,258.0,291.0,257.5,299.0,258.0,307.5,257.5,315.0,257.5,323.0,257.0,331.5,256.0,339.5,255.5,347.5,255.0,355.5,255.0" stroke="black" stroke-width="2" fill="none" />
<polyline points="361.5,271.0,376.5,278.5,384.5,286.5,383.5,294.5,384.5,302.5,384.5,310.0,384.5,318.5,384.5,326.5,384.5,336.0,392.5,344.0,404.5,352.0" stroke="black" stroke-width="2" fill="none" />
<polyline points="364.0,321.5,357.0,322.0,349.5,322.5,341.0,323.0,333.0,323.5,325.0,324.0,316.5,324.5,308.5,325.0,300.5,326.0,293.0,327.0,284.5,327.5,276.5,328.0,268.5,328.0,260.5,328.0,253.0,328.5,244.5,328.5,235.5,329.0,227.5,330.0,219.0,331.0,210.5,331.5,202.5,331.5,194.5,331.5,186.0,332.0,178.5,333.0,170.5,334.0" stroke="black" stroke-width="2" fill="none" />
<polyline points="170.0,325.0,178.5,325.0,187.0,324.5,194.5,324.0,202.5,323.5,210.5,322.5,218.5,322.5,226.5,321.5,235.0,321.0,243.0,320.5,251.5,320.0,259.0,319.5,267.0,319.0,274.5,319.0,282.5,319.0,290.5,319.0,299.0,318.5,307.0,318.5,315.0,318.0,323.0,317.5,331.0,317.5,338.5,316.5,347.0,315.0,355.0,314.0" stroke="black" stroke-width="2" fill="none" />
<polyline points="362.5,338.0,354.5,339.0,346.0,339.0,338.0,339.5,329.5,340.0,321.5,340.5,313.5,341.5,305.5,342.0,297.5,342.0,289.5,342.5,281.5,342.5,274.0,342.5,266.5,343.0,258.5,343.5,250.5,343.5,242.5,343.5,234.5,344.5,227.0,345.0,219.5,345.0,211.5,345.5,203.5,346.0,195.5,346.5,187.0,347.0,179.0,347.0,170.5,347.5,162.5,348.0" stroke="black" stroke-width="2" fill="none" />
<polyline points="164.0,341.5,172.0,341.0,180.0,340.0,188.0,339.5,196.0,339.0,204.0,338.0,212.0,337.5,219.5,337.0,227.5,337.0,235.5,336.5,243.0,336.0,251.0,335.5,259.0,334.5,267.5,333.5,276.0,332.5,284.0,332.0,292.0,331.5,299.5,331.5,307.5,331.0,315.5,331.0,323.5,330.5,331.5,330.0,339.0,329.5,346.5,329.0,354.5,329.0,362.5,328.5,371.0,327.5" stroke="black" stroke-width="2" fill="none" />
<polyline points="407.5,351.5,400.0,346.5,392.0,340.5,384.0,331.5,380.5,327.0,372.5,324.0,364.0,319.0,356.0,313.0,348.0,301.0,340.5,297.0,332.5,290.5,324.5,285.5,317.0,282.0,308.5,280.0,300.5,278.5,292.5,277.5,284.5,277.0,276.5,279.0,268.5,279.0,260.5,277.0,252.0,272.0,243.5,266.5,235.5,266.5,228.0,266.5,220.0,266.5,212.0,259.5,204.5,264.5,196.0,265.0,188.0,266.0,180.0,267.0,172.0,270.5,164.5,276.0,160.5,274.0,158.5,266.0,154.5,258.0,153.5,250.5,157.0,242.0,157.5,234.5,155.5,226.5,154.5,218.5,153.5,210.5,155.0,202.5,151.5,198.5" stroke="black" stroke-width="2" fill="none" />
<polyline points="154.5,198.5,162.5,198.5,170.5,198.0" stroke="black" stroke-width="2" fill="none" />
<polyline points="174.5,192.5,182.5,192.0,183.5,191.0,170.0,191.0,163.0,199.0,158.5,207.0,158.5,215.0,158.0,223.0,162.0,226.0,169.5,223.0,177.5,222.0,185.5,220.5,189.0,226.5,191.0,234.0,185.0,242.0,178.0,250.0,178.0,250.0" stroke="black" stroke-width="2" fill="none" />
<polyline points="180.0,242.5,188.0,234.0" stroke="black" stroke-width="2" fill="none" />
<polyline points="189.5,226.0,181.5,233.5,173.0,240.5" stroke="black" stroke-width="2" fill="none" />
<polyline points="169.5,236.0,177.5,233.0,179.5,238.5,173.5,239.5,168.5,241.5,176.5,245.0,184.5,243.5" stroke="black" stroke-width="2" fill="none" />
<polyline points="171.5,234.5,180.0,227.0" stroke="black" stroke-width="2" fill="none" />
<polyline points="169.0,223.5,161.0,231.0" stroke="black" stroke-width="2" fill="none" />
<polyline points="156.0,228.5,164.0,228.0,171.5,227.5,179.5,227.0,188.0,226.5,196.0,225.5" stroke="black" stroke-width="2" fill="none" />
<polyline points="201.5,230.0,210.5,238.0,220.5,246.5" stroke="black" stroke-width="2" fill="none" />
<polyline points="222.0,246.0,214.5,242.0" stroke="black" stroke-width="2" fill="none" />
<polyline points="204.0,220.5,212.0,220.0,219.5,220.0,227.5,219.5,236.0,219.5" stroke="black" stroke-width="2" fill="none" />
<polyline points="244.0,220.0,252.5,219.5,260.5,218.5,268.5,218.0,276.5,217.5,284.5,217.0,292.5,216.5,300.0,216.0,308.0,215.0,316.0,214.0,324.5,213.0,332.5,213.0,340.0,213.0,348.5,213.5,356.5,213.5,364.5,214.0,373.0,214.0,381.0,213.5,389.0,212.5,397.0,212.0,404.5,211.5,412.5,211.0,421.0,211.0,429.5,210.5,437.0,210.0" stroke="black" stroke-width="2" fill="none" />
<polyline points="434.0,207.5,442.0,205.5,450.0,204.5" stroke="black" stroke-width="2" fill="none" />
<polyline points="426.0,175.5,417.5,176.5,410.0,177.0,401.5,177.0,394.0,177.5,386.5,178.0,378.5,178.0,371.0,179.0,363.5,179.5,355.5,179.5,347.0,180.0,338.5,180.0,330.5,180.5,322.5,181.5,314.0,182.0,306.0,182.5,298.5,183.0,290.0,183.5,282.0,183.5,274.5,184.0,266.5,184.5,258.5,185.0" stroke="black" stroke-width="2" fill="none" />
<polyline points="258.5,177.0,267.0,176.5,275.0,175.5,283.5,174.5,291.5,174.0,299.5,173.5,307.5,173.0,316.0,172.5,324.0,172.0,332.0,171.0,340.0,170.5,348.0,170.5,356.0,170.0,364.0,169.5,372.0,169.0,380.0,169.0,388.0,168.5,395.5,168.5,403.0,168.5,411.0,168.5,419.0,168.0,426.5,167.5" stroke="black" stroke-width="2" fill="none" />
<polyline points="429.0,158.5,421.0,159.0,413.0,159.5,405.0,160.0,397.0,160.5,389.5,161.0,381.5,161.5,373.0,162.0,364.5,162.0,356.0,162.0,347.5,162.0,339.5,162.0,332.0,162.5,324.0,163.0,315.5,164.0,307.0,165.0,298.5,166.0,290.5,167.0,283.0,167.5,275.5,168.0,268.0,168.5,260.5,169.0" stroke="black" stroke-width="2" fill="none" />
<polyline points="259.0,162.0,267.5,160.5,275.0,160.0,283.0,159.0,291.0,158.0,299.0,157.5,307.0,157.0,315.0,156.0,323.0,155.5,331.0,154.5,339.0,154.0,347.0,154.0,355.0,154.0,363.0,154.0,371.0,154.0,379.0,153.5,387.0,153.5,395.5,153.0,404.0,152.5,412.0,152.0,420.0,151.0,428.0,150.5" stroke="black" stroke-width="2" fill="none" />
<polyline points="436.5,142.5,429.0,143.0,421.0,143.5,413.0,144.0,404.5,144.5,396.0,145.0,388.0,146.0,380.0,146.5,371.5,147.5,363.5,149.0,356.0,149.5,347.5,150.0,339.0,149.5,331.0,149.5,323.0,150.0,314.5,150.0,306.0,150.5,298.5,151.0,290.0,151.5,281.5,152.0,273.5,152.0,266.0,152.5,258.0,153.5,250.0,154.0,242.5,154.0,234.5,154.0,226.5,155.0,218.5,155.5,210.5,156.0,203.0,156.0,195.0,156.5" stroke="black" stroke-width="2" fill="none" />
<polyline points="195.5,148.5,203.5,148.0,211.0,147.5,219.0,147.5,227.0,147.5,234.5,147.0,242.5,146.5,251.0,145.5,259.5,144.5,268.0,143.5,276.0,143.0,284.0,142.5,292.0,142.0,300.0,142.0,308.0,141.5,316.0,141.5,324.0,141.0,331.5,140.5,339.5,140.5,347.0,140.5,355.0,140.0,363.5,139.0,371.5,139.0,379.5,138.5,387.0,138.5,395.0,138.5,403.0,137.5,411.5,137.0,419.5,135.5,428.0,134.5,436.5,133.5" stroke="black" stroke-width="2" fill="none" />
<polyline points="436.5,126.5,428.5,127.0,421.0,128.0,412.5,128.0,404.0,128.5,396.0,129.0,388.0,129.5,380.5,130.0,372.5,131.0,364.5,132.0,356.5,132.5,348.5,132.5,340.5,132.5,332.5,132.5,324.5,132.5,316.5,133.0,308.5,134.0,300.0,135.0,292.0,135.5,284.5,136.0,276.5,136.0,268.0,136.5,260.5,137.0,252.5,137.5,244.0,138.0,235.5,138.0,227.5,138.5,219.5,139.5,211.5,140.0,203.5,140.5,196.0,141.0" stroke="black" stroke-width="2" fill="none" />
<polyline points="203.0,145.0,211.0,145.0" stroke="black" stroke-width="2" fill="none" />
<polyline points="203.5,150.5,212.0,143.5,220.0,136.0,228.0,129.0,236.0,122.0,244.5,115.0,252.5,108.0,260.0,100.0" stroke="black" stroke-width="2" fill="none" />
<polyline points="251.5,99.0,243.0,106.5,235.0,114.0,227.5,121.5,220.0,129.0,213.0,137.0,205.0,144.5" stroke="black" stroke-width="2" fill="none" />
<polyline points="203.5,151.5,211.0,151.0,219.0,151.0" stroke="black" stroke-width="2" fill="none" />
<polyline points="227.5,160.0,235.5,153.0,244.0,146.0,252.0,138.5,259.5,131.0,267.5,123.5,275.5,116.0,283.5,108.5,291.0,100.5" stroke="black" stroke-width="2" fill="none" />
<polyline points="282.5,100.0,275.0,107.5,267.5,115.0,260.0,122.0,252.0,129.0,243.5,137.0,235.5,144.0,227.0,151.0,218.5,158.5" stroke="black" stroke-width="2" fill="none" />
<polyline points="211.0,158.5,219.0,151.0,227.5,143.5,235.5,136.0,243.5,128.0,252.0,120.5,260.0,113.0,268.0,106.0,276.0,99.0" stroke="black" stroke-width="2" fill="none" />
<polyline points="300.0,99.0,292.0,106.5,283.5,114.0,275.0,121.5,266.5,129.0,258.5,136.5,250.0,144.0,242.0,151.5,234.5,159.5,227.5,167.5" stroke="black" stroke-width="2" fill="none" />
<polyline points="234.0,166.5,242.0,159.0,250.5,151.5,259.5,143.5,268.0,136.0,276.0,128.0,283.5,120.5,291.5,112.5,299.0,105.0,307.0,97.5" stroke="black" stroke-width="2" fill="none" />
<polyline points="314.0,98.0,306.0,105.5,298.5,113.5,290.5,121.0,282.5,128.5,274.5,136.5,266.5,144.5,258.5,153.0,250.5,161.0,243.0,168.5,235.0,176.5,227.0,184.0" stroke="black" stroke-width="2" fill="none" />
<polyline points="228.0,179.5,220.0,187.0" stroke="black" stroke-width="2" fill="none" />
<polyline points="220.0,190.0,228.0,189.5,236.0,189.0,244.5,188.0,252.5,187.5,260.5,186.5,268.5,186.5,276.5,186.0,284.5,185.0,293.0,184.5,300.5,184.0,308.5,183.5,316.0,183.5,324.0,183.0,332.0,182.5,340.0,182.0,348.5,181.5,356.5,182.0,364.5,181.5,373.0,181.0,381.0,180.5,389.0,180.0,397.0,179.0,405.0,178.0,413.0,177.5,420.5,177.0,428.0,176.5,435.5,176.5" stroke="black" stroke-width="2" fill="none" />
<polyline points="436.0,202.0,429.0,202.5,421.0,203.5,413.5,204.5,405.5,205.5,397.5,206.0,389.0,206.5,381.0,206.5,373.0,206.5,365.0,206.5,357.0,206.5,349.0,206.0,341.0,206.0,333.0,206.5,324.5,207.0,316.5,208.0,309.0,208.5,300.5,209.0,292.0,209.5,283.5,210.0,275.5,210.5,267.5,211.5,259.5,212.5,251.0,213.0,242.5,214.0" stroke="black" stroke-width="2" fill="none" />
<polyline points="242.5,207.0,250.5,206.0,258.5,205.5,266.5,204.0,274.0,203.0,282.0,201.5,290.5,201.0,299.0,200.0,307.5,199.5,316.0,199.0,324.0,198.5,332.0,198.0,339.5,198.0,347.5,198.0,355.5,197.5,363.5,197.0,371.5,197.5,379.0,197.5,387.0,198.0,395.0,198.0,403.5,198.0,411.5,197.0,420.0,196.0,428.5,195.5,437.0,195.0" stroke="black" stroke-width="2" fill="none" />
<polyline points="436.5,184.5,428.5,185.5,420.5,186.5,412.0,187.5,403.5,188.5,396.0,188.5,387.5,189.0,380.0,189.0,372.0,189.0,364.5,189.5,356.5,189.5,348.5,190.0,341.0,190.5,333.0,191.0,325.0,191.0,317.0,191.0,309.0,192.0,300.5,192.5,292.0,193.5,283.5,195.0,275.0,195.5,267.0,196.0,258.5,196.0,250.5,196.5,243.0,196.5,235.5,197.0" stroke="black" stroke-width="2" fill="none" />
<polyline points="236.0,192.0,244.0,191.5" stroke="black" stroke-width="2" fill="none" />
<polyline points="252.5,196.5,260.5,189.5,268.5,182.5,276.0,175.0,284.0,167.5,292.0,159.5,300.0,152.0,308.5,144.0,316.5,136.5,324.5,128.5,331.5,121.5,339.0,114.0,347.5,106.5,355.5,99.0" stroke="black" stroke-width="2" fill="none" />
<polyline points="350.0,98.5,341.5,106.5,333.5,114.5,325.0,122.0,317.0,129.0,308.5,136.5,300.0,144.0,291.5,151.5,283.5,158.5,275.0,165.5,267.0,173.5,259.5,180.5,251.5,188.5,243.5,196.5" stroke="black" stroke-width="2" fill="none" />
<polyline points="243.0,188.5,250.5,180.5,258.5,173.0,266.5,165.5,275.0,158.0,284.0,150.5,292.5,142.5,301.0,134.5,309.0,127.5,316.5,120.0,324.5,112.5,333.0,105.0,341.0,97.5" stroke="black" stroke-width="2" fill="none" />
<polyline points="332.5,98.0,324.5,105.0,315.5,112.5,307.0,120.0,299.0,128.0,291.0,136.0,282.5,143.5,274.5,151.0,266.0,159.0,258.0,167.0,249.5,174.5,242.0,182.5,234.5,190.0" stroke="black" stroke-width="2" fill="none" />
<polyline points="220.0,179.5,212.5,186.5" stroke="black" stroke-width="2" fill="none" />
<polyline points="211.0,179.5,203.5,187.0" stroke="black" stroke-width="2" fill="none" />
<polyline points="202.5,183.0,194.5,183.5,187.5,183.5,180.0,184.0,172.0,185.0,164.0,185.5" stroke="black" stroke-width="2" fill="none" />
<polyline points="154.5,191.0,162.5,190.0,171.0,189.0,179.0,188.5,187.0,187.5,194.5,187.0,202.5,186.5,211.0,186.0" stroke="black" stroke-width="2" fill="none" />
<polyline points="199.0,189.5,207.5,189.0,215.5,189.0,224.0,191.0,233.0,194.5,240.5,202.5,242.5,210.5,245.0,218.5,246.0,226.5,248.0,234.5,249.0,242.5,251.0,250.5,253.0,251.5" stroke="black" stroke-width="2" fill="none" />
<polyline points="250.5,244.5,258.5,244.5,266.5,244.5,274.5,244.0,282.0,243.5,289.5,243.5,297.5,243.5,305.5,243.0,313.5,243.0,321.5,242.5,329.5,241.5,337.5,241.0,346.0,240.5,354.0,240.0,362.5,240.0,370.5,239.0" stroke="black" stroke-width="2" fill="none" />
<polyline points="391.0,258.0,383.0,261.0,375.0,261.0,366.5,262.0,359.0,261.5,350.0,258.5,342.0,260.5,336.5,259.5,328.5,259.5,319.0,266.0,311.0,266.0" stroke="black" stroke-width="2" fill="none" />
<polyline points="268.5,284.0,276.5,289.0,284.5,294.5,292.5,302.0,292.0,316.5" stroke="black" stroke-width="2" fill="none" />
<polyline points="285.0,314.5,288.0,322.5,291.0,330.5" stroke="black" stroke-width="2" fill="none" />
<polyline points="284.5,330.0,281.0,321.5,284.0,313.5" stroke="black" stroke-width="2" fill="none" />
<polyline points="258.0,301.5,250.0,292.5,241.5,287.5,233.5,281.5,225.5,283.5" stroke="black" stroke-width="2" fill="none" />
<polyline points="233.5,281.5,243.5,289.5,250.0,293.5,256.0,301.5" stroke="black" stroke-width="2" fill="none" />
<polyline points="258.5,296.0,250.5,296.5,242.5,297.5,235.0,298.5,227.5,298.5,220.0,299.5,212.5,300.0,204.5,301.0,196.5,301.5,188.5,302.0,180.5,302.5" stroke="black" stroke-width="2" fill="none" />
<polyline points="164.0,276.5,176.0,268.5" stroke="black" stroke-width="2" fill="none" />
<polyline points="172.0,268.0,163.5,268.5" stroke="black" stroke-width="2" fill="none" />
<polyline points="163.0,252.0,155.0,252.0" stroke="black" stroke-width="2" fill="none" />
<polyline points="157.5,248.0,158.5,256.0,161.0,269.0" stroke="black" stroke-width="2" fill="none" />
<polyline points="163.0,245.5,170.5,245.0,178.5,244.5,186.5,244.0" stroke="black" stroke-width="2" fill="none" />
<polyline points="188.0,261.0,196.0,260.5,204.5,260.0,212.5,259.5" stroke="black" stroke-width="2" fill="none" />
<polyline points="206.0,259.5,198.0,260.5" stroke="black" stroke-width="2" fill="none" />
<polyline points="212.0,286.5,220.0,286.0,228.0,285.0,236.0,284.0,244.0,283.5" stroke="black" stroke-width="2" fill="none" />
<polyline points="265.0,291.0,269.0,299.0" stroke="black" stroke-width="2" fill="none" />
<polyline points="193.5,236.0,185.5,236.5,178.0,237.0,170.0,237.5,162.0,238.0" stroke="black" stroke-width="2" fill="none" />
<polyline points="156.0,220.5,164.0,220.0,172.0,219.5,180.0,219.0,187.5,218.5,195.0,218.0" stroke="black" stroke-width="2" fill="none" />
<polyline points="202.0,221.5,210.0,218.5,218.0,218.0,226.0,218.5,234.0,220.5" stroke="black" stroke-width="2" fill="none" />
<polyline points="210.0,218.0,195.0,227.0" stroke="black" stroke-width="2" fill="none" />
<polyline points="163.5,214.0,156.0,214.5" stroke="black" stroke-width="2" fill="none" />
<polyline points="154.5,207.0,162.5,206.5" stroke="black" stroke-width="2" fill="none" />
<polyline points="158.5,207.0,166.5,193.0,174.5,188.0,182.5,185.0,190.5,185.5,198.5,185.5,206.5,183.5,212.0,177.5,216.0,180.5,224.0,182.5" stroke="black" stroke-width="2" fill="none" />
<polyline points="210.5,172.0,202.5,179.5,195.5,186.5" stroke="black" stroke-width="2" fill="none" />
<polyline points="187.5,186.0,196.0,178.5,204.0,171.5" stroke="black" stroke-width="2" fill="none" />
<polyline points="209.0,164.5,198.0,168.5,205.5,165.5,213.5,165.0" stroke="black" stroke-width="2" fill="none" />
<polyline points="206.5,160.5,226.5,168.5,226.5,171.0,235.0,173.0" stroke="black" stroke-width="2" fill="none" />
<polyline points="240.0,170.5,244.0,178.5,247.5,187.0,250.5,195.0,252.5,203.0,252.5,211.0,253.0,219.0" stroke="black" stroke-width="2" fill="none" />
<polyline points="275.5,196.5,284.0,189.0,292.5,182.0,300.5,175.0,308.5,167.0,317.0,160.0,325.0,152.5,332.5,144.5,340.5,136.5,348.5,129.5,356.5,122.5,364.5,115.5,373.0,108.0,381.0,101.0" stroke="black" stroke-width="2" fill="none" />
<polyline points="435.5,117.0,428.0,118.0,421.0,119.0,413.0,119.5,405.5,121.0,397.5,121.5,389.5,122.5,381.0,123.0,373.0,123.5,365.0,124.0,357.5,124.5,349.0,124.5,341.0,124.5,333.0,125.0,324.5,125.5,316.5,126.0,308.0,126.5,300.5,127.0,292.0,127.5,283.5,127.5,275.5,128.0,268.0,128.5,260.0,129.5,251.5,130.0,243.5,131.0,235.0,131.5,227.5,132.0,219.5,132.5,211.5,132.5,203.5,132.5,195.0,132.5" stroke="black" stroke-width="2" fill="none" />
<polyline points="194.5,127.5,202.5,126.5,211.0,126.0,219.5,125.5,227.5,125.0,235.5,124.5,244.0,123.0,251.5,121.5,259.0,120.5,266.5,119.0,274.0,118.0,282.0,117.5,290.5,117.5,298.5,117.0,307.0,116.5,315.0,117.0,323.5,116.5,331.0,116.5,339.0,116.0,347.5,115.0,355.5,114.5,363.5,114.0,371.5,114.0,379.5,114.0,387.5,113.5,396.0,113.5,404.0,112.5,412.5,111.5,421.0,110.5,429.5,110.5,437.5,110.0" stroke="black" stroke-width="2" fill="none" />
<polyline points="429.0,102.5,420.5,103.0,412.0,104.0,403.5,104.5,395.5,105.0,387.5,105.5,379.5,105.0,371.5,105.5,363.5,105.5,355.5,106.0,347.5,106.5,340.0,107.5,332.0,108.0,324.0,108.0,316.0,108.5,308.0,109.0,300.0,110.0,291.5,111.0,283.0,112.5,275.5,113.0,267.5,113.5,259.5,114.0,251.5,114.5,244.0,115.0,236.5,115.5,227.5,116.5,219.5,117.5,211.0,118.0,202.5,119.0,194.0,119.5" stroke="black" stroke-width="2" fill="none" />
<polyline points="204.5,130.5,212.5,123.0,220.5,115.5,228.5,107.5" stroke="black" stroke-width="2" fill="none" />
<polyline points="236.0,106.5,228.0,114.0,219.5,122.0,211.5,129.0,203.0,136.5" stroke="black" stroke-width="2" fill="none" />
<polyline points="204.0,123.0,212.0,115.5,219.5,108.0" stroke="black" stroke-width="2" fill="none" />
<polyline points="210.5,106.5,202.5,114.0" stroke="black" stroke-width="2" fill="none" />
<polyline points="197.0,101.5,197.5,109.5,198.5,117.5,198.5,125.5,198.0,134.0,198.0,142.0,198.0,149.5,199.5,157.5,188.5,166.0,178.5,174.0,170.5,174.0,167.5,177.0,175.5,171.5,183.5,170.5,191.5,163.0,199.5,157.0,207.5,160.0,215.0,163.0,223.0,165.0,230.5,169.0,238.5,170.0,247.0,182.0" stroke="black" stroke-width="2" fill="none" />
<polyline points="278.5,194.0,286.5,193.0,287.0,199.0" stroke="black" stroke-width="2" fill="none" />
<polyline points="343.5,215.0,351.5,213.0,359.0,212.5,367.0,213.0,375.0,212.0,380.0,215.0,381.5,222.5,381.0,230.5,382.0,238.5,382.0,246.5,380.5,254.5,391.5,255.5,384.0,257.0,391.5,254.0,399.5,259.0" stroke="black" stroke-width="2" fill="none" />
<polyline points="385.0,274.5,370.5,272.5" stroke="black" stroke-width="2" fill="none" />
<polyline points="439.5,250.5,440.5,259.0,442.5,266.5,444.5,274.5,446.5,282.0,448.5,290.0,451.0,298.0,449.5,304.0,452.0,312.0,454.0,320.0,456.0,328.5,458.0,336.0" stroke="black" stroke-width="2" fill="none" />
<polyline points="434.5,149.0,426.5,150.0,418.0,150.5,410.0,151.0,402.0,151.5,394.0,152.0,386.0,152.0,378.5,152.5,370.5,153.0,362.5,153.0,355.0,153.0,347.0,153.5,339.5,154.5,331.0,155.0,323.0,155.0,315.0,155.5,307.0,156.0,298.5,156.5,290.5,157.5,282.5,158.5,274.5,159.5,266.5,160.0,258.0,160.5,250.5,161.0,243.0,161.5,235.0,162.0,227.0,163.0,219.5,163.5,211.5,164.5,203.5,165.5,196.0,166.0,188.5,166.5,181.0,167.0" stroke="black" stroke-width="2" fill="none" />
<polyline points="178.0,173.0,170.0,180.5,162.0,188.5,154.5,195.5" stroke="black" stroke-width="2" fill="none" />
<polyline points="179.5,187.5,187.5,180.0,195.5,173.0" stroke="black" stroke-width="2" fill="none" />
<polyline points="188.5,170.5,181.0,177.5,173.0,185.0,165.0,192.5,157.0,201.0" stroke="black" stroke-width="2" fill="none" />
<polyline points="187.5,190.0,195.5,190.0,201.0,190.0,209.0,191.5" stroke="black" stroke-width="2" fill="none" />
<polyline points="58.5,107.0,50.5,107.5,42.5,108.0,34.0,108.5,26.0,109.5,18.0,110.0" stroke="black" stroke-width="2" fill="none" />
<polyline points="20.5,107.5,28.0,100.0" stroke="black" stroke-width="2" fill="none" />
<polyline points="35.5,101.5,27.5,109.0" stroke="black" stroke-width="2" fill="none" />
<polyline points="17.5,103.0,25.5,102.5,33.0,101.5,41.0,100.5" stroke="black" stroke-width="2" fill="none" />
<polyline points="27.0,91.5,19.0,98.5" stroke="black" stroke-width="2" fill="none" />
<polyline points="11.5,67.5,19.5,60.0" stroke="black" stroke-width="2" fill="none" />
<polyline points="35.0,59.5,27.5,60.0,20.0,61.0,12.0,61.5,4.0,62.0" stroke="black" stroke-width="2" fill="none" />
<polyline points="3.0,64.5,11.0,65.0,18.0,66.0,17.5,74.0,17.0,82.0,18.0,90.0,18.5,98.0,18.5,106.0,18.5,114.5,18.5,122.5,12.5,131.0,12.0,139.0,12.0,147.0,12.0,154.5,12.0,162.5,12.0,170.5" stroke="black" stroke-width="2" fill="none" />
<polyline points="4.5,53.0,12.5,52.5,20.5,52.0,28.0,52.0" stroke="black" stroke-width="2" fill="none" />
<polyline points="3.0,52.5,11.0,52.5,19.0,53.5,26.5,53.5,31.5,56.5,32.5,65.0,32.0,73.0,32.0,81.0,32.0,89.0,32.0,96.5,32.0,104.5,33.0,112.5,33.0,121.0,34.0,129.5,33.0,137.5,33.0,145.5,33.0,153.5,35.0,161.0,34.5,169.0,34.5,176.5,34.0,184.5,34.0,192.5,34.5,201.0,34.5,209.0,34.5,217.0,34.5,225.0,35.0,233.0,35.0,241.0,35.0,249.0,35.0,257.5,35.0,265.5,36.0,274.0,36.0,282.0,36.0,289.5,35.0,297.5,35.5,305.5,35.0,313.5,36.0,321.0,35.0,328.5,35.5,336.5,35.0,344.0,35.0,352.5,35.5,360.5,31.5,369.0" stroke="black" stroke-width="2" fill="none" />
<polyline points="174.0,362.5,173.0,370.5,172.5,379.0,176.5,379.5" stroke="black" stroke-width="2" fill="none" />
<polyline points="468.5,193.5,460.0,193.5,453.0,193.0,449.0,188.5,451.5,180.5,447.5,168.0,447.5,157.0,447.5,149.0,449.0,137.0,449.0,129.0,448.0,131.0" stroke="black" stroke-width="2" fill="none" />
<polyline points="452.0,129.5,454.0,137.5,460.5,141.0" stroke="black" stroke-width="2" fill="none" />
<polyline points="464.5,143.5,456.5,144.0,448.5,145.0" stroke="black" stroke-width="2" fill="none" />
<polyline points="458.0,128.0,458.0,136.0,456.0,148.5,451.0,156.5,453.0,169.5,451.5,175.0,466.0,174.0" stroke="black" stroke-width="2" fill="none" />
<polyline points="508.5,15.5,509.0,7.5,509.0,5.5" stroke="black" stroke-width="2" fill="none" />
<polyline points="418.5,-20.5,410.5,-20.0,402.5,-19.5,394.5,-18.5,386.0,-18.0,377.5,-18.0,369.5,-18.0,361.5,-17.5,354.0,-17.0,346.5,-16.5,338.0,-15.5,330.0,-14.5,321.5,-13.5,314.0,-13.0,306.5,-13.0,299.0,-13.0,292.0,-13.0,285.0,-12.5,277.0,-12.5,268.5,-12.0,260.5,-12.0,252.5,-11.5,244.5,-10.5,236.0,-10.0,228.0,-10.0,220.0,-9.5,212.0,-9.0,204.0,-8.5,196.0,-7.5,187.5,-7.0,179.5,-6.5,172.0,-6.0,164.0,-5.5,156.0,-5.0,147.5,-4.0,139.0,-3.5,131.0,-3.0,123.0,-2.0,115.0,-1.5,107.0,-1.0,99.0,-0.5,91.0,0.0,83.0,0.5,75.0,1.0,67.5,1.5,59.5,1.5,52.0,2.5,44.0,3.0,36.0,4.0,28.5,4.5,21.0,5.0,13.0,6.0,5.5,6.5" stroke="black" stroke-width="2" fill="none" />
<polyline points="3.0,4.5,11.5,9.5,19.5,8.0,27.0,5.0,34.5,3.0,14.5,9.0" stroke="black" stroke-width="2" fill="none" />
</svg>