<?xml version="1.0" encoding="utf-8"?>
<!-- Generator: Adobe Illustrator 21.1.0, SVG Export Plug-In . SVG Version: 6.00 Build 0)  -->
<svg version="1.1" id="Layer_1" xmlns="http://www.w3.org/2000/svg" xmlns:xlink="http://www.w3.org/1999/xlink" x="0px" y="0px"
	 viewBox="0 0 841.9 595.3" style="enable-background:new 0 0 841.9 595.3;" xml:space="preserve">
<g>
	<g>
		<path d="M250.1,446.4c14.1-27.5,35.9-51,61.1-68.7c11.8-8.4,24.5-15.5,37.8-21.3c14.3-6.2,28.4-11.4,40.6-21.4
			c11.7-9.5,21.2-21.4,30.1-33.4c9.9-13.3,18.3-27.4,26.2-42c7.2-13.3,14.9-26,25.8-36.7c10-9.9,21.8-18,34.6-23.9
			c14.2-6.6,29.6-9.9,45.2-10.7c8.7-0.5,17.5-0.3,26.2,0.2c6.3,0.3,15,0.7,18.6,6.8c3.6,6.1,1.4,16.4,0.4,23
			c-1.1,7.4-2.9,14.6-5.4,21.6c-5.1,14.7-13,28.4-23.3,40.1c-19.8,22.6-46.9,37.2-67.2,59.3c-10.5,11.5-18.9,24.7-27.9,37.4
			c-9.9,13.9-20,28.1-31.4,40.9c-11.2,12.5-25.3,20.3-40.5,27c-14.8,6.6-30.1,12-45.8,16c-30.6,7.7-63.1,9.5-93.6,0.6
			c-5.8-1.7-22.2-5.6-17.6-15c1.4-2.9-2.9-5.4-4.3-2.5c-7.3,14.8,14,20.6,24,23.3c15.7,4.2,32.1,5.7,48.4,5
			c33.4-1.3,66.1-11.2,96.3-25.2c15.7-7.3,29-16.3,40.2-29.6c11.6-13.8,22.3-28.5,32.6-43.3c10-14.3,19.8-28.4,32.7-40.3
			c12-11.1,25.4-20.6,38-31.1c24.5-20.4,42.6-46.2,48.9-77.9c2.3-11.5,6.6-30.2-5.9-37.3c-5.4-3.1-11.9-3.4-18-3.7
			c-9.7-0.4-19.4-0.6-29.1,0.1c-29.9,2.2-58.1,14.7-79.4,35.8c-11.6,11.4-19.8,25-27.4,39.3c-8.5,15.9-17.9,30.9-28.9,45.2
			c-10.4,13.5-22.1,26.7-36.9,35.5c-14.3,8.4-30.7,13.1-45.3,21c-27.7,15.1-52.1,36.4-70.6,62c-4.9,6.8-9.3,14-13.2,21.5
			C244.3,446.7,248.6,449.3,250.1,446.4L250.1,446.4z"/>
	</g>
</g>
<g>
	<g>
		<path d="M546.7,200.2c4.6,2.3,9.1,4.6,13.7,6.8c2.9,1.4,5.4-2.9,2.5-4.3c-4.6-2.3-9.1-4.6-13.7-6.8
			C546.4,194.5,543.8,198.8,546.7,200.2L546.7,200.2z"/>
	</g>
</g>
<g>
	<g>
		<path d="M527.1,209.7c9,6.9,18.1,13.9,27.1,20.8c2.6,2,5-2.4,2.5-4.3c-9-6.9-18.1-13.9-27.1-20.8
			C527,203.4,524.5,207.8,527.1,209.7L527.1,209.7z"/>
	</g>
</g>
<g>
	<g>
		<path d="M505.4,221.4c-0.6,8.2,5.3,13.5,11.6,17.7c9.2,6.1,18.5,12,27.8,18c2.7,1.8,5.2-2.6,2.5-4.3c-7.2-4.6-14.4-9.3-21.5-13.9
			c-6.3-4.1-16-8.5-15.3-17.4C510.7,218.2,505.7,218.2,505.4,221.4L505.4,221.4z"/>
	</g>
</g>
<g>
	<g>
		<path d="M475.1,254.4c2.9,5.8,8.4,8.7,13.7,12c7.4,4.5,12.7,10.7,15.4,18.9c1,3,5.8,1.7,4.8-1.3c-2.4-7.1-6.5-13.5-12.4-18.2
			c-5.7-4.6-13.8-7-17.2-13.9C478,249,473.7,251.5,475.1,254.4L475.1,254.4z"/>
	</g>
</g>
<g>
	<g>
		<path d="M467.9,286.8c6.1,5.4,12.7,10.2,19.9,14.2c2.8,1.6,5.3-2.7,2.5-4.3c-6.8-3.8-13-8.3-18.8-13.5
			C469.1,281.2,465.5,284.7,467.9,286.8L467.9,286.8z"/>
	</g>
</g>
<g>
	<g>
		<path d="M376.5,362.7c6.5,11,13.7,21.4,21.7,31.3c2,2.5,5.5-1,3.5-3.5c-7.7-9.6-14.7-19.7-20.9-30.3
			C379.2,357.5,374.9,360,376.5,362.7L376.5,362.7z"/>
	</g>
</g>
<g>
	<g>
		<path d="M353.4,381.6c2.1,4.8,5.4,8.8,9.5,11.9c2.6,1.9,5.1-2.4,2.5-4.3c-3.5-2.6-6-6.1-7.8-10.1
			C356.4,376.1,352.1,378.6,353.4,381.6L353.4,381.6z"/>
	</g>
</g>
<g>
	<g>
		<path d="M326.6,404.8c6.2,11.8,13.4,22.9,21.6,33.4c2,2.5,5.5-1,3.5-3.5c-7.9-10.2-14.8-21-20.8-32.4
			C329.5,399.4,325.1,401.9,326.6,404.8L326.6,404.8z"/>
	</g>
</g>
<g>
	<g>
		<path d="M304.2,421.3c-4.7,6.3,0.2,13.9,6.5,16.6c4.4,1.9,9.4,2.4,14,3.3c5.8,1.1,11.6,2.2,17.4,3.3c3.1,0.6,4.5-4.2,1.3-4.8
			c-7-1.3-14-2.7-21-4c-5-0.9-19.9-3.7-13.9-11.8C310.4,421.3,306.1,418.8,304.2,421.3L304.2,421.3z"/>
	</g>
</g>
<g>
	<g>
		<path d="M600.5,195.2c2.5-5.3-0.4-10.7-3.6-15c-4.7-6.4-10.8-11.7-17-16.6c-5.7-4.5-11.8-8.9-18.3-12.2c-10.3-5.2-21.9-5-33.1-3.5
			c-13,1.6-25.9,3.9-38.9,5.9c-13,2-26,4.2-38.5,8.2c-11,3.6-21.4,8.6-30.5,15.7c-8.8,6.8-16.3,15.1-23.6,23.6
			c-8.3,9.6-16.3,19.5-25.9,27.8c-5.5,4.7-11.8,9.7-18.8,11.9c-7.2,2.3-16.6,0.5-17.9-8.2c-0.5-3.2-5.3-1.8-4.8,1.3
			c1.3,9.1,10.7,13.8,19.2,12.8c10.8-1.3,20.4-9.2,28.1-16.3c16.3-14.9,28.2-34,45.4-47.9c19.9-16.1,45.6-20.5,70.3-24.3
			c13.7-2.1,27.5-4.8,41.3-6c10.8-0.9,20.6,0.4,29.9,6.1c7.7,4.7,14.9,10.2,21.4,16.3c3.5,3.3,13.7,12.2,11,18
			C594.8,195.6,599.1,198.1,600.5,195.2L600.5,195.2z"/>
	</g>
</g>
<g>
	<g>
		<path d="M238.9,440.5c-18-21.9-21-52.5-26.1-79.4c-1.5-8-3.4-16-3.9-24.1c-0.5-8.2,1.3-15.7,3.8-23.5c4.7-14.5,7.5-28.9,7.1-44.2
			c-1.3,0.7-2.5,1.4-3.8,2.2c9.2,5.9,19.9,7.7,30.6,7.7c11.3,0,23.9-0.6,34.7-4c10.7-3.3,17.3-11.1,23.1-20.4
			c7.4-11.8,14.6-23.7,21.8-35.5c1.7-2.7-2.6-5.3-4.3-2.5c-6.2,10-12.3,20-18.5,30.1c-6,9.8-11.8,19.9-23.5,23.5
			c-9.7,3-20.8,3.5-30.9,3.8c-10.7,0.2-21.4-1.2-30.6-7c-1.6-1-3.8,0.3-3.8,2.2c0.2,8.4-0.4,16.7-2,25c-1.6,8-4.4,15.5-6.6,23.3
			c-4.5,15.8-0.9,31,2.1,46.7c5.3,27.4,8.8,57.4,27.1,79.7C237.4,446.5,240.9,443,238.9,440.5L238.9,440.5z"/>
	</g>
</g>
<g>
	<g>
		<path d="M342,238.4c3.6-5.7,4.6-12.2,6.6-18.6c1-3.4,2.5-6.7,4.5-9.7c1.2-1.8,6-8.9,8.5-8.9c0.5,0-0.3-2.1,0.1,0.4
			c0.1,0.7-0.3,1.7-0.5,2.3c-0.5,1.6-1.1,3.2-1.9,4.6c-1.6,3-3.8,5.6-6.2,8c-4.7,4.7-10.3,8.5-15.7,12.3
			c-12.2,8.7-24.5,17.9-35.4,28.2c-3.4,3.2-6.3,7.6-5.1,12.5c1.1,4.4,5.3,6.7,9.6,5.9c6.5-1.1,9.2-7.6,12.5-12.5
			c4.6-6.9,10.7-12.6,17.7-17c2.7-1.7,0.2-6.1-2.5-4.3c-5.3,3.4-10.1,7.4-14.3,12.1c-1.9,2.1-3.6,4.4-5.2,6.7c-2,3-3.8,7.6-7.2,9.4
			c-2.9,1.6-6.5-0.8-5.7-4.1c0.4-1.9,1.9-3.4,3.2-4.8c2.6-2.7,5.6-5,8.5-7.4c6.2-5.2,12.5-10.2,19-15.1
			c10.1-7.5,21.9-14.1,29.2-24.6c2.6-3.8,5.8-9.6,5-14.4c-0.8-4.6-5.1-4.6-8.2-2.3c-5.5,3.9-10,9.7-12.7,15.9
			c-3.2,7.4-3.6,15.7-8,22.6C336,238.6,340.3,241.1,342,238.4L342,238.4z"/>
	</g>
</g>
<g>
	<g>
		<path d="M334.7,241.2c-4.4,21.2-8.1,42.6-11.1,64.1c-0.4,3.1,4.4,4.5,4.8,1.3c3-21.5,6.7-42.8,11.1-64.1
			C340.2,239.4,335.3,238.1,334.7,241.2L334.7,241.2z"/>
	</g>
</g>
<g>
	<g>
		<path d="M346.6,237.2c6-4.3,12.6-7.1,19.9-8.4c3.2-0.6,1.8-5.4-1.3-4.8c-7.7,1.3-14.8,4.3-21.1,8.9
			C341.5,234.7,344,239.1,346.6,237.2L346.6,237.2z"/>
	</g>
</g>
<g>
	<g>
		<path d="M591.9,176c-31.4-9-65.8-9.2-96.4,3c-26.5,10.6-49.5,29.8-63,55c-7.9,14.8-13,31-21.9,45.4c-8,13-18.4,24.3-30,34.2
			c-25.5,21.8-56.3,35.9-86.6,49.4c-8.8,3.9-17.6,7.8-26.3,11.9c-7.5,3.5-14.9,6.9-19.8,13.8c-5.2,7.1-8.3,15.6-13,23
			c-5.2,8-11.3,15.2-18.1,21.8c-2.3,2.2,1.2,5.8,3.5,3.5c11.1-10.7,19.8-23,26.7-36.8c3.8-7.5,7.9-13.2,15.5-17.3
			c7.5-4,15.3-7.2,23-10.7c29.6-13.3,59.8-26.1,86.1-45.3c11.6-8.5,22.5-18.1,31.7-29.1c9.9-11.8,17-24.9,23.1-38.9
			c6.4-14.7,12.8-29.2,23.3-41.6c9.2-10.9,20.5-19.9,32.9-26.9c32.8-18.3,72.2-20.1,107.9-9.8C593.6,181.7,595,176.9,591.9,176
			L591.9,176z"/>
	</g>
</g>
<g>
	<g>
		<path d="M535,317c77.2-3.4,154-13.1,230.7-21.7c3.2-0.4,3.2-5.4,0-5C689,298.9,612.2,308.6,535,312
			C531.8,312.1,531.8,317.1,535,317L535,317z"/>
	</g>
</g>
<g>
	<g>
		<path d="M202.6,360.9c-47.3,0-94.7,1.7-141.9,5.1c-3.2,0.2-3.2,5.2,0,5c47.2-3.4,94.5-5.1,141.9-5.1
			C205.8,365.9,205.8,360.9,202.6,360.9L202.6,360.9z"/>
	</g>
</g>
<g>
	<g>
		<path d="M87.9,348.3c6.3-12.7,11.6-25.8,15.9-39.3c1-3.1-3.9-4.4-4.8-1.3c-4.1,13.1-9.2,25.8-15.4,38.1
			C82.1,348.7,86.4,351.2,87.9,348.3L87.9,348.3z"/>
	</g>
</g>
<g>
	<g>
		<path d="M83.5,348.7c-4.4-15.9-6.9-32.2-7.6-48.7c-0.1-3.2-5.1-3.2-5,0c0.7,16.9,3.3,33.7,7.8,50
			C79.5,353.1,84.3,351.8,83.5,348.7L83.5,348.7z"/>
	</g>
</g>
<g>
	<g>
		<path d="M87.8,340.1c1.1-14.2,0.9-28.4-0.5-42.6c-0.3-3.2-5.3-3.2-5,0c1.4,14.2,1.5,28.4,0.5,42.6
			C82.5,343.3,87.5,343.3,87.8,340.1L87.8,340.1z"/>
	</g>
</g>
<g>
	<g>
		<path d="M725.1,274.5c5.5-6.2,10.2-12.9,13.9-20.3c1.4-2.9-2.9-5.4-4.3-2.5c-3.5,7-7.9,13.5-13.1,19.3
			C719.4,273.4,722.9,276.9,725.1,274.5L725.1,274.5z"/>
	</g>
</g>
<g>
	<g>
		<path d="M708.1,267.6c-0.4,0.1-7.3-13.6-8-15.1c-2.6-5-5-10.1-7.4-15.3c-1.3-2.9-5.6-0.4-4.3,2.5c3.4,7.4,7,14.8,10.9,22
			c1.9,3.5,4.7,12.5,10.2,10.7C712.5,271.4,711.2,266.5,708.1,267.6L708.1,267.6z"/>
	</g>
</g>
<g>
	<g>
		<path d="M704.9,279.3c2.7-0.6,3.9-2.7,4.3-5.3c0.8-5.1,0.1-10.9,0.1-16.1c0-11.3,0-22.7,0-34c0-3.2-5-3.2-5,0c0,8.4,0,16.9,0,25.3
			c0,2.5,1.3,24.9-0.8,25.3C700.5,275.1,701.8,280,704.9,279.3L704.9,279.3z"/>
	</g>
</g>
<g>
	<g>
		<path d="M721,269.6c4.4-4,7.5-8.8,9.5-14.4c1.1-3-3.7-4.3-4.8-1.3c-1.7,4.7-4.5,8.8-8.3,12.2C715,268.3,718.6,271.8,721,269.6
			L721,269.6z"/>
	</g>
</g>
<g>
	<g>
		<path d="M311.2,140c-29.3-0.4-58.5,5.4-85.4,17.1c-13.6,5.9-26.7,13.2-38.6,22.1c-9.2,6.9-21.1,17.2-21.5,29.7
			c-0.2,5.4,2.9,10.5,8.5,11.5c6.4,1.1,12.5-3.7,16.9-7.8c2.4-2.2-1.2-5.7-3.5-3.5c-2.9,2.7-7,6.3-11.3,6.4
			c-5.4,0.2-6.1-5.4-5.1-9.4c1.7-7,7.6-13.1,12.8-17.8c11.1-10,24.7-17.7,38.2-24.1c27.8-13.1,58.4-19.7,89.2-19.2
			C314.4,145,314.4,140,311.2,140L311.2,140z"/>
	</g>
</g>
<g>
	<g>
		<path d="M185.9,192.7c7.8,22.6,11,47.1,24.6,67.3c1.8,2.6,6.1,0.2,4.3-2.5c-13.4-19.8-16.4-43.9-24.1-66.1
			C189.7,188.3,184.8,189.6,185.9,192.7L185.9,192.7z"/>
	</g>
</g>
<g>
	<g>
		<path d="M306.9,145.9c5.6,9.6,6.9,20.5,7.8,31.4c0.9,11.3,1.8,22.5,2.7,33.8c0.3,3.2,5.3,3.2,5,0c-1-12.4-1.8-24.8-2.9-37.2
			c-1-10.6-2.7-21.2-8.1-30.5C309.6,140.6,305.3,143.1,306.9,145.9L306.9,145.9z"/>
	</g>
</g>
<g>
	<g>
		<path d="M313.7,137.7c-8.1-20-16.5-40.4-19.2-62c-2.2-17.9,3.3-38.2-6.5-54.5c-1.7-2.8-6-0.2-4.3,2.5c5.1,8.5,5.3,18.3,5.1,27.9
			c-0.2,9.5-0.2,18.8,1.3,28.3c3.1,20.5,11,39.9,18.8,59.1C310.1,141.9,315,140.7,313.7,137.7L313.7,137.7z"/>
	</g>
</g>
<g>
	<g>
		<path d="M165,211.8c-8.3-14.7-16.1-29.7-21.6-45.7c-5.6-16.5-8-33.1-7.5-50.5c0.6-16.2,2.4-33-2.8-48.6c-5-15.1-16.1-27-22.2-41.5
			c-1.2-2.9-6.1-1.6-4.8,1.3c6.2,14.8,17.6,27,22.5,42.4c5.3,16.8,2.4,34.7,2.2,51.9c-0.4,33.7,13.5,64.5,29.8,93.3
			C162.3,217.1,166.6,214.6,165,211.8L165,211.8z"/>
	</g>
</g>
</svg>
