<svg xmlns="http://www.w3.org/2000/svg" version="1.1"><polyline points="79.5,1.5,84.5,9.5,90.5,17.5,97.0,26.0,102.0,34.0,101.5,42.5,98.5,51.0,98.0,59.0,97.0,67.0,97.0,75.0,98.0,82.5,98.0,91.0,98.0,99.0,99.5,106.5,100.0,114.0,100.5,121.5,100.5,129.0,102.0,137.0,102.5,144.5,102.0,153.0,102.0,161.0,103.0,169.0,103.5,176.5,97.0,184.5,95.0,192.5,92.5,201.0,90.5,209.0,90.0,217.5,89.0,225.5,89.5,234.0,89.5,242.0,90.5,250.0,92.0,258.0,94.0,268.0" stroke="black" stroke-width="2" fill="none" />
<polyline points="99.0,261.5,90.5,262.5,82.5,263.0" stroke="black" stroke-width="2" fill="none" />
<polyline points="82.5,260.0,90.5,253.0" stroke="black" stroke-width="2" fill="none" />
<polyline points="93.5,251.0,85.0,251.0" stroke="black" stroke-width="2" fill="none" />
<polyline points="82.0,250.5,89.5,243.0" stroke="black" stroke-width="2" fill="none" />
<polyline points="93.5,242.5,85.0,243.5" stroke="black" stroke-width="2" fill="none" />
<polyline points="83.0,243.5,90.5,236.5" stroke="black" stroke-width="2" fill="none" />
<polyline points="96.5,245.5,104.5,248.5,114.0,246.0,112.0,254.0,114.5,262.5,122.5,264.5,136.5,268.5" stroke="black" stroke-width="2" fill="none" />
<polyline points="133.5,273.5,133.5,273.5,133.5,282.0,132.5,290.0,133.5,298.5,125.5,301.5,131.0,307.5,124.5,316.0,114.5,319.0,113.0,328.5,112.0,336.5,112.0,344.5,116.0,352.5,123.0,360.0,127.0,357.0" stroke="black" stroke-width="2" fill="none" />
<polyline points="131.5,363.5,124.0,364.5,116.0,364.5" stroke="black" stroke-width="2" fill="none" />
<polyline points="100.0,365.0,92.5,372.0,84.0,379.0" stroke="black" stroke-width="2" fill="none" />
<polyline points="81.5,381.0,90.0,380.5,98.5,380.0,107.0,379.5" stroke="black" stroke-width="2" fill="none" />
<polyline points="115.5,389.5,108.0,390.5,100.0,391.5" stroke="black" stroke-width="2" fill="none" />
<polyline points="108.5,398.0,116.5,398.0,124.5,397.5,132.5,397.0" stroke="black" stroke-width="2" fill="none" />
<polyline points="139.5,403.0,131.5,410.5" stroke="black" stroke-width="2" fill="none" />
<polyline points="131.5,409.0,139.0,412.0,147.0,416.0,155.0,417.5" stroke="black" stroke-width="2" fill="none" />
<polyline points="155.5,412.5,147.5,412.5,139.0,412.5,131.0,413.0" stroke="black" stroke-width="2" fill="none" />
<polyline points="130.0,414.5,138.0,415.5" stroke="black" stroke-width="2" fill="none" />
<polyline points="133.5,418.0,141.5,410.5" stroke="black" stroke-width="2" fill="none" />
<polyline points="140.0,404.5,132.0,405.0,124.0,405.5" stroke="black" stroke-width="2" fill="none" />
<polyline points="123.0,397.5,115.0,405.5" stroke="black" stroke-width="2" fill="none" />
<polyline points="106.5,434.5,98.5,442.0,90.5,450.0,82.5,457.5,74.0,465.5,66.0,473.5,58.0,481.0,50.5,488.0,42.5,495.5,35.0,503.0,27.0,510.5,19.0,517.5,11.0,525.5,3.0,533.0" stroke="black" stroke-width="2" fill="none" />
<polyline points="3.5,535.0,12.0,534.0,20.0,533.0,28.0,532.5,35.5,531.5,43.0,530.5,50.5,530.0,58.5,529.5,66.0,528.5,73.0,527.5,80.5,526.5" stroke="black" stroke-width="2" fill="none" />
<polyline points="91.0,516.5,83.0,523.5,75.0,531.0,67.0,538.0,59.0,545.0,51.0,552.5,43.5,560.0,35.5,567.5,27.0,575.5,18.5,583.0,10.5,590.5,2.5,597.5" stroke="black" stroke-width="2" fill="none" />
<polyline points="4.0,595.0,11.5,594.5,19.0,593.0,27.0,592.0" stroke="black" stroke-width="2" fill="none" />
<polyline points="26.0,596.5,17.5,604.0,10.0,611.0,2.0,618.5" stroke="black" stroke-width="2" fill="none" />
<polyline points="4.0,619.0,12.0,618.5" stroke="black" stroke-width="2" fill="none" />
<polyline points="11.0,623.0,2.5,623.5" stroke="black" stroke-width="2" fill="none" />
<polyline points="1.5,616.0,9.5,615.5" stroke="black" stroke-width="2" fill="none" />
<polyline points="3.0,608.5,11.0,601.0,19.0,594.0,27.5,585.5,36.0,577.5,44.5,570.0,53.0,562.5,61.0,555.0" stroke="black" stroke-width="2" fill="none" />
<polyline points="29.0,596.5,21.5,597.5,13.5,598.0,5.5,598.5" stroke="black" stroke-width="2" fill="none" />
<polyline points="4.0,602.0,11.5,601.5,19.5,600.5" stroke="black" stroke-width="2" fill="none" />
<polyline points="9.5,609.5,1.5,610.0" stroke="black" stroke-width="2" fill="none" />
<polyline points="2.0,605.5,10.0,605.5,18.0,605.0" stroke="black" stroke-width="2" fill="none" />
<polyline points="2.5,589.5,10.0,589.5,17.5,589.5,25.5,589.0,34.5,588.5" stroke="black" stroke-width="2" fill="none" />
<polyline points="3.5,587.5,11.0,579.5,19.0,571.5,27.0,564.5,35.0,556.5,43.0,549.5,51.0,542.0,59.5,535.5,68.0,528.5,76.0,522.0,84.0,514.5,92.0,507.0,100.0,500.0,107.5,492.5,115.5,485.0" stroke="black" stroke-width="2" fill="none" />
<polyline points="115.5,477.0,107.0,484.5,99.0,492.0,90.5,499.5,82.5,506.5,74.5,514.0,66.5,521.0,58.5,529.0,51.0,536.5,43.5,543.5,36.0,551.0,27.5,558.5,19.5,566.0,11.5,573.0,4.0,580.5" stroke="black" stroke-width="2" fill="none" />
<polyline points="2.5,578.5,10.5,578.0,18.0,577.5,26.0,577.0,34.5,576.5,43.0,576.0" stroke="black" stroke-width="2" fill="none" />
<polyline points="35.0,582.5,27.5,583.5,19.5,584.0,11.5,585.0,3.5,585.0" stroke="black" stroke-width="2" fill="none" />
<polyline points="3.5,583.0,11.5,582.5,19.5,581.5,28.0,580.5,36.0,579.0,44.5,578.0" stroke="black" stroke-width="2" fill="none" />
<polyline points="43.5,570.5,35.0,571.0,27.0,571.5,19.0,572.0,11.5,572.0,3.5,573.0" stroke="black" stroke-width="2" fill="none" />
<polyline points="2.0,573.0,10.0,565.0,18.0,557.0,25.5,550.0,34.0,542.5,42.5,535.0,51.0,528.0,59.0,520.5,67.5,513.5,75.5,506.0,83.5,498.5,91.5,491.0,99.5,483.0,107.5,475.5" stroke="black" stroke-width="2" fill="none" />
<polyline points="106.5,467.5,98.5,474.5,90.5,482.0,83.0,489.5,75.5,497.5,67.5,505.0,59.5,512.0,51.0,519.0,42.5,526.0,34.0,533.5,26.0,540.5,18.0,548.5,10.5,556.0,2.5,564.0" stroke="black" stroke-width="2" fill="none" />
<polyline points="5.0,563.0,13.0,562.5,20.5,562.5,28.5,562.5,37.0,563.0,45.5,563.5,53.5,563.0" stroke="black" stroke-width="2" fill="none" />
<polyline points="43.5,565.5,35.5,566.0,28.0,566.0,20.0,566.5,12.5,567.5,4.5,568.5" stroke="black" stroke-width="2" fill="none" />
<polyline points="3.5,559.5,12.0,559.5,20.5,559.5,28.5,560.0,36.5,559.5,44.5,559.0,53.0,559.0" stroke="black" stroke-width="2" fill="none" />
<polyline points="60.5,554.5,51.5,555.0,43.0,555.5,34.5,556.0,26.5,555.5,18.5,556.0,10.5,556.5,2.5,556.5" stroke="black" stroke-width="2" fill="none" />
<polyline points="2.0,556.0,10.0,548.5,18.0,541.5,26.0,533.5,34.0,526.0,42.5,519.5,51.0,512.0,59.5,504.5,68.0,496.5,76.0,489.0,83.5,481.5,91.5,474.0,99.5,466.0,107.5,458.5" stroke="black" stroke-width="2" fill="none" />
<polyline points="107.0,451.0,99.0,458.5,91.5,466.0,83.5,474.0,75.5,481.5,67.5,489.0,58.5,496.5,50.0,503.5,41.5,511.0,33.0,518.0,25.0,525.5,17.5,533.5,9.5,541.5,1.5,549.5" stroke="black" stroke-width="2" fill="none" />
<polyline points="4.0,548.0,11.5,547.5,19.5,547.0,27.0,547.5,34.5,548.0,42.0,548.0,50.5,548.0,58.5,547.5,67.0,547.0" stroke="black" stroke-width="2" fill="none" />
<polyline points="61.0,550.0,52.5,550.5,44.5,551.0,36.0,551.0,27.5,551.0,19.0,551.5,11.5,551.5,3.5,552.0" stroke="black" stroke-width="2" fill="none" />
<polyline points="2.0,544.0,10.0,544.0,18.5,543.5,27.0,543.5,35.0,543.0,43.0,543.0,51.0,542.5,59.5,542.0,68.0,541.5" stroke="black" stroke-width="2" fill="none" />
<polyline points="98.5,490.0,106.0,489.5,114.5,489.0" stroke="black" stroke-width="2" fill="none" />
<polyline points="106.5,482.0,98.5,482.5" stroke="black" stroke-width="2" fill="none" />
<polyline points="76.0,451.5,68.0,459.0,59.5,467.0,51.5,474.5,44.0,482.0,36.5,489.5,28.5,497.0,21.0,504.0,13.0,511.0,5.0,518.5" stroke="black" stroke-width="2" fill="none" />
<polyline points="3.0,516.5,10.5,516.0,18.5,516.0,26.5,515.5,34.0,515.0,42.0,514.0,49.5,513.5,58.0,512.5,66.0,511.5,74.5,510.5,83.0,510.0,90.5,509.5" stroke="black" stroke-width="2" fill="none" />
<polyline points="85.0,456.5,77.5,456.5,69.5,457.0" stroke="black" stroke-width="2" fill="none" />
<polyline points="60.5,458.5,53.0,466.0,45.0,473.5,36.5,481.0,28.0,488.5,19.0,496.5,11.0,504.0,3.0,511.5" stroke="black" stroke-width="2" fill="none" />
<polyline points="2.5,514.0,10.0,513.5,17.5,512.5,25.5,512.0,33.5,512.0,42.0,512.0,50.0,511.5,58.0,511.0,66.0,510.5" stroke="black" stroke-width="2" fill="none" />
<polyline points="51.0,459.0,43.0,466.5,34.5,473.5,26.5,481.0,18.5,488.0,10.5,495.5,2.5,503.0" stroke="black" stroke-width="2" fill="none" />
<polyline points="4.0,501.5,12.5,501.0,20.5,501.0,29.0,500.0,37.0,499.0,45.0,498.0,53.0,497.5,61.0,497.0,68.5,496.5,77.0,496.5,85.5,496.5,93.5,496.0,101.0,495.0,108.5,494.5" stroke="black" stroke-width="2" fill="none" />
<polyline points="108.0,443.5,100.0,450.5,91.5,457.5,83.5,464.5,75.0,472.0,67.5,479.5,59.0,487.0,50.5,495.0,42.5,502.5,34.0,510.0,25.5,517.0,18.0,525.0,10.0,533.0,2.5,541.0" stroke="black" stroke-width="2" fill="none" />
<polyline points="2.5,543.0,11.0,542.5,20.0,541.5,28.5,541.0,36.5,540.0,44.5,539.5,52.5,539.0,60.0,538.0,68.0,537.5,76.0,537.0" stroke="black" stroke-width="2" fill="none" />
<polyline points="75.5,532.0,67.0,532.5,59.0,533.5,51.5,534.0,43.5,535.0,35.5,536.0,28.0,537.5,20.0,538.5,12.0,539.0,4.0,539.5" stroke="black" stroke-width="2" fill="none" />
<polyline points="4.0,530.5,11.5,530.0,19.5,529.0,27.5,528.5,35.5,528.0,43.5,528.0,51.0,527.0,58.5,525.5,66.5,524.5" stroke="black" stroke-width="2" fill="none" />
<polyline points="3.5,525.0,11.5,517.5,20.0,510.5,28.0,502.5,35.5,495.5,43.0,489.0,51.0,482.0,59.0,474.5,67.0,467.0,74.5,459.5,82.5,452.5,90.0,445.0" stroke="black" stroke-width="2" fill="none" />
<polyline points="90.0,437.0,97.5,436.0,106.0,435.5,114.0,435.0" stroke="black" stroke-width="2" fill="none" />
<polyline points="116.0,443.0,108.5,443.5,100.5,444.5,93.0,445.5,85.0,446.5,77.0,447.5" stroke="black" stroke-width="2" fill="none" />
<polyline points="60.5,437.5,53.0,438.0,45.0,438.5,37.0,439.0" stroke="black" stroke-width="2" fill="none" />
<polyline points="36.0,429.0,44.5,428.5,53.0,428.5,61.5,428.0,69.5,428.5" stroke="black" stroke-width="2" fill="none" />
<polyline points="67.0,420.0,59.5,420.5,52.0,421.0,44.5,421.0" stroke="black" stroke-width="2" fill="none" />
<polyline points="43.0,411.0,51.5,403.5" stroke="black" stroke-width="2" fill="none" />
<polyline points="43.5,402.5,51.5,394.5" stroke="black" stroke-width="2" fill="none" />
<polyline points="52.0,387.0,44.0,395.0" stroke="black" stroke-width="2" fill="none" />
<polyline points="44.0,387.5,52.5,380.0" stroke="black" stroke-width="2" fill="none" />
<polyline points="50.5,372.5,43.0,380.0" stroke="black" stroke-width="2" fill="none" />
<polyline points="36.5,379.5,28.5,387.5,20.5,395.0,12.5,403.0,4.0,410.5" stroke="black" stroke-width="2" fill="none" />
<polyline points="2.5,410.5,10.5,409.5,19.0,408.5" stroke="black" stroke-width="2" fill="none" />
<polyline points="18.0,411.0,26.0,412.0,34.5,412.0,42.5,413.0" stroke="black" stroke-width="2" fill="none" />
<polyline points="37.5,413.5,45.5,413.0,53.0,412.0,60.5,411.5,69.0,411.0,77.5,411.0" stroke="black" stroke-width="2" fill="none" />
<polyline points="76.0,399.5,68.0,400.0,59.5,400.5,51.0,401.0,43.5,401.5,35.0,402.5,27.0,403.5,19.0,404.0,10.5,404.5,2.5,405.0" stroke="black" stroke-width="2" fill="none" />
<polyline points="3.0,406.0,11.0,411.5,18.5,408.0,26.5,409.0,34.5,408.5,42.5,404.5" stroke="black" stroke-width="2" fill="none" />
<polyline points="36.0,404.0,28.0,411.5" stroke="black" stroke-width="2" fill="none" />
<polyline points="20.0,412.0,28.0,405.0,36.0,398.0" stroke="black" stroke-width="2" fill="none" />
<polyline points="35.0,403.0,37.5,399.0,29.5,397.5" stroke="black" stroke-width="2" fill="none" />
<polyline points="26.0,395.0,18.0,402.5,10.5,410.0,3.0,417.5" stroke="black" stroke-width="2" fill="none" />
<polyline points="4.0,413.5,12.0,413.0,19.5,412.0,27.0,411.5" stroke="black" stroke-width="2" fill="none" />
<polyline points="12.0,419.0,4.5,426.5" stroke="black" stroke-width="2" fill="none" />
<polyline points="3.5,427.0,4.5,435.0,20.5,446.0,25.5,454.0" stroke="black" stroke-width="2" fill="none" />
<polyline points="26.5,451.5,19.0,458.5,11.0,466.0,3.0,473.5" stroke="black" stroke-width="2" fill="none" />
<polyline points="3.0,472.5,11.0,472.0,19.0,472.0,27.5,472.0,35.5,472.0,43.5,472.0,51.5,472.0,60.0,471.5,68.0,470.5" stroke="black" stroke-width="2" fill="none" />
<polyline points="43.0,459.0,35.0,466.5,26.5,473.0,18.5,480.5,10.5,488.0,2.5,495.0" stroke="black" stroke-width="2" fill="none" />
<polyline points="1.5,494.0,10.0,493.5,18.0,493.0,26.0,492.5,34.0,491.0,42.0,490.5,50.5,491.0,58.5,490.5,66.5,490.5,74.5,490.5,82.5,490.5,91.0,490.0,100.0,489.5,108.0,488.5,116.5,487.5" stroke="black" stroke-width="2" fill="none" />
<polyline points="84.5,521.5,76.0,522.0,67.5,522.0,59.5,522.5,51.5,522.5,43.5,523.0,35.5,524.0,27.0,524.5,18.5,525.0,10.5,526.0,2.5,527.0" stroke="black" stroke-width="2" fill="none" />
<polyline points="3.0,522.5,11.5,521.5,19.5,520.5,28.0,519.5,35.5,518.5,43.0,517.5,51.5,517.0,59.5,516.5,67.5,516.0" stroke="black" stroke-width="2" fill="none" />
<polyline points="37.0,459.0,29.0,466.5,20.0,474.0,11.5,481.5,3.5,489.5" stroke="black" stroke-width="2" fill="none" />
<polyline points="4.0,488.5,12.0,488.5,19.0,488.5,27.0,487.5,35.0,487.0,43.0,487.0,51.5,487.0,59.0,486.5,67.0,486.5" stroke="black" stroke-width="2" fill="none" />
<polyline points="37.5,449.5,29.0,457.5,20.5,465.5,12.0,473.5,4.5,481.5" stroke="black" stroke-width="2" fill="none" />
<polyline points="4.5,481.0,12.0,480.5,19.5,479.5,27.0,478.5,34.5,478.0,41.5,477.5,49.5,477.5,58.0,478.0,66.0,477.5" stroke="black" stroke-width="2" fill="none" />
<polyline points="27.5,442.5,19.5,450.5,12.0,458.0,4.0,465.0" stroke="black" stroke-width="2" fill="none" />
<polyline points="3.5,465.5,11.5,465.0,19.5,465.0,28.0,464.5,36.5,464.0,44.5,464.0,52.0,463.5,59.5,463.0,67.5,462.5,76.0,462.0" stroke="black" stroke-width="2" fill="none" />
<polyline points="68.5,494.5,60.5,494.0,52.0,494.0,43.5,494.0,35.5,494.5,28.0,495.5,20.5,496.0,12.0,496.0,4.0,496.5" stroke="black" stroke-width="2" fill="none" />
<polyline points="2.5,506.5,11.0,506.0,19.0,505.0,28.0,504.5,36.5,504.0,45.0,504.0,53.0,503.0,61.0,502.0,69.0,501.0" stroke="black" stroke-width="2" fill="none" />
<polyline points="101.0,505.0,93.0,505.5,85.0,506.0,77.0,506.5,69.0,507.5,60.5,508.0,52.5,508.5,44.5,509.0,35.5,509.0,26.0,509.0,17.5,509.0,9.0,509.5,0.5,509.0" stroke="black" stroke-width="2" fill="none" />
<polyline points="4.0,484.5,12.0,484.0,20.0,484.5,28.0,484.0,36.0,484.0,44.0,484.0,51.5,483.5,59.0,483.0,66.0,483.0,73.5,483.5,81.5,483.0,89.5,482.5,98.0,481.5,106.0,481.0,113.5,480.0" stroke="black" stroke-width="2" fill="none" />
<polyline points="113.5,471.0,105.5,471.5,98.0,472.0,90.0,472.5,82.0,472.5,74.5,473.0,67.0,473.5,58.5,474.0,50.5,474.5,42.0,475.0,34.5,475.0,27.0,475.0,19.5,475.0,11.5,475.0,4.0,475.5" stroke="black" stroke-width="2" fill="none" />
<polyline points="4.0,468.0,12.0,467.5,20.0,467.0,27.5,467.0,36.0,467.5,43.5,467.5,52.5,467.5,61.0,466.5,69.5,466.5,78.0,466.0,85.5,465.5,93.5,465.0,101.5,464.5,109.0,463.5,115.5,462.5" stroke="black" stroke-width="2" fill="none" />
<polyline points="114.5,455.5,105.5,456.0,97.5,456.5,90.0,456.5,82.5,456.5,74.0,457.5,66.0,458.0,58.0,459.0,50.5,459.5,43.0,461.0,35.5,461.0,28.0,461.5,20.5,462.0,12.5,462.0,4.5,462.5" stroke="black" stroke-width="2" fill="none" />
<polyline points="4.5,457.5,12.5,457.0,20.5,456.5,28.5,456.5" stroke="black" stroke-width="2" fill="none" />
<polyline points="18.0,442.0,10.0,449.5,2.0,457.5" stroke="black" stroke-width="2" fill="none" />
<polyline points="3.0,454.0,11.0,453.0,19.5,452.0,27.5,451.5,35.5,451.5,44.0,451.5,52.0,451.0,60.0,451.0,68.0,451.0,75.5,450.5,83.5,450.0,91.5,449.5,99.5,448.5,108.0,447.5,116.0,446.0" stroke="black" stroke-width="2" fill="none" />
<polyline points="97.5,434.5,79.5,442.5,64.0,451.0" stroke="black" stroke-width="2" fill="none" />
<polyline points="11.0,442.5,3.0,449.5" stroke="black" stroke-width="2" fill="none" />
<polyline points="5.5,448.5,13.0,448.5,21.0,448.5" stroke="black" stroke-width="2" fill="none" />
<polyline points="5.5,446.5,13.0,445.5,20.5,444.5,28.0,443.5,35.5,442.5,43.0,441.5,51.0,441.5" stroke="black" stroke-width="2" fill="none" />
<polyline points="27.5,436.5,19.5,437.5,12.0,437.5,4.5,438.0" stroke="black" stroke-width="2" fill="none" />
<polyline points="1.5,438.5,9.5,441.0,18.0,442.5,26.0,452.5,34.0,455.5,42.0,457.0,50.5,456.0,58.5,454.5,66.5,450.5,75.0,446.5,83.5,441.5,91.0,438.5,98.5,435.0,106.5,433.0,110.0,434.5,110.0,442.0,109.5,450.5,109.5,458.5,110.5,466.5,111.0,474.5,114.0,483.0,112.0,490.5,106.0,498.5,99.0,506.5,93.0,515.0,86.0,523.0,80.5,531.5,73.5,539.5,67.5,548.0,61.0,556.0,54.0,564.0,48.5,572.5,41.0,580.5,34.0,588.5,28.0,596.5,21.5,604.5,14.5,612.5,8.5,620.0,2.5,627.0,10.5,616.5,18.5,606.5,26.5,597.0,34.5,587.0,42.5,577.5,50.5,567.5,58.0,557.0,66.0,548.0,74.0,538.0,82.0,527.5,90.0,517.5,98.0,508.0,105.5,498.0" stroke="black" stroke-width="2" fill="none" />
<polyline points="167.5,423.5,176.0,430.5,184.0,439.0,192.5,447.0,200.0,453.5,208.0,459.0,216.0,463.0" stroke="black" stroke-width="2" fill="none" />
<polyline points="235.5,421.0,243.5,420.5" stroke="black" stroke-width="2" fill="none" />
<polyline points="242.5,415.0,234.5,415.5" stroke="black" stroke-width="2" fill="none" />
<polyline points="234.0,414.0,236.0,417.5,238.0,425.5" stroke="black" stroke-width="2" fill="none" />
<polyline points="230.5,414.5,238.0,411.0,246.0,410.5,253.5,410.5,261.5,411.5,269.5,411.5,277.5,412.0,285.5,413.0,293.5,415.0,301.5,417.0,308.5,409.0,303.5,417.0" stroke="black" stroke-width="2" fill="none" />
<polyline points="306.0,417.5,314.0,409.5" stroke="black" stroke-width="2" fill="none" />
<polyline points="308.5,412.0,316.5,411.5,324.5,411.0,332.5,410.5,340.5,410.5,348.0,410.0,356.0,410.0" stroke="black" stroke-width="2" fill="none" />
<polyline points="346.5,410.0,338.5,417.0,330.5,424.5" stroke="black" stroke-width="2" fill="none" />
<polyline points="324.0,426.5,332.0,419.5,340.0,412.0" stroke="black" stroke-width="2" fill="none" />
<polyline points="346.0,417.0,338.0,425.0" stroke="black" stroke-width="2" fill="none" />
<polyline points="340.5,426.0,348.5,425.5" stroke="black" stroke-width="2" fill="none" />
<polyline points="349.0,426.5,357.0,416.5,352.0,420.5,349.0,428.5,346.5,436.5,347.5,444.5,350.0,452.5,345.5,460.5,344.5,468.0" stroke="black" stroke-width="2" fill="none" />
<polyline points="347.5,467.0,355.5,460.0" stroke="black" stroke-width="2" fill="none" />
<polyline points="355.0,462.0,347.0,462.5" stroke="black" stroke-width="2" fill="none" />
<polyline points="341.5,465.0,349.5,469.0" stroke="black" stroke-width="2" fill="none" />
<polyline points="348.5,460.0,340.5,463.0" stroke="black" stroke-width="2" fill="none" />
<polyline points="340.5,445.5,348.5,445.0" stroke="black" stroke-width="2" fill="none" />
<polyline points="350.0,443.0,358.5,454.0,363.0,444.5,360.0,453.0,365.5,445.0" stroke="black" stroke-width="2" fill="none" />
<polyline points="370.0,441.0,378.5,441.0" stroke="black" stroke-width="2" fill="none" />
<polyline points="381.0,441.5,373.0,449.0" stroke="black" stroke-width="2" fill="none" />
<polyline points="370.0,451.0,378.0,450.0" stroke="black" stroke-width="2" fill="none" />
<polyline points="371.0,441.0,379.0,433.5,387.0,426.0" stroke="black" stroke-width="2" fill="none" />
<polyline points="382.0,426.0,373.5,434.0,365.0,441.5,356.5,449.0" stroke="black" stroke-width="2" fill="none" />
<polyline points="356.0,445.0,364.0,445.0,372.0,445.0,380.0,444.5" stroke="black" stroke-width="2" fill="none" />
<polyline points="380.0,434.0,372.0,434.0" stroke="black" stroke-width="2" fill="none" />
<polyline points="363.5,437.0,355.5,444.5" stroke="black" stroke-width="2" fill="none" />
<polyline points="354.5,443.5,362.0,443.0" stroke="black" stroke-width="2" fill="none" />
<polyline points="356.0,435.5,364.0,428.0" stroke="black" stroke-width="2" fill="none" />
<polyline points="361.0,423.0,369.5,423.0" stroke="black" stroke-width="2" fill="none" />
<polyline points="372.5,422.5,380.0,421.5,388.0,421.5" stroke="black" stroke-width="2" fill="none" />
<polyline points="384.5,420.0,385.5,428.0,385.0,436.0,382.0,443.5,378.5,452.0,372.5,459.5" stroke="black" stroke-width="2" fill="none" />
<polyline points="379.5,452.5,370.5,453.0,362.5,453.0" stroke="black" stroke-width="2" fill="none" />
<polyline points="367.5,467.0,363.0,459.5,355.0,451.0,351.0,443.0,351.0,435.0,353.0,427.5,358.5,419.5,359.5,418.5,351.5,432.0" stroke="black" stroke-width="2" fill="none" />
<polyline points="346.5,427.0,338.5,434.5" stroke="black" stroke-width="2" fill="none" />
<polyline points="341.0,438.0,349.5,437.0,357.5,436.5,365.0,435.5,372.5,435.0,380.5,434.5,387.5,434.5" stroke="black" stroke-width="2" fill="none" />
<polyline points="386.0,426.0,378.5,427.0,370.5,428.0,363.0,429.0,355.5,430.0,347.5,431.0,339.5,431.5,331.5,431.5" stroke="black" stroke-width="2" fill="none" />
<polyline points="322.5,432.5,331.0,443.5" stroke="black" stroke-width="2" fill="none" />
<polyline points="345.0,427.0,353.0,417.0,355.0,415.0,348.0,423.0,344.0,431.0,343.5,438.5,344.5,447.0,346.5,455.0,357.0,466.5,358.5,470.5,372.5,459.5,380.5,444.5" stroke="black" stroke-width="2" fill="none" />
<polyline points="363.5,418.5,355.5,419.5,346.5,420.0,339.0,420.5,330.5,420.5,322.0,421.0,314.0,420.5,306.0,421.0" stroke="black" stroke-width="2" fill="none" />
<polyline points="315.0,417.5,323.0,409.5" stroke="black" stroke-width="2" fill="none" />
<polyline points="323.5,418.5,332.0,411.0" stroke="black" stroke-width="2" fill="none" />
<polyline points="339.5,417.5,331.5,418.0,324.0,419.0,316.0,420.0" stroke="black" stroke-width="2" fill="none" />
<polyline points="317.5,426.0,325.0,427.5,333.0,430.5,334.0,433.5,337.0,441.5,338.0,443.5,344.0,456.5,362.5,458.5" stroke="black" stroke-width="2" fill="none" />
<polyline points="370.5,428.0,371.0,428.0,375.0,419.5,360.5,420.5" stroke="black" stroke-width="2" fill="none" />
<polyline points="371.5,411.5,371.5,410.0,379.0,411.0" stroke="black" stroke-width="2" fill="none" />
<polyline points="386.5,387.0,394.5,387.0,402.5,387.5" stroke="black" stroke-width="2" fill="none" />
<polyline points="419.0,358.0,427.0,357.5" stroke="black" stroke-width="2" fill="none" />
<polyline points="428.5,352.5,420.5,353.5" stroke="black" stroke-width="2" fill="none" />
<polyline points="418.5,354.0,427.0,346.5" stroke="black" stroke-width="2" fill="none" />
<polyline points="428.0,339.0,419.5,339.5" stroke="black" stroke-width="2" fill="none" />
<polyline points="422.5,339.5,432.5,347.5,432.0,355.0,424.0,363.0" stroke="black" stroke-width="2" fill="none" />
<polyline points="423.0,357.5,415.0,354.5" stroke="black" stroke-width="2" fill="none" />
<polyline points="412.0,351.0,419.5,350.5,427.0,349.5,434.5,348.5" stroke="black" stroke-width="2" fill="none" />
<polyline points="442.0,350.0,450.5,350.0,458.5,350.0,466.5,349.5,475.0,348.5,482.5,348.0" stroke="black" stroke-width="2" fill="none" />
<polyline points="483.0,347.5,475.0,354.5,467.5,361.5" stroke="black" stroke-width="2" fill="none" />
<polyline points="466.0,361.5,474.0,361.5" stroke="black" stroke-width="2" fill="none" />
<polyline points="477.0,363.0,468.5,370.5" stroke="black" stroke-width="2" fill="none" />
<polyline points="467.0,368.5,475.0,368.0" stroke="black" stroke-width="2" fill="none" />
<polyline points="460.5,361.5,468.5,354.0,477.0,346.5,485.5,339.0" stroke="black" stroke-width="2" fill="none" />
<polyline points="485.0,332.0,477.5,339.5,469.0,347.5,461.0,354.5,452.5,361.5" stroke="black" stroke-width="2" fill="none" />
<polyline points="449.5,362.0,457.5,361.5" stroke="black" stroke-width="2" fill="none" />
<polyline points="452.5,357.5,460.5,349.5,468.5,341.5" stroke="black" stroke-width="2" fill="none" />
<polyline points="460.0,339.5,452.5,347.0,445.0,354.5" stroke="black" stroke-width="2" fill="none" />
<polyline points="441.5,354.0,449.5,366.0,457.5,367.0,461.0,360.5,457.0,368.5" stroke="black" stroke-width="2" fill="none" />
<polyline points="449.0,366.0,457.5,366.0,466.0,366.0,474.0,365.5" stroke="black" stroke-width="2" fill="none" />
<polyline points="476.0,347.0,484.0,347.0" stroke="black" stroke-width="2" fill="none" />
<polyline points="476.5,327.0,484.5,326.5,492.0,326.0" stroke="black" stroke-width="2" fill="none" />
<polyline points="491.5,316.5,483.5,316.5,475.5,317.0" stroke="black" stroke-width="2" fill="none" />
<polyline points="476.0,316.0,483.5,308.5" stroke="black" stroke-width="2" fill="none" />
<polyline points="482.5,306.5,481.5,314.5,481.5,322.5,482.0,330.5,484.0,338.0" stroke="black" stroke-width="2" fill="none" />
<polyline points="483.5,353.5,475.0,354.0,466.5,354.0,458.5,354.0,450.0,354.5,441.5,355.0" stroke="black" stroke-width="2" fill="none" />
<polyline points="441.5,352.5,450.0,351.5,459.0,351.5,467.5,351.0,475.5,350.5,483.5,350.0" stroke="black" stroke-width="2" fill="none" />
<polyline points="453.5,339.0,445.5,346.5" stroke="black" stroke-width="2" fill="none" />
<polyline points="443.0,347.0,451.0,346.5,459.0,345.5" stroke="black" stroke-width="2" fill="none" />
<polyline points="452.5,331.5,444.5,339.0" stroke="black" stroke-width="2" fill="none" />
<polyline points="443.0,342.5,450.5,342.0,458.5,341.5,466.5,341.5,474.5,341.0,482.5,340.5" stroke="black" stroke-width="2" fill="none" />
<polyline points="490.0,329.5,482.0,330.5,474.5,331.0,466.0,332.0,458.0,332.5,449.5,332.5,441.5,333.5,434.0,334.0" stroke="black" stroke-width="2" fill="none" />
<polyline points="433.0,328.0,441.0,327.5,450.0,326.5,458.0,325.5,466.0,324.5" stroke="black" stroke-width="2" fill="none" />
<polyline points="463.5,321.0,471.5,318.0,464.5,324.0,465.5,331.5,471.0,331.0" stroke="black" stroke-width="2" fill="none" />
<polyline points="461.0,323.0,469.5,315.0,478.0,308.0,486.0,300.5" stroke="black" stroke-width="2" fill="none" />
<polyline points="477.5,300.0,469.0,307.5,461.0,315.0,452.5,322.5,443.5,330.0" stroke="black" stroke-width="2" fill="none" />
<polyline points="447.5,327.5,447.5,328.5,448.0,337.0" stroke="black" stroke-width="2" fill="none" />
<polyline points="454.5,334.5,452.5,326.5" stroke="black" stroke-width="2" fill="none" />
<polyline points="445.0,321.5,452.5,321.5,460.0,321.0" stroke="black" stroke-width="2" fill="none" />
<polyline points="465.5,316.0,458.0,316.5,450.0,317.0,442.0,317.0,434.0,317.5" stroke="black" stroke-width="2" fill="none" />
<polyline points="433.5,308.0,441.5,307.0,450.0,306.5,457.5,306.0,465.5,306.0,474.0,306.0,482.0,305.5" stroke="black" stroke-width="2" fill="none" />
<polyline points="478.5,308.0,484.5,307.5,486.0,315.5,487.0,324.0,486.5,332.0,485.0,340.0" stroke="black" stroke-width="2" fill="none" />
<polyline points="476.0,312.5,468.5,313.0,461.0,313.5,453.0,313.5,445.5,314.5" stroke="black" stroke-width="2" fill="none" />
<polyline points="444.5,321.5,453.0,315.0,461.0,308.0,469.5,301.0,478.0,293.5" stroke="black" stroke-width="2" fill="none" />
<polyline points="476.0,285.5,468.0,293.0,459.5,300.0,451.5,307.0,443.5,314.0" stroke="black" stroke-width="2" fill="none" />
<polyline points="444.5,306.5,453.0,299.0,461.5,291.5,469.5,284.5" stroke="black" stroke-width="2" fill="none" />
<polyline points="469.5,276.0,461.0,283.5,453.0,291.0,444.5,298.5" stroke="black" stroke-width="2" fill="none" />
<polyline points="445.0,298.5,453.0,297.5,460.5,297.0,468.0,296.5,476.0,295.5" stroke="black" stroke-width="2" fill="none" />
<polyline points="465.5,280.5,458.0,281.0,450.0,281.5" stroke="black" stroke-width="2" fill="none" />
<polyline points="442.5,278.5,450.5,278.0,458.0,277.5,466.0,276.5,474.5,276.5" stroke="black" stroke-width="2" fill="none" />
<polyline points="475.5,278.0,467.0,278.5,458.0,278.5,449.5,279.5,442.0,280.0,434.5,280.5,427.0,281.5,420.0,282.5,412.0,283.5,404.5,283.5,396.0,283.5,388.0,284.5,379.5,285.5,371.5,286.0" stroke="black" stroke-width="2" fill="none" />
<polyline points="372.5,292.5,381.0,291.5,389.0,291.5,396.0,291.5,403.5,291.0,410.5,290.5,418.5,289.5,426.0,289.0,434.0,288.0,442.0,287.0,449.5,286.0,458.0,285.5,466.5,285.0,474.5,285.0,483.0,285.0" stroke="black" stroke-width="2" fill="none" />
<polyline points="476.5,304.5,469.0,305.0,461.0,305.5,453.0,306.0,445.0,306.5" stroke="black" stroke-width="2" fill="none" />
<polyline points="434.0,301.0,442.0,300.5,450.0,300.0,458.5,299.5,467.0,299.5,475.0,299.0,483.5,298.0" stroke="black" stroke-width="2" fill="none" />
<polyline points="467.0,288.0,459.0,288.5,451.5,288.5,443.5,289.0" stroke="black" stroke-width="2" fill="none" />
<polyline points="444.5,288.0,452.5,280.5,460.5,273.5" stroke="black" stroke-width="2" fill="none" />
<polyline points="463.0,275.0,472.0,283.0,476.0,291.5,480.0,299.5,480.5,307.0,479.5,315.0,480.0,323.0,480.0,331.0,482.0,338.5,484.5,346.5,482.5,354.0,478.5,362.0,475.0,370.0" stroke="black" stroke-width="2" fill="none" />
<polyline points="472.5,326.0,473.0,314.0,465.0,313.0" stroke="black" stroke-width="2" fill="none" />
<polyline points="428.0,296.5,420.0,297.0" stroke="black" stroke-width="2" fill="none" />
<polyline points="419.0,298.0,427.0,290.5" stroke="black" stroke-width="2" fill="none" />
<polyline points="419.5,289.0,411.5,296.5" stroke="black" stroke-width="2" fill="none" />
<polyline points="412.5,291.0,420.5,301.0,428.0,299.0,442.0,282.5,450.0,276.0,458.0,274.0,466.0,275.0,474.0,284.0,482.0,299.0" stroke="black" stroke-width="2" fill="none" />
<polyline points="453.0,273.5,441.0,282.0,438.0,290.0,437.5,297.5,438.0,305.0,439.5,312.5,439.5,320.0,440.0,328.0,440.5,335.5,441.0,344.0,443.0,352.0,446.0,360.0,456.5,367.5,461.0,370.5,469.0,372.5,476.5,364.0" stroke="black" stroke-width="2" fill="none" />
<polyline points="433.0,344.0,425.5,339.0,417.0,342.5" stroke="black" stroke-width="2" fill="none" />
<polyline points="416.0,345.0,413.0,353.5,409.0,359.0,416.0,363.0,424.5,363.0,433.0,355.0" stroke="black" stroke-width="2" fill="none" />
<polyline points="424.0,356.5,426.0,348.5,422.0,346.0,414.0,349.0" stroke="black" stroke-width="2" fill="none" />
<polyline points="381.0,358.5,372.5,360.0" stroke="black" stroke-width="2" fill="none" />
<polyline points="373.5,349.0,381.0,348.0" stroke="black" stroke-width="2" fill="none" />
<polyline points="370.5,333.0,362.5,340.5,354.5,347.5" stroke="black" stroke-width="2" fill="none" />
<polyline points="355.0,347.0,363.0,346.5" stroke="black" stroke-width="2" fill="none" />
<polyline points="356.5,340.5,364.0,333.0" stroke="black" stroke-width="2" fill="none" />
<polyline points="363.5,338.0,356.0,338.0" stroke="black" stroke-width="2" fill="none" />
<polyline points="354.5,331.5,362.5,324.0,370.5,316.5" stroke="black" stroke-width="2" fill="none" />
<polyline points="371.0,309.0,363.0,316.5,355.5,324.0" stroke="black" stroke-width="2" fill="none" />
<polyline points="357.0,319.0,365.0,319.0" stroke="black" stroke-width="2" fill="none" />
<polyline points="359.0,316.0,366.5,308.5" stroke="black" stroke-width="2" fill="none" />
<polyline points="365.0,300.5,373.0,300.5,380.5,300.0,388.0,299.5,396.0,299.5,404.0,299.0,411.5,299.0,419.5,299.0,427.5,299.0" stroke="black" stroke-width="2" fill="none" />
<polyline points="412.0,304.0,403.5,305.0,395.0,305.5,386.5,306.5,379.0,307.0,371.0,307.5,363.5,308.5,356.0,309.5,348.0,310.0" stroke="black" stroke-width="2" fill="none" />
<polyline points="347.5,303.0,355.5,302.5" stroke="black" stroke-width="2" fill="none" />
<polyline points="351.0,298.5,352.0,306.5,358.5,308.0,366.5,295.0,374.5,278.5" stroke="black" stroke-width="2" fill="none" />
<polyline points="379.0,276.0,387.0,276.0,395.0,275.5,403.0,276.0,411.5,275.5,419.5,275.5,428.0,275.0" stroke="black" stroke-width="2" fill="none" />
<polyline points="423.5,279.5,431.5,287.5,430.0,296.0" stroke="black" stroke-width="2" fill="none" />
<polyline points="432.5,287.5,424.0,281.0" stroke="black" stroke-width="2" fill="none" />
<polyline points="417.0,284.5,411.5,292.5,418.5,300.5" stroke="black" stroke-width="2" fill="none" />
<polyline points="425.5,296.0,423.0,287.5,420.0,286.5,412.5,289.5" stroke="black" stroke-width="2" fill="none" />
<polyline points="409.0,284.5,408.0,287.5,415.0,279.5" stroke="black" stroke-width="2" fill="none" />
<polyline points="419.5,251.0,411.0,252.0,403.0,253.0,395.0,253.5" stroke="black" stroke-width="2" fill="none" />
<polyline points="394.5,251.0,378.5,259.0,376.5,266.5,375.0,274.0,372.0,282.0,368.0,290.0,365.0,298.0,362.0,305.5,365.0,315.5,363.5,324.0,364.5,332.0,363.5,340.0,363.0,350.5,366.0,358.5,370.5,367.0,374.5,375.5,377.5,383.5,380.5,392.0,384.5,400.0,388.5,400.0,396.5,400.0,404.5,400.0,412.0,400.0,420.5,400.0" stroke="black" stroke-width="2" fill="none" />
<polyline points="377.5,338.0,370.0,338.5,362.0,338.5,353.5,338.5,346.0,339.5" stroke="black" stroke-width="2" fill="none" />
<polyline points="347.5,332.5,355.0,332.0,363.0,331.0,371.0,330.5,378.5,329.5,387.0,329.5" stroke="black" stroke-width="2" fill="none" />
<polyline points="363.5,329.5,355.5,330.5" stroke="black" stroke-width="2" fill="none" />
<polyline points="348.0,323.5,356.0,323.0,364.0,323.0,372.0,322.5,379.5,323.0,387.0,322.5,395.5,322.0" stroke="black" stroke-width="2" fill="none" />
<polyline points="395.0,315.0,387.0,316.0,379.0,316.5,370.5,317.0,362.5,317.0,355.0,317.0,347.0,317.5" stroke="black" stroke-width="2" fill="none" />
<polyline points="332.5,313.0,324.0,321.0,316.0,329.5" stroke="black" stroke-width="2" fill="none" />
<polyline points="316.0,331.0,324.0,330.5,332.0,330.0" stroke="black" stroke-width="2" fill="none" />
<polyline points="332.5,330.5,325.0,338.5" stroke="black" stroke-width="2" fill="none" />
<polyline points="321.5,339.0,313.5,339.5" stroke="black" stroke-width="2" fill="none" />
<polyline points="316.5,343.5,317.0,342.5,316.0,350.0,320.0,354.0" stroke="black" stroke-width="2" fill="none" />
<polyline points="322.5,355.5,314.5,363.0,306.5,370.0,298.5,377.5" stroke="black" stroke-width="2" fill="none" />
<polyline points="315.5,371.5,324.0,364.0" stroke="black" stroke-width="2" fill="none" />
<polyline points="325.0,350.5,332.5,350.5" stroke="black" stroke-width="2" fill="none" />
<polyline points="324.0,347.0,332.0,339.0" stroke="black" stroke-width="2" fill="none" />
<polyline points="333.0,338.0,325.0,338.5,317.0,339.0,308.5,339.5" stroke="black" stroke-width="2" fill="none" />
<polyline points="309.5,332.5,317.0,332.0,324.5,332.0,332.0,332.0,339.5,331.5" stroke="black" stroke-width="2" fill="none" />
<polyline points="332.5,322.5,325.0,329.5,317.0,337.5,309.0,345.0,301.0,353.0,293.0,361.0,284.5,368.0,276.5,375.5,268.0,383.5,260.5,391.0" stroke="black" stroke-width="2" fill="none" />
<polyline points="260.5,389.0,268.5,389.0,276.5,389.0,285.0,389.0,293.0,388.5" stroke="black" stroke-width="2" fill="none" />
<polyline points="298.0,403.5,306.5,402.5,314.5,402.5,323.0,402.0,332.0,401.5" stroke="black" stroke-width="2" fill="none" />
<polyline points="306.0,410.5,298.5,408.0" stroke="black" stroke-width="2" fill="none" />
<polyline points="296.0,421.0,304.0,419.0,312.0,421.0,319.0,427.0,326.0,434.5,330.5,442.5,343.0,452.5" stroke="black" stroke-width="2" fill="none" />
<polyline points="375.0,376.5,367.0,360.0,359.5,347.5,351.5,347.0" stroke="black" stroke-width="2" fill="none" />
<polyline points="331.5,351.5,323.5,352.5,315.5,354.0,307.5,355.0,299.5,355.0,291.5,356.0,283.0,356.5,275.0,357.0,266.0,357.0,258.0,358.0" stroke="black" stroke-width="2" fill="none" />
<polyline points="261.5,358.0,247.5,366.0,246.0,374.5,247.0,382.5,257.5,391.0,274.5,399.5,282.5,403.5,290.5,406.0,298.5,409.0,306.5,406.0,310.5,409.0,318.5,410.0,326.0,411.0,334.5,411.0,343.0,411.5,351.0,412.5,359.0,410.5,367.0,410.5,369.5,416.5,377.5,420.0,385.0,422.0" stroke="black" stroke-width="2" fill="none" />
<polyline points="366.0,391.5,358.0,378.0,350.0,368.0" stroke="black" stroke-width="2" fill="none" />
<polyline points="314.0,354.5,306.0,362.5,298.0,369.5,290.0,377.0,282.0,384.0,274.0,391.5" stroke="black" stroke-width="2" fill="none" />
<polyline points="276.5,392.5,268.5,393.0" stroke="black" stroke-width="2" fill="none" />
<polyline points="266.0,393.5,274.0,385.5,281.5,378.0,289.5,370.5,297.5,362.5,305.5,354.5,313.0,346.5" stroke="black" stroke-width="2" fill="none" />
<polyline points="315.5,347.5,307.0,347.0,299.0,347.5,291.0,348.0" stroke="black" stroke-width="2" fill="none" />
<polyline points="290.5,356.0,283.0,363.0,275.0,370.5,267.0,378.5,259.5,386.5" stroke="black" stroke-width="2" fill="none" />
<polyline points="253.5,384.5,261.0,384.0,268.5,383.5,276.0,383.0,284.0,383.0,291.5,383.0" stroke="black" stroke-width="2" fill="none" />
<polyline points="291.0,361.0,299.0,360.5,307.0,360.5,315.0,360.5" stroke="black" stroke-width="2" fill="none" />
<polyline points="317.0,365.5,308.5,366.5,300.5,367.5,292.0,367.5,284.5,368.0,276.0,368.5,267.0,369.5,259.0,370.0" stroke="black" stroke-width="2" fill="none" />
<polyline points="260.0,363.0,252.0,370.5,243.5,377.5" stroke="black" stroke-width="2" fill="none" />
<polyline points="244.5,373.5,252.0,373.0,260.0,372.0,268.0,372.0,276.0,372.0,284.0,371.5,292.0,370.5,299.5,370.0,308.0,369.0,316.5,367.5" stroke="black" stroke-width="2" fill="none" />
<polyline points="299.0,378.0,291.0,378.0,283.0,378.5,274.5,378.5,266.5,379.0,259.0,380.0,251.0,381.0" stroke="black" stroke-width="2" fill="none" />
<polyline points="250.5,384.0,258.0,377.0,265.5,369.5,273.5,361.5,281.5,354.5" stroke="black" stroke-width="2" fill="none" />
<polyline points="267.5,363.5,260.0,370.5,252.0,378.0" stroke="black" stroke-width="2" fill="none" />
<polyline points="251.0,375.5,259.0,375.0,267.0,375.5,274.5,375.0,282.5,374.5,291.0,374.5,299.0,374.5,307.5,374.5" stroke="black" stroke-width="2" fill="none" />
<polyline points="324.5,359.0,316.0,358.5,307.5,358.5,299.0,358.5,291.5,359.0,284.0,359.5,276.5,360.5,268.5,361.0,260.0,361.5,252.5,362.5,244.5,363.0,236.5,363.5,229.0,364.0,221.0,364.5" stroke="black" stroke-width="2" fill="none" />
<polyline points="219.5,357.0,227.5,356.5,235.5,355.5" stroke="black" stroke-width="2" fill="none" />
<polyline points="234.5,347.0,226.5,347.5,218.5,347.5" stroke="black" stroke-width="2" fill="none" />
<polyline points="219.0,342.0,227.0,341.5,234.5,341.0" stroke="black" stroke-width="2" fill="none" />
<polyline points="235.5,333.0,227.5,333.5" stroke="black" stroke-width="2" fill="none" />
<polyline points="230.0,326.0,238.0,325.5" stroke="black" stroke-width="2" fill="none" />
<polyline points="236.5,318.5,228.5,318.5,220.5,319.0" stroke="black" stroke-width="2" fill="none" />
<polyline points="220.5,309.5,228.5,309.5,237.0,309.5" stroke="black" stroke-width="2" fill="none" />
<polyline points="245.0,299.0,237.0,299.0,229.0,299.5,221.0,300.0" stroke="black" stroke-width="2" fill="none" />
<polyline points="220.0,285.0,228.5,284.5,237.0,284.5,245.5,284.0,253.5,283.5,261.5,283.0,269.5,282.5,277.0,282.0,285.0,281.5,293.0,281.5,301.0,281.0,309.0,280.5,316.5,279.5,325.0,279.0,333.5,277.5" stroke="black" stroke-width="2" fill="none" />
<polyline points="333.0,290.0,325.0,297.5" stroke="black" stroke-width="2" fill="none" />
<polyline points="323.5,292.0,315.0,299.5,307.0,307.0" stroke="black" stroke-width="2" fill="none" />
<polyline points="308.0,311.0,316.0,310.5,324.5,309.5,332.0,308.0,339.0,307.5" stroke="black" stroke-width="2" fill="none" />
<polyline points="331.0,306.5,323.0,313.5,314.5,320.5" stroke="black" stroke-width="2" fill="none" />
<polyline points="316.5,322.5,324.0,322.0,332.0,321.5" stroke="black" stroke-width="2" fill="none" />
<polyline points="331.5,313.5,323.5,314.0" stroke="black" stroke-width="2" fill="none" />
<polyline points="316.0,312.5,324.0,304.5,332.0,296.5" stroke="black" stroke-width="2" fill="none" />
<polyline points="332.0,304.0,324.0,304.5" stroke="black" stroke-width="2" fill="none" />
<polyline points="324.5,296.5,317.0,296.5,309.0,296.5,301.0,296.5" stroke="black" stroke-width="2" fill="none" />
<polyline points="298.0,298.0,306.0,290.0,313.5,282.0" stroke="black" stroke-width="2" fill="none" />
<polyline points="315.0,275.5,307.0,282.5,299.0,290.5,291.0,298.0" stroke="black" stroke-width="2" fill="none" />
<polyline points="292.0,295.0,304.0,303.0,308.0,311.0,310.0,319.0,310.0,327.0,309.0,335.0,305.0,343.0,296.0,351.0" stroke="black" stroke-width="2" fill="none" />
<polyline points="283.5,332.0,276.0,332.5" stroke="black" stroke-width="2" fill="none" />
<polyline points="274.5,329.5,282.5,336.5,290.5,338.0,298.5,331.0" stroke="black" stroke-width="2" fill="none" />
<polyline points="309.0,325.5,317.0,325.5,324.5,324.5,332.0,324.0,340.0,323.0" stroke="black" stroke-width="2" fill="none" />
<polyline points="338.5,315.5,331.5,316.0,324.0,317.0,316.0,317.5,308.5,318.0" stroke="black" stroke-width="2" fill="none" />
<polyline points="313.5,309.0,314.5,301.0,313.5,302.0" stroke="black" stroke-width="2" fill="none" />
<polyline points="316.5,300.0,315.5,308.0" stroke="black" stroke-width="2" fill="none" />
<polyline points="306.0,298.0,314.0,290.0,321.5,283.0" stroke="black" stroke-width="2" fill="none" />
<polyline points="305.5,274.0,298.0,281.5,290.5,289.0" stroke="black" stroke-width="2" fill="none" />
<polyline points="283.0,288.0,290.5,280.5,298.5,273.0,306.5,265.5" stroke="black" stroke-width="2" fill="none" />
<polyline points="299.5,265.0,291.5,273.0,283.5,280.5,276.0,289.0" stroke="black" stroke-width="2" fill="none" />
<polyline points="267.0,290.5,274.5,283.0,283.0,275.5,291.0,268.5" stroke="black" stroke-width="2" fill="none" />
<polyline points="291.5,259.5,283.5,267.0,275.0,274.0,266.5,281.0,258.5,288.0" stroke="black" stroke-width="2" fill="none" />
<polyline points="257.5,288.5,265.5,288.0,273.5,287.5,281.5,286.5,289.5,286.5,297.5,286.0,306.0,285.0,314.5,284.5,323.0,284.5" stroke="black" stroke-width="2" fill="none" />
<polyline points="347.5,277.5,355.0,277.0" stroke="black" stroke-width="2" fill="none" />
<polyline points="357.5,273.5,349.5,281.5" stroke="black" stroke-width="2" fill="none" />
<polyline points="341.0,300.0,333.5,300.0,324.5,300.0,316.0,299.5,307.5,299.5,299.0,299.5" stroke="black" stroke-width="2" fill="none" />
<polyline points="303.0,300.5,294.0,295.5,285.5,293.5,277.5,292.5,269.5,291.0,261.5,289.5,253.5,287.5,245.5,279.5" stroke="black" stroke-width="2" fill="none" />
<polyline points="245.5,278.0,249.5,286.0" stroke="black" stroke-width="2" fill="none" />
<polyline points="251.0,288.5,259.0,280.5,267.0,273.5,275.5,266.5,283.5,259.5" stroke="black" stroke-width="2" fill="none" />
<polyline points="286.0,253.5,263.0,261.5,250.5,269.5,242.5,277.5" stroke="black" stroke-width="2" fill="none" />
<polyline points="244.5,276.5,252.5,276.0,260.0,275.5,268.0,275.5,277.0,275.0,285.0,274.0,293.0,274.0,300.5,272.5,308.5,271.5,316.5,271.0,324.5,270.5" stroke="black" stroke-width="2" fill="none" />
<polyline points="333.0,245.0,341.0,237.0" stroke="black" stroke-width="2" fill="none" />
<polyline points="348.0,232.5,355.5,225.0,363.0,218.0,371.0,210.5,379.5,203.5" stroke="black" stroke-width="2" fill="none" />
<polyline points="378.5,209.5,370.5,217.5,362.5,225.5,355.0,234.0" stroke="black" stroke-width="2" fill="none" />
<polyline points="348.0,229.5,356.5,229.0,364.5,228.5,372.0,228.0,380.0,227.5,387.5,226.5" stroke="black" stroke-width="2" fill="none" />
<polyline points="380.5,228.5,372.5,236.0" stroke="black" stroke-width="2" fill="none" />
<polyline points="368.0,233.5,380.5,241.0" stroke="black" stroke-width="2" fill="none" />
<polyline points="380.5,243.0,372.5,250.5" stroke="black" stroke-width="2" fill="none" />
<polyline points="375.0,249.5,372.5,251.0,370.5,243.0" stroke="black" stroke-width="2" fill="none" />
<polyline points="364.5,244.0,372.5,243.5,380.5,243.5" stroke="black" stroke-width="2" fill="none" />
<polyline points="377.5,261.5,386.0,261.5,394.0,261.0,402.5,260.0,410.5,259.0,419.0,258.5,427.0,257.5" stroke="black" stroke-width="2" fill="none" />
<polyline points="428.0,268.0,420.0,268.5,411.5,268.0,403.5,268.5,395.0,268.5,387.0,269.0,379.0,270.0" stroke="black" stroke-width="2" fill="none" />
<polyline points="376.5,266.0,384.5,256.0,392.5,253.0,400.5,250.5,408.5,249.0,416.5,248.0,424.5,247.5,432.5,247.0,440.5,247.0" stroke="black" stroke-width="2" fill="none" />
<polyline points="378.5,219.5,370.5,227.0" stroke="black" stroke-width="2" fill="none" />
<polyline points="378.5,223.5,370.5,224.0,362.5,225.0,354.5,225.5" stroke="black" stroke-width="2" fill="none" />
<polyline points="347.5,227.0,355.0,220.0,362.5,213.0,370.0,206.0" stroke="black" stroke-width="2" fill="none" />
<polyline points="372.0,197.0,363.5,204.0,355.0,211.0,346.5,218.5" stroke="black" stroke-width="2" fill="none" />
<polyline points="341.0,218.0,349.0,210.5,356.5,203.0,364.0,195.0" stroke="black" stroke-width="2" fill="none" />
<polyline points="362.5,190.5,370.5,198.5,375.0,207.0,379.5,215.0,381.5,223.5,382.5,231.5,382.0,239.5" stroke="black" stroke-width="2" fill="none" />
<polyline points="389.5,217.0,381.5,217.5,373.0,218.5,365.0,219.0,356.5,219.0,348.5,219.0,340.0,219.0,331.5,219.5,323.5,219.5" stroke="black" stroke-width="2" fill="none" />
<polyline points="321.5,212.0,330.0,211.5,338.0,210.5,347.0,210.0,356.0,209.0,364.5,208.0,373.0,208.0,381.5,207.5" stroke="black" stroke-width="2" fill="none" />
<polyline points="362.0,202.5,353.5,203.5" stroke="black" stroke-width="2" fill="none" />
<polyline points="349.0,201.0,341.5,208.5" stroke="black" stroke-width="2" fill="none" />
<polyline points="337.5,210.5,346.0,200.5,354.5,196.5,362.5,191.0,370.5,198.0,379.0,210.0" stroke="black" stroke-width="2" fill="none" />
<polyline points="370.5,208.5,362.5,208.5,354.5,209.0,346.5,209.0" stroke="black" stroke-width="2" fill="none" />
<polyline points="339.0,218.5,347.0,217.5,355.0,217.0,363.5,216.0,371.5,215.5,379.5,214.5" stroke="black" stroke-width="2" fill="none" />
<polyline points="379.5,201.5,372.0,201.5,364.0,202.0,355.5,202.5,347.0,203.0,339.5,203.0,332.0,203.5,324.0,204.0" stroke="black" stroke-width="2" fill="none" />
<polyline points="325.5,199.0,334.0,198.0,341.5,197.5,349.0,196.5,357.0,195.5,365.0,194.5,372.5,194.0" stroke="black" stroke-width="2" fill="none" />
<polyline points="358.5,192.5,353.5,192.5" stroke="black" stroke-width="2" fill="none" />
<polyline points="357.5,188.5,345.5,199.5,340.0,207.5,339.0,215.5,340.5,224.0,347.0,232.5,353.5,242.5" stroke="black" stroke-width="2" fill="none" />
<polyline points="349.0,233.0,341.0,233.5,333.5,233.5,325.0,234.0,317.0,234.5,309.5,234.5,301.0,236.0,292.5,236.5,285.0,237.5,277.0,238.0" stroke="black" stroke-width="2" fill="none" />
<polyline points="291.0,252.5,299.0,252.0,306.5,252.0,314.5,251.5" stroke="black" stroke-width="2" fill="none" />
<polyline points="315.0,242.5,323.0,242.0,331.0,241.0" stroke="black" stroke-width="2" fill="none" />
<polyline points="331.5,234.5,324.0,241.5" stroke="black" stroke-width="2" fill="none" />
<polyline points="315.0,240.5,323.0,233.5,331.0,226.0" stroke="black" stroke-width="2" fill="none" />
<polyline points="332.5,223.0,340.5,236.0,348.5,240.0,356.5,240.0" stroke="black" stroke-width="2" fill="none" />
<polyline points="360.0,251.0,354.0,259.0,358.0,254.0,365.0,255.0" stroke="black" stroke-width="2" fill="none" />
<polyline points="364.5,256.0,365.5,264.0,362.0,272.0,356.0,279.5,350.5,287.0,351.5,295.0,348.5,302.5,350.0,310.5,350.0,318.0,351.0,326.0,351.0,334.0,351.0,342.5,353.0,350.5,352.0,358.5,351.0,367.0,354.0,375.5,360.5,383.5,364.5,391.0" stroke="black" stroke-width="2" fill="none" />
<polyline points="324.5,362.0,316.5,369.5,308.5,376.0,301.0,380.0,293.0,383.5,285.5,387.5,277.0,392.5,269.0,395.5,261.0,391.5,253.0,388.0,242.0,379.0,234.0,377.5,226.5,376.0,218.5,374.5,210.5,373.5,202.5,373.5" stroke="black" stroke-width="2" fill="none" />
<polyline points="171.0,357.5,163.0,358.0" stroke="black" stroke-width="2" fill="none" />
<polyline points="162.0,351.5,170.0,351.0" stroke="black" stroke-width="2" fill="none" />
<polyline points="173.0,340.0,165.5,340.5,157.5,341.0,149.0,341.5" stroke="black" stroke-width="2" fill="none" />
<polyline points="149.5,342.5,157.5,338.5,158.0,338.5,144.5,346.5,142.5,351.5,148.0,348.5,156.0,350.5,164.0,346.0,170.0,340.0,178.5,343.0,189.5,355.0,197.5,375.0,204.0,384.0,202.5,392.0,199.0,400.5,193.0,409.0,185.0,417.0,188.0,414.5,195.5,404.5" stroke="black" stroke-width="2" fill="none" />
<polyline points="197.0,392.5,189.5,406.0,181.5,414.0,173.5,418.5,165.5,421.5" stroke="black" stroke-width="2" fill="none" />
<polyline points="157.5,366.0,165.5,365.0,173.0,364.0" stroke="black" stroke-width="2" fill="none" />
<polyline points="158.0,365.0,149.5,372.5,157.0,366.0,159.5,358.0,164.0,349.5,162.5,342.5,151.5,344.0" stroke="black" stroke-width="2" fill="none" />
<polyline points="162.5,352.0,153.0,361.5,145.0,371.5,151.5,365.5,154.5,357.5,151.5,343.5,148.5,340.5,140.0,337.5,132.0,335.0,124.0,336.0" stroke="black" stroke-width="2" fill="none" />
<polyline points="129.0,333.0,137.5,332.5,145.5,332.0,153.5,332.0,162.0,332.0,170.5,331.5" stroke="black" stroke-width="2" fill="none" />
<polyline points="168.0,338.5,171.0,346.5,172.5,354.5,170.5,362.5,167.0,370.5" stroke="black" stroke-width="2" fill="none" />
<polyline points="128.5,358.5,134.0,350.5,138.0,339.5,132.0,344.5" stroke="black" stroke-width="2" fill="none" />
<polyline points="132.5,341.5,134.5,338.5,133.0,348.5,137.0,353.5,127.5,361.5,128.0,367.5,132.0,366.5" stroke="black" stroke-width="2" fill="none" />
<polyline points="106.0,361.5,98.5,362.5,91.5,363.0,84.0,364.0,76.5,364.5,68.0,364.0,60.0,364.5,52.0,364.5,43.5,365.0" stroke="black" stroke-width="2" fill="none" />
<polyline points="44.0,356.0,51.5,356.0,59.0,356.0,67.0,355.5,74.5,355.0,82.5,354.5,90.0,353.5,98.5,353.0,106.5,353.0,114.5,353.0,123.0,352.5" stroke="black" stroke-width="2" fill="none" />
<polyline points="124.5,345.5,116.5,346.0,108.0,346.5,99.5,347.0,91.0,347.0,82.5,347.0,74.5,347.5,66.0,347.5,57.5,347.5,49.0,347.5,40.5,347.5" stroke="black" stroke-width="2" fill="none" />
<polyline points="51.0,338.5,59.0,330.5,67.0,323.0,75.0,315.5" stroke="black" stroke-width="2" fill="none" />
<polyline points="67.0,314.5,59.0,322.0,50.5,329.5,42.5,337.0" stroke="black" stroke-width="2" fill="none" />
<polyline points="36.0,337.5,44.0,329.5,52.0,322.0,60.0,314.0" stroke="black" stroke-width="2" fill="none" />
<polyline points="59.0,306.5,51.0,314.0,43.0,322.0,35.5,330.0,27.5,338.5" stroke="black" stroke-width="2" fill="none" />
<polyline points="18.5,347.0,11.0,354.5,3.0,362.5" stroke="black" stroke-width="2" fill="none" />
<polyline points="3.0,358.5,11.5,358.0,19.5,357.5,28.0,356.5" stroke="black" stroke-width="2" fill="none" />
<polyline points="17.0,354.5,9.5,362.0,2.0,369.5" stroke="black" stroke-width="2" fill="none" />
<polyline points="4.5,369.5,12.5,369.0" stroke="black" stroke-width="2" fill="none" />
<polyline points="7.5,367.0,15.5,370.5,23.5,372.5,31.5,372.5,40.0,373.5,48.5,375.0,52.5,379.0,52.5,387.0,52.5,395.0,52.0,403.0,50.5,410.5" stroke="black" stroke-width="2" fill="none" />
<polyline points="19.0,430.0,11.0,430.5,2.5,431.0" stroke="black" stroke-width="2" fill="none" />
<polyline points="5.5,434.5,13.0,439.5,21.0,439.5,29.0,440.0" stroke="black" stroke-width="2" fill="none" />
<polyline points="18.5,420.5,10.5,421.5,2.0,422.0" stroke="black" stroke-width="2" fill="none" />
<polyline points="3.0,401.0,10.5,401.0,19.0,400.5" stroke="black" stroke-width="2" fill="none" />
<polyline points="3.5,401.0,11.0,394.0,19.0,386.5,26.0,379.0" stroke="black" stroke-width="2" fill="none" />
<polyline points="23.0,375.5,31.0,375.5,43.5,377.0" stroke="black" stroke-width="2" fill="none" />
<polyline points="26.0,372.0,18.0,380.0,10.5,387.0,3.5,395.0" stroke="black" stroke-width="2" fill="none" />
<polyline points="2.5,394.0,10.5,393.0,18.5,392.5" stroke="black" stroke-width="2" fill="none" />
<polyline points="21.0,386.0,13.5,386.5,6.0,387.5" stroke="black" stroke-width="2" fill="none" />
<polyline points="2.5,387.0,10.5,380.0,19.0,372.5" stroke="black" stroke-width="2" fill="none" />
<polyline points="17.0,364.0,9.0,371.5,1.0,379.0" stroke="black" stroke-width="2" fill="none" />
<polyline points="5.5,378.5,13.0,378.0,21.0,377.5" stroke="black" stroke-width="2" fill="none" />
<polyline points="6.5,374.0,14.0,373.5,21.0,373.5,28.5,373.0,36.0,372.5,44.0,372.0,51.5,371.0,59.5,369.5,67.0,368.5,74.5,368.0,83.0,367.5,90.5,367.0,98.5,367.0,106.5,366.5" stroke="black" stroke-width="2" fill="none" />
<polyline points="100.5,356.0,92.0,363.0,83.5,370.5" stroke="black" stroke-width="2" fill="none" />
<polyline points="84.5,365.5,92.0,378.0,100.0,376.0" stroke="black" stroke-width="2" fill="none" />
<polyline points="93.5,380.5,101.5,385.5,109.5,390.5,117.5,394.5,125.5,400.0,133.5,405.0,141.5,410.5,149.5,414.5" stroke="black" stroke-width="2" fill="none" />
<polyline points="131.0,357.5,123.0,359.0,115.0,348.0,109.0,336.0,107.5,331.0,106.5,323.0,106.5,314.5,108.5,310.5,111.0,302.0,120.0,294.0,124.0,290.0,116.0,298.0,108.0,304.5" stroke="black" stroke-width="2" fill="none" />
<polyline points="114.5,300.5,123.0,300.0" stroke="black" stroke-width="2" fill="none" />
<polyline points="123.5,308.0,131.5,307.5" stroke="black" stroke-width="2" fill="none" />
<polyline points="136.0,304.0,139.0,312.0,133.5,320.0,127.5,328.0,124.5,336.0,127.0,339.0,129.0,344.0,127.5,352.0" stroke="black" stroke-width="2" fill="none" />
<polyline points="115.5,333.5,108.0,334.5,100.5,335.0,92.0,335.0,84.0,335.5,75.5,336.0,67.0,336.5,59.0,337.5,50.5,338.5,42.0,339.0,34.5,339.5,27.0,340.0,19.0,340.5,11.0,340.5,3.0,341.0" stroke="black" stroke-width="2" fill="none" />
<polyline points="2.5,339.0,10.0,331.5,18.0,324.0,26.0,316.5" stroke="black" stroke-width="2" fill="none" />
<polyline points="27.0,308.5,19.5,316.0,11.5,323.5,3.5,331.0" stroke="black" stroke-width="2" fill="none" />
<polyline points="2.0,329.0,10.0,329.0,18.5,328.5,27.0,328.0,34.5,327.5,42.5,326.5,51.0,326.0,59.5,325.5,68.0,325.0,76.0,324.0,84.0,323.5,92.0,323.0,100.0,323.5" stroke="black" stroke-width="2" fill="none" />
<polyline points="106.5,317.5,98.0,324.5,90.0,331.0,82.0,338.5" stroke="black" stroke-width="2" fill="none" />
<polyline points="75.5,336.5,83.5,328.5,92.0,321.5,100.5,313.5" stroke="black" stroke-width="2" fill="none" />
<polyline points="92.0,315.0,84.5,322.5,76.5,330.0,68.5,338.0" stroke="black" stroke-width="2" fill="none" />
<polyline points="59.0,339.0,67.0,331.5,75.5,324.5,84.0,317.5" stroke="black" stroke-width="2" fill="none" />
<polyline points="90.5,321.0,98.5,320.5" stroke="black" stroke-width="2" fill="none" />
<polyline points="108.0,331.5,116.0,324.0" stroke="black" stroke-width="2" fill="none" />
<polyline points="115.0,326.0,107.0,326.5,99.0,327.5,92.0,327.5,84.0,327.5,76.0,328.5,67.5,329.5,59.0,330.0,50.0,331.0,41.5,332.0,33.5,332.5,26.0,333.0,18.5,333.5,11.0,334.0,3.0,334.5" stroke="black" stroke-width="2" fill="none" />
<polyline points="2.5,336.5,10.5,336.5,19.5,336.5,27.5,336.0" stroke="black" stroke-width="2" fill="none" />
<polyline points="28.0,348.0,19.5,348.5,11.5,349.0,3.0,349.5" stroke="black" stroke-width="2" fill="none" />
<polyline points="2.5,353.5,10.0,346.5,18.0,339.0,26.0,331.5,34.0,323.5,41.5,316.0,49.5,309.0" stroke="black" stroke-width="2" fill="none" />
<polyline points="43.5,308.5,35.5,315.5,27.5,322.5,19.5,330.0,11.0,338.0,3.0,346.0" stroke="black" stroke-width="2" fill="none" />
<polyline points="13.5,341.5,21.5,341.0,29.5,340.0,37.5,339.5,45.5,339.5,54.0,339.5" stroke="black" stroke-width="2" fill="none" />
<polyline points="58.5,339.0,66.5,339.0,74.5,338.0" stroke="black" stroke-width="2" fill="none" />
<polyline points="76.0,352.5,85.0,345.0,92.5,338.0,100.5,331.0,108.5,323.0,116.5,315.5" stroke="black" stroke-width="2" fill="none" />
<polyline points="115.5,317.5,119.5,312.5,119.5,305.0,125.5,302.0,132.0,301.0,140.0,303.0" stroke="black" stroke-width="2" fill="none" />
<polyline points="139.5,301.5,147.5,301.0,155.5,300.5,164.0,300.0,172.0,300.0,180.0,299.5" stroke="black" stroke-width="2" fill="none" />
<polyline points="180.5,306.0,172.5,307.0,164.0,308.0,156.5,309.0,148.5,309.5,140.5,310.0" stroke="black" stroke-width="2" fill="none" />
<polyline points="146.0,305.5,153.5,298.5,161.5,291.0" stroke="black" stroke-width="2" fill="none" />
<polyline points="154.0,291.5,146.0,299.0" stroke="black" stroke-width="2" fill="none" />
<polyline points="148.5,298.0,156.0,297.5" stroke="black" stroke-width="2" fill="none" />
<polyline points="164.0,298.5,156.0,306.5" stroke="black" stroke-width="2" fill="none" />
<polyline points="157.0,305.5,149.5,306.5" stroke="black" stroke-width="2" fill="none" />
<polyline points="140.0,299.5,148.0,292.5,155.5,285.5" stroke="black" stroke-width="2" fill="none" />
<polyline points="147.5,283.5,139.5,291.0" stroke="black" stroke-width="2" fill="none" />
<polyline points="135.5,285.5,143.5,286.5,147.5,290.5" stroke="black" stroke-width="2" fill="none" />
<polyline points="148.0,290.0,156.0,290.0" stroke="black" stroke-width="2" fill="none" />
<polyline points="155.0,275.0,147.0,275.0,139.0,275.0" stroke="black" stroke-width="2" fill="none" />
<polyline points="133.5,281.5,141.5,281.0,149.0,279.0,156.0,278.0,157.0,286.0,157.0,294.0,161.0,298.5,169.0,294.5,177.0,287.5,185.5,283.0,193.5,281.0,201.5,281.0,198.5,288.0,193.5,296.0,188.5,294.0,196.5,284.0,191.5,290.0,185.5,298.0,182.0,306.0,180.0,314.5" stroke="black" stroke-width="2" fill="none" />
<polyline points="172.0,315.0,164.5,315.5,157.0,316.5,149.0,317.0,141.0,317.5" stroke="black" stroke-width="2" fill="none" />
<polyline points="131.0,325.5,138.5,325.5,146.5,325.0,154.5,324.5,162.5,324.0,171.0,323.0" stroke="black" stroke-width="2" fill="none" />
<polyline points="180.0,327.5,181.0,335.5,182.0,343.0,191.0,356.5,194.0,364.5,197.0,372.5,199.5,380.5,199.0,389.0,196.0,397.5,190.5,405.5,182.5,413.5,168.0,421.5,174.0,429.5,181.5,437.5,189.5,445.0,198.5,453.0,209.0,461.0" stroke="black" stroke-width="2" fill="none" />
<polyline points="236.5,451.0,236.5,452.0,241.0,443.5,242.0,435.5,243.5,427.5,242.0,420.0,239.0,412.0" stroke="black" stroke-width="2" fill="none" />
<polyline points="233.0,412.5,233.0,420.5,237.5,428.0,239.5,436.5,237.5,444.5,233.5,452.5,231.5,455.5" stroke="black" stroke-width="2" fill="none" />
<polyline points="246.0,369.0,254.5,361.0,262.5,358.5,270.5,358.0,278.5,356.0,287.0,355.0,295.0,352.5,303.0,347.5" stroke="black" stroke-width="2" fill="none" />
<polyline points="296.5,337.0,288.5,340.0,280.5,338.0,273.0,329.5" stroke="black" stroke-width="2" fill="none" />
<polyline points="276.0,325.5,268.0,326.0" stroke="black" stroke-width="2" fill="none" />
<polyline points="269.0,318.0,277.5,318.0" stroke="black" stroke-width="2" fill="none" />
<polyline points="274.0,319.0,282.0,311.5,290.0,310.5,298.0,314.5" stroke="black" stroke-width="2" fill="none" />
<polyline points="294.0,312.0,300.5,320.0,300.5,328.0,292.0,336.0" stroke="black" stroke-width="2" fill="none" />
<polyline points="304.0,317.5,296.0,308.0,288.0,306.0,280.0,307.5,272.0,315.5" stroke="black" stroke-width="2" fill="none" />
<polyline points="276.5,310.5,284.0,310.0,292.5,309.0" stroke="black" stroke-width="2" fill="none" />
<polyline points="294.0,309.0,302.0,317.5,303.5,325.5,300.5,333.0" stroke="black" stroke-width="2" fill="none" />
<polyline points="320.5,342.0,321.5,350.0" stroke="black" stroke-width="2" fill="none" />
<polyline points="333.0,301.0,325.0,285.5,317.5,277.5,309.5,273.0,301.5,269.5,293.0,266.5,285.0,264.0,277.0,260.0" stroke="black" stroke-width="2" fill="none" />
<polyline points="277.0,259.5,295.0,267.5,311.5,275.0,321.5,283.0,327.5,291.0,332.5,299.0,334.5,307.0,334.0,314.5,334.0,322.5,334.0,330.5,334.0,338.5,333.0,346.5,328.5,355.0,323.5,363.0,314.5,371.0,301.0,379.0,286.0,387.0,273.5,395.0" stroke="black" stroke-width="2" fill="none" />
<polyline points="279.0,335.5,274.5,327.5,275.0,319.5,284.0,311.0" stroke="black" stroke-width="2" fill="none" />
<polyline points="280.0,308.0,272.0,316.0,270.0,324.0,272.0,332.5,281.0,340.5" stroke="black" stroke-width="2" fill="none" />
<polyline points="258.5,294.0,266.5,293.5,274.5,292.5,282.5,291.5,290.0,290.0,298.5,289.0,306.0,288.5,314.0,288.0,322.0,287.5,329.5,287.0" stroke="black" stroke-width="2" fill="none" />
<polyline points="331.0,243.5,323.0,244.5,315.0,245.5,307.0,245.5" stroke="black" stroke-width="2" fill="none" />
<polyline points="306.0,242.5,314.0,234.5" stroke="black" stroke-width="2" fill="none" />
<polyline points="306.0,226.5,314.0,226.0,322.0,226.0,330.0,225.5,338.0,225.5" stroke="black" stroke-width="2" fill="none" />
<polyline points="339.5,221.5,348.0,231.5,356.0,235.5,365.0,234.0,373.0,235.0,381.0,238.5" stroke="black" stroke-width="2" fill="none" />
<polyline points="338.0,202.5,330.0,212.5" stroke="black" stroke-width="2" fill="none" />
<polyline points="331.5,200.0,322.0,218.5,316.0,230.5,320.0,222.5,322.0,214.5,328.5,206.5,332.5,199.0" stroke="black" stroke-width="2" fill="none" />
<polyline points="326.0,234.0,318.0,235.5,310.0,237.0,302.5,237.0" stroke="black" stroke-width="2" fill="none" />
<polyline points="277.0,258.5,269.0,266.0,260.5,274.0,253.0,281.5" stroke="black" stroke-width="2" fill="none" />
<polyline points="250.0,281.5,258.0,281.0,265.5,280.5,273.5,280.0,282.0,279.0,290.5,278.5,298.5,277.5,306.5,277.5,315.0,277.5" stroke="black" stroke-width="2" fill="none" />
<polyline points="261.0,268.0,252.5,276.0" stroke="black" stroke-width="2" fill="none" />
<polyline points="252.0,270.0,259.5,269.5,267.0,269.5,274.5,269.5,282.0,269.0,290.0,268.5,297.5,267.5,305.5,266.5" stroke="black" stroke-width="2" fill="none" />
<polyline points="297.5,270.0,290.0,270.0,282.0,270.0,274.0,270.5,266.0,271.0,257.5,271.0" stroke="black" stroke-width="2" fill="none" />
<polyline points="259.0,259.5,266.5,259.5,275.0,259.0,283.5,259.0,292.0,259.0,300.0,259.0,308.5,258.5" stroke="black" stroke-width="2" fill="none" />
<polyline points="236.0,236.5,228.5,237.0" stroke="black" stroke-width="2" fill="none" />
<polyline points="225.0,229.5,233.0,229.5" stroke="black" stroke-width="2" fill="none" />
<polyline points="236.5,220.0,228.5,220.5,220.5,221.0" stroke="black" stroke-width="2" fill="none" />
<polyline points="221.0,214.5,229.0,214.0,236.5,213.0" stroke="black" stroke-width="2" fill="none" />
<polyline points="229.5,205.5,221.0,213.0" stroke="black" stroke-width="2" fill="none" />
<polyline points="221.0,207.0,223.0,211.5,225.5,219.5,227.0,227.5,227.0,236.0" stroke="black" stroke-width="2" fill="none" />
<polyline points="220.5,206.0,228.5,205.5,237.0,205.0,245.0,204.5,253.0,204.5" stroke="black" stroke-width="2" fill="none" />
<polyline points="266.5,193.5,258.5,195.0,251.0,196.0,243.5,197.0,236.0,198.0,228.5,199.0" stroke="black" stroke-width="2" fill="none" />
<polyline points="223.5,199.5,226.0,207.5,228.0,216.0,229.0,224.0,230.0,231.5,230.0,239.5" stroke="black" stroke-width="2" fill="none" />
<polyline points="217.5,205.0,226.0,199.0,234.5,197.0,242.5,194.5,251.0,193.5,258.5,192.5,266.5,190.5,274.5,188.0,282.5,188.0,290.5,187.0,298.0,188.0,306.5,189.0,314.5,190.0,322.5,192.0,330.5,194.5,338.5,196.5,346.0,193.5,353.5,188.5,349.0,190.0,339.5,199.0,331.5,206.5,329.5,214.5,331.0,223.0,335.0,231.0,338.0,239.5" stroke="black" stroke-width="2" fill="none" />
<polyline points="252.5,290.0,244.0,290.5,236.0,290.5,228.5,291.5,221.0,292.0,213.0,293.0,204.5,294.0,196.5,294.5" stroke="black" stroke-width="2" fill="none" />
<polyline points="191.0,298.0,199.5,286.0,207.5,286.5,215.5,285.5,223.0,284.0,230.5,282.0,238.5,279.0,246.5,272.0,254.0,265.5,261.5,260.0,269.0,257.0,277.5,255.0,286.0,252.5,294.0,250.0,302.5,247.0" stroke="black" stroke-width="2" fill="none" />
<polyline points="377.0,244.0,368.5,241.5,360.5,243.5,352.5,244.0,344.5,242.0,336.5,241.5,328.5,243.5,320.0,245.5,312.0,246.0,303.5,242.0,295.5,242.5,287.5,243.0,279.5,245.0,271.5,245.5,263.5,245.5,256.0,245.5,247.5,244.5,239.5,244.5,231.5,244.5,222.5,241.0,220.5,236.5,219.5,229.0,217.5,221.5,217.5,213.5,217.5,206.0,220.5,198.0" stroke="black" stroke-width="2" fill="none" />
<polyline points="190.0,208.5,182.5,202.0" stroke="black" stroke-width="2" fill="none" />
<polyline points="178.5,200.0,186.5,197.5,194.5,195.5,202.5,192.5,211.0,191.5" stroke="black" stroke-width="2" fill="none" />
<polyline points="193.5,215.0,186.5,207.0,178.5,199.0" stroke="black" stroke-width="2" fill="none" />
<polyline points="172.0,220.5,164.5,221.0" stroke="black" stroke-width="2" fill="none" />
<polyline points="164.5,237.0,156.0,237.5,147.5,238.0" stroke="black" stroke-width="2" fill="none" />
<polyline points="147.0,228.0,155.5,228.0,164.0,227.5,172.0,227.0" stroke="black" stroke-width="2" fill="none" />
<polyline points="157.5,206.0,149.5,202.0" stroke="black" stroke-width="2" fill="none" />
<polyline points="150.0,210.5,148.0,218.0,144.5,230.0,152.5,227.0,161.0,226.0,166.0,229.0" stroke="black" stroke-width="2" fill="none" />
<polyline points="164.5,241.0,152.5,243.0,145.0,240.0,136.0,228.0,128.0,227.0,125.0,224.5,124.0,216.5" stroke="black" stroke-width="2" fill="none" />
<polyline points="125.5,218.5,128.5,226.5" stroke="black" stroke-width="2" fill="none" />
<polyline points="130.5,228.5,122.5,229.5,114.5,230.0" stroke="black" stroke-width="2" fill="none" />
<polyline points="108.5,223.5,116.5,223.0,124.5,222.0" stroke="black" stroke-width="2" fill="none" />
<polyline points="123.5,214.0,115.5,214.5,107.0,215.0" stroke="black" stroke-width="2" fill="none" />
<polyline points="112.5,214.0,112.5,222.0,116.0,221.5,113.5,226.5,118.5,231.0,124.5,226.5,127.5,209.5" stroke="black" stroke-width="2" fill="none" />
<polyline points="127.5,205.5,124.5,207.0,122.5,215.0,122.0,223.0,120.5,231.0,125.5,236.0,132.5,250.0,128.5,257.5,129.5,263.5,128.0,267.5,129.0,257.5,137.0,251.5,145.5,253.0,149.5,251.0,144.5,258.5,144.5,266.5" stroke="black" stroke-width="2" fill="none" />
<polyline points="130.5,286.0,139.0,285.0,147.5,284.5,156.0,283.5,164.5,282.5" stroke="black" stroke-width="2" fill="none" />
<polyline points="179.0,285.5,187.0,285.0,195.5,284.5,204.0,284.0" stroke="black" stroke-width="2" fill="none" />
<polyline points="186.0,290.5,178.5,291.5,171.0,292.0,163.0,292.5,155.0,292.5,147.5,293.0,140.5,293.5,132.5,294.5" stroke="black" stroke-width="2" fill="none" />
<polyline points="127.0,290.0,122.0,298.0,118.5,306.0,121.5,309.5,113.5,310.0,112.5,319.5,118.5,323.5,126.5,314.5,136.0,305.5,144.0,305.5,146.5,308.5,154.0,307.5,162.0,302.5" stroke="black" stroke-width="2" fill="none" />
<polyline points="144.5,310.0,135.5,316.0,127.5,325.0" stroke="black" stroke-width="2" fill="none" />
<polyline points="101.0,339.0,92.5,347.0,84.0,354.5,75.5,361.5" stroke="black" stroke-width="2" fill="none" />
<polyline points="77.0,362.0,81.0,370.5" stroke="black" stroke-width="2" fill="none" />
<polyline points="75.5,373.5,83.5,380.0,91.5,392.0" stroke="black" stroke-width="2" fill="none" />
<polyline points="90.5,382.0,98.5,388.0,106.0,394.0,114.5,399.0,123.0,404.5,134.0,411.5" stroke="black" stroke-width="2" fill="none" />
<polyline points="98.5,360.0,90.5,361.0,82.5,361.5" stroke="black" stroke-width="2" fill="none" />
<polyline points="84.0,363.0,91.5,356.0,100.0,348.5" stroke="black" stroke-width="2" fill="none" />
<polyline points="100.5,343.5,100.0,347.5,104.5,358.0,112.5,362.0,120.0,365.5,128.0,361.0,135.5,354.5,143.5,351.5" stroke="black" stroke-width="2" fill="none" />
<polyline points="105.5,366.0,97.5,354.0" stroke="black" stroke-width="2" fill="none" />
<polyline points="96.0,356.5,108.5,361.0,116.0,370.0,124.0,372.0,132.0,374.0,140.0,376.0,148.0,376.0,156.0,375.5,163.5,371.5" stroke="black" stroke-width="2" fill="none" />
<polyline points="141.5,410.5,128.5,402.5,118.0,395.0,104.0,387.5,95.0,377.0,98.0,364.5,94.5,356.0,96.0,348.0,97.0,340.0,105.5,334.0,97.5,338.0" stroke="black" stroke-width="2" fill="none" />
<polyline points="97.5,336.0,89.5,336.0" stroke="black" stroke-width="2" fill="none" />
<polyline points="91.0,352.0,82.5,352.5" stroke="black" stroke-width="2" fill="none" />
<polyline points="83.5,358.5,88.5,367.0,98.5,370.0" stroke="black" stroke-width="2" fill="none" />
<polyline points="101.0,369.0,93.5,370.0,85.5,361.0" stroke="black" stroke-width="2" fill="none" />
<polyline points="75.0,372.5,84.0,380.5,87.5,389.0" stroke="black" stroke-width="2" fill="none" />
<polyline points="76.0,386.0,68.0,386.0,60.5,386.5,53.0,387.0,45.0,387.5,36.5,388.0,28.0,389.0,19.5,390.0,12.0,390.5,4.0,391.0" stroke="black" stroke-width="2" fill="none" />
<polyline points="2.5,398.0,10.5,397.5,19.0,397.0,27.0,396.5,34.5,395.5,42.5,395.0,50.5,395.0,59.0,394.5,67.0,394.5,74.5,394.5" stroke="black" stroke-width="2" fill="none" />
<polyline points="76.0,381.0,76.0,388.5,75.5,396.5,74.5,404.0,73.5,411.5,71.5,419.5,70.5,427.5,67.0,435.0,62.0,443.0,54.5,451.0,61.5,443.0,69.5,428.0" stroke="black" stroke-width="2" fill="none" />
<polyline points="75.0,378.0,67.0,378.0,59.0,378.5,51.5,378.5,43.5,379.0,36.0,380.0,28.5,381.0,21.0,382.0,13.5,382.5,6.0,383.0" stroke="black" stroke-width="2" fill="none" />
<polyline points="4.5,366.5,12.5,366.0,20.0,366.0,27.5,365.5" stroke="black" stroke-width="2" fill="none" />
<polyline points="14.5,345.5,22.5,343.5,30.5,344.5,38.5,343.0,42.0,346.0,42.0,353.5,41.5,361.5,41.0,369.5,45.0,381.5,45.5,389.0,44.5,397.0,43.5,405.0,38.5,417.0,37.0,425.5,35.5,434.0" stroke="black" stroke-width="2" fill="none" />
<polyline points="13.5,338.5,21.5,337.5,29.5,336.5,38.0,335.5,46.0,336.0,54.0,336.5,62.0,337.0,70.0,337.0,78.0,337.0,86.0,338.5,84.0,343.5,78.0,351.5,76.0,360.0,83.0,366.0,87.0,374.5,91.0,382.5,100.0,391.0,112.5,399.0,124.5,407.0,127.5,414.5,129.5,419.5,137.0,419.5,145.0,418.0" stroke="black" stroke-width="2" fill="none" />
<polyline points="106.5,372.5,104.5,364.5,98.5,356.5,101.5,355.0" stroke="black" stroke-width="2" fill="none" />
<polyline points="114.5,317.0,107.0,317.5,99.5,318.5,92.0,319.5,84.5,320.0,76.5,320.5,68.5,320.5,60.0,321.0,51.5,321.5,43.5,322.0,35.5,323.0,26.5,323.5,18.0,324.0,9.5,324.5,1.0,325.0" stroke="black" stroke-width="2" fill="none" />
<polyline points="2.0,322.0,10.5,315.0,18.5,307.5" stroke="black" stroke-width="2" fill="none" />
<polyline points="17.5,301.0,26.0,300.5,34.0,299.5,42.5,301.5,51.0,303.5,59.0,305.5,67.0,307.5,75.5,307.5,83.5,308.5,91.5,309.5,99.5,310.5" stroke="black" stroke-width="2" fill="none" />
<polyline points="87.0,310.0,86.0,318.0" stroke="black" stroke-width="2" fill="none" />
<polyline points="59.0,292.0,50.5,292.0,42.5,292.0" stroke="black" stroke-width="2" fill="none" />
<polyline points="44.5,286.5,52.0,285.5,60.0,285.0" stroke="black" stroke-width="2" fill="none" />
<polyline points="43.5,275.0,52.0,267.5,60.0,260.5" stroke="black" stroke-width="2" fill="none" />
<polyline points="60.5,250.0,52.5,257.5,45.0,265.0" stroke="black" stroke-width="2" fill="none" />
<polyline points="43.0,263.0,50.5,262.5" stroke="black" stroke-width="2" fill="none" />
<polyline points="43.0,275.5,51.5,275.0,59.5,275.0,67.0,275.5" stroke="black" stroke-width="2" fill="none" />
<polyline points="75.0,267.0,70.0,275.0,64.0,283.0,53.5,291.0" stroke="black" stroke-width="2" fill="none" />
<polyline points="60.5,317.0,51.5,318.0,43.0,318.5,35.0,319.0,26.5,319.5,18.5,320.0,10.5,321.0,2.5,322.0" stroke="black" stroke-width="2" fill="none" />
<polyline points="2.5,317.0,10.5,316.0,19.0,315.5,27.0,314.5,35.5,314.0,43.5,313.5,51.5,313.0,59.5,312.0,67.5,312.0,75.0,311.5,83.0,311.5,91.0,311.0,99.0,311.0,107.5,311.0,115.5,311.0,123.5,311.0" stroke="black" stroke-width="2" fill="none" />
<polyline points="109.5,256.5,117.5,255.5,125.5,255.0,133.0,254.0" stroke="black" stroke-width="2" fill="none" />
<polyline points="125.5,246.0,120.5,254.5,123.5,246.0" stroke="black" stroke-width="2" fill="none" />
<polyline points="125.0,246.0,117.0,253.5,116.0,261.5" stroke="black" stroke-width="2" fill="none" />
<polyline points="124.0,266.0,124.5,258.0,127.5,249.5,129.5,243.0,121.5,246.0,113.5,250.0" stroke="black" stroke-width="2" fill="none" />
<polyline points="110.0,248.5,109.0,256.0,113.5,263.5" stroke="black" stroke-width="2" fill="none" />
<polyline points="108.0,238.5,116.0,238.0,124.5,237.5,132.5,237.0,141.0,236.0" stroke="black" stroke-width="2" fill="none" />
<polyline points="131.0,238.5,122.5,239.0,114.5,239.5,107.0,239.5,98.5,239.5,90.5,240.0,82.5,241.0,74.5,241.0,66.5,241.5,58.0,241.5,49.5,242.0,41.5,242.5,34.0,242.0,26.0,242.0,18.5,242.5,10.5,243.0,2.0,243.5" stroke="black" stroke-width="2" fill="none" />
<polyline points="4.0,243.5,12.5,236.5,21.0,229.0" stroke="black" stroke-width="2" fill="none" />
<polyline points="21.5,234.5,13.5,242.5,5.0,250.0" stroke="black" stroke-width="2" fill="none" />
<polyline points="3.5,248.0,11.5,248.0,19.0,247.5,27.0,247.5" stroke="black" stroke-width="2" fill="none" />
<polyline points="27.5,239.5,19.5,239.5,10.5,239.5,2.0,240.0" stroke="black" stroke-width="2" fill="none" />
<polyline points="2.5,237.0,11.0,236.5,18.5,235.5,26.5,235.5,35.0,235.0,43.5,234.5,51.5,235.0,60.0,235.0,68.5,234.5,77.0,234.5,86.0,234.5,93.5,233.5,101.0,233.0" stroke="black" stroke-width="2" fill="none" />
<polyline points="92.0,225.0,84.0,232.5,76.5,240.0" stroke="black" stroke-width="2" fill="none" />
<polyline points="76.5,244.0,85.0,262.0,83.0,270.0" stroke="black" stroke-width="2" fill="none" />
<polyline points="75.0,265.5,67.5,266.0,60.0,266.0,52.0,266.0,44.5,266.0,36.5,267.0,29.0,267.5,20.5,268.0,12.0,269.0,4.0,269.5" stroke="black" stroke-width="2" fill="none" />
<polyline points="4.0,270.5,11.5,263.0,19.5,256.0,27.0,248.5,34.5,240.5,42.0,232.5,50.5,225.5" stroke="black" stroke-width="2" fill="none" />
<polyline points="51.0,236.0,43.0,243.0,34.5,250.5,26.5,258.0,19.0,265.5,11.5,273.5,3.5,281.0" stroke="black" stroke-width="2" fill="none" />
<polyline points="2.5,279.5,10.5,279.5" stroke="black" stroke-width="2" fill="none" />
<polyline points="4.0,276.5,12.0,276.5,19.0,276.5,27.0,276.5,35.0,276.0" stroke="black" stroke-width="2" fill="none" />
<polyline points="35.5,270.5,44.0,269.5,52.0,267.5" stroke="black" stroke-width="2" fill="none" />
<polyline points="35.0,266.5,43.0,258.5,51.0,251.0,58.5,243.5" stroke="black" stroke-width="2" fill="none" />
<polyline points="58.5,237.0,50.5,244.5,42.5,252.0,34.0,259.0,26.5,266.5,18.5,274.0,10.0,281.0,2.0,288.0" stroke="black" stroke-width="2" fill="none" />
<polyline points="3.5,286.5,11.5,285.5,19.0,284.5,26.5,283.5,34.5,282.5" stroke="black" stroke-width="2" fill="none" />
<polyline points="20.5,282.5,12.5,289.5,4.5,297.0" stroke="black" stroke-width="2" fill="none" />
<polyline points="4.0,294.0,11.5,293.5,19.5,293.0,27.5,292.0" stroke="black" stroke-width="2" fill="none" />
<polyline points="18.5,290.5,10.5,298.5,3.0,306.0" stroke="black" stroke-width="2" fill="none" />
<polyline points="4.5,306.5,12.5,309.0,20.5,311.0,28.5,312.5,36.5,313.5,45.0,313.0,52.5,314.0,60.0,315.0,67.5,316.0,76.0,318.5" stroke="black" stroke-width="2" fill="none" />
<polyline points="116.5,303.0,108.0,303.5,99.5,304.0,91.5,304.0,83.5,304.5,75.5,305.0,68.0,306.0,60.5,306.5,53.0,307.0,45.0,308.0,36.5,308.0,27.5,308.0,19.0,308.5,11.0,309.0,3.5,309.0" stroke="black" stroke-width="2" fill="none" />
<polyline points="1.5,313.5,9.5,306.5,17.5,299.5" stroke="black" stroke-width="2" fill="none" />
<polyline points="14.0,313.5,6.0,314.0" stroke="black" stroke-width="2" fill="none" />
<polyline points="2.5,302.5,10.5,302.0,18.5,301.5,27.0,301.0,35.5,300.5,44.0,300.5,52.5,300.0,60.5,299.5,68.5,299.0,76.5,298.5,84.5,297.5" stroke="black" stroke-width="2" fill="none" />
<polyline points="99.5,265.5,96.5,257.5,95.0,249.5,94.0,241.5,93.0,233.0,92.5,224.5,94.5,217.0,95.5,208.5,97.5,200.5,100.5,192.0,98.5,185.0,90.5,190.5" stroke="black" stroke-width="2" fill="none" />
<polyline points="98.5,187.0,90.5,194.5,83.0,202.5" stroke="black" stroke-width="2" fill="none" />
<polyline points="85.0,202.0,93.0,201.5" stroke="black" stroke-width="2" fill="none" />
<polyline points="91.0,202.0,82.5,210.0,74.0,217.5" stroke="black" stroke-width="2" fill="none" />
<polyline points="74.0,203.0,82.0,195.5,89.5,188.5,97.0,181.5" stroke="black" stroke-width="2" fill="none" />
<polyline points="98.5,183.5,90.0,184.0,82.0,184.0,74.0,185.0,66.5,185.5,58.5,186.0,51.0,187.0,43.5,187.5,35.5,188.0,27.5,188.5,19.5,188.5,11.5,188.5,3.5,189.0" stroke="black" stroke-width="2" fill="none" />
<polyline points="4.0,190.5,12.0,183.5,19.5,176.5,27.5,168.5,35.5,160.5,44.0,153.0,51.5,146.0,59.0,138.5,67.0,130.5,75.0,123.0,83.0,115.5,91.0,108.0,99.0,100.0" stroke="black" stroke-width="2" fill="none" />
<polyline points="99.0,92.5,91.0,100.0,83.5,107.5,76.0,115.0,68.0,122.0,60.5,129.0,52.0,136.5,44.0,144.0,36.0,151.0,27.5,159.0,19.5,166.5,11.5,174.0,4.0,181.0" stroke="black" stroke-width="2" fill="none" />
<polyline points="5.0,181.5,12.5,181.0,20.0,180.0,28.0,180.0,36.0,179.5,43.5,178.5,51.0,178.5,58.5,177.5,66.5,177.5,74.5,177.5,82.5,177.0,90.5,176.0,98.5,175.0,106.5,174.5" stroke="black" stroke-width="2" fill="none" />
<polyline points="104.0,181.5,112.0,180.5,120.0,182.0" stroke="black" stroke-width="2" fill="none" />
<polyline points="98.5,172.0,91.0,179.5,83.0,187.5,75.0,194.5,67.0,201.0" stroke="black" stroke-width="2" fill="none" />
<polyline points="69.5,194.0,77.0,194.0,84.5,193.5,92.5,193.0" stroke="black" stroke-width="2" fill="none" />
<polyline points="99.5,194.5,107.5,187.5,115.0,185.5,123.0,185.5,131.0,185.5,139.0,186.5,147.0,188.0,156.0,193.5,163.5,201.5,167.5,209.5,170.0,217.5,169.5,225.0,166.5,227.0,170.5,231.0,165.0,239.0,163.0,247.5,167.5,249.5,166.0,258.0,159.0,266.5,146.5,277.0,149.0,272.5,153.5,272.0,161.0,266.0" stroke="black" stroke-width="2" fill="none" />
<polyline points="150.5,267.0,153.5,259.0,158.5,250.5,151.5,242.0,148.0,234.0,150.5,226.0,159.5,218.5,158.5,210.5,151.5,202.5,138.0,204.5,130.0,204.5,121.5,206.0,113.5,206.0,105.5,207.5,97.5,207.5" stroke="black" stroke-width="2" fill="none" />
<polyline points="100.5,211.0,92.5,212.0,85.0,212.5,76.5,213.5,68.5,213.0,60.5,213.0,53.0,213.5,45.0,214.0,36.5,214.5" stroke="black" stroke-width="2" fill="none" />
<polyline points="36.0,207.5,38.0,216.0,38.5,224.0,43.5,237.0,43.5,245.0,45.0,252.5,46.0,260.5,42.5,272.0,42.5,279.5,42.0,287.5,41.5,295.5,52.5,291.5,60.5,286.5,68.0,277.5,76.0,264.0,84.0,271.0" stroke="black" stroke-width="2" fill="none" />
<polyline points="86.5,258.5,94.5,263.0,107.0,272.0" stroke="black" stroke-width="2" fill="none" />
<polyline points="76.0,233.0,84.0,225.5,92.5,218.0" stroke="black" stroke-width="2" fill="none" />
<polyline points="96.5,213.0,104.5,215.0,108.0,213.5,110.0,221.5,97.0,229.5,101.0,227.0" stroke="black" stroke-width="2" fill="none" />
<polyline points="90.5,211.0,83.0,218.5,75.0,226.0" stroke="black" stroke-width="2" fill="none" />
<polyline points="68.0,193.0,76.0,186.0,84.5,178.5,93.0,171.0,101.0,163.5" stroke="black" stroke-width="2" fill="none" />
<polyline points="102.0,155.0,94.0,162.5,85.5,169.5,77.0,177.0,68.5,184.5,60.0,192.5" stroke="black" stroke-width="2" fill="none" />
<polyline points="57.5,191.5,73.5,199.5,81.5,207.5,80.0,214.5,75.5,222.5,76.5,231.0,78.5,238.5,80.0,246.5,77.5,248.0,81.5,256.0,85.5,258.0,93.5,267.0,101.0,272.0,109.0,274.0" stroke="black" stroke-width="2" fill="none" />
<polyline points="51.0,241.5,43.0,242.5" stroke="black" stroke-width="2" fill="none" />
<polyline points="36.5,236.0,29.0,243.5,20.5,251.0,12.0,258.0,3.5,265.5" stroke="black" stroke-width="2" fill="none" />
<polyline points="5.0,264.0,13.0,263.0,21.5,262.0,29.5,261.5" stroke="black" stroke-width="2" fill="none" />
<polyline points="27.0,257.5,19.0,258.5,11.0,259.5,3.5,260.0" stroke="black" stroke-width="2" fill="none" />
<polyline points="3.5,259.0,12.0,251.5,20.0,244.0,28.0,236.5" stroke="black" stroke-width="2" fill="none" />
<polyline points="28.5,233.5,36.5,234.0" stroke="black" stroke-width="2" fill="none" />
<polyline points="40.0,256.0,32.0,256.0" stroke="black" stroke-width="2" fill="none" />
<polyline points="39.0,268.0,31.0,270.5,23.5,271.5,15.5,273.5,21.0,271.5" stroke="black" stroke-width="2" fill="none" />
<polyline points="20.5,274.0,12.5,274.5,4.5,275.0" stroke="black" stroke-width="2" fill="none" />
<polyline points="3.0,262.0,11.5,261.5,20.0,260.5,28.5,260.5,36.5,260.5,44.5,259.5,52.0,259.0,59.5,258.5,67.0,258.0,74.5,258.0" stroke="black" stroke-width="2" fill="none" />
<polyline points="99.0,247.5,90.5,248.0,83.0,248.0,75.0,249.0,67.0,249.5,58.5,249.5,50.0,250.0,42.0,251.0,34.0,251.0,26.5,252.0,18.5,252.0,11.0,252.0,3.5,252.5" stroke="black" stroke-width="2" fill="none" />
<polyline points="3.5,233.5,11.5,233.5" stroke="black" stroke-width="2" fill="none" />
<polyline points="13.0,234.0,21.0,233.0,29.0,232.0,37.0,232.0,45.5,231.5,52.0,232.5,53.0,240.5,53.5,248.5,53.5,256.5,53.0,264.0" stroke="black" stroke-width="2" fill="none" />
<polyline points="12.0,290.5,4.0,291.5" stroke="black" stroke-width="2" fill="none" />
<polyline points="3.0,293.0,3.0,301.0,7.0,302.0,15.0,304.5,22.5,306.5,30.5,308.5,38.5,309.0,46.0,310.5,54.0,312.0,62.0,312.5,70.5,314.0,78.5,314.5,85.5,319.5" stroke="black" stroke-width="2" fill="none" />
<polyline points="101.0,224.5,93.0,225.0,85.5,225.5,77.5,226.0,69.5,226.0,61.5,226.5,53.5,227.0,45.5,227.5,36.5,228.0,28.0,229.0,19.5,229.5,11.0,230.0,2.5,231.0" stroke="black" stroke-width="2" fill="none" />
<polyline points="3.0,233.5,11.5,225.5,19.5,218.0" stroke="black" stroke-width="2" fill="none" />
<polyline points="16.5,207.5,12.0,216.0,18.5,208.0,26.5,195.5,34.0,192.5,42.0,190.5,50.5,189.5,59.0,191.5,67.0,194.0,75.0,198.0,83.0,204.0" stroke="black" stroke-width="2" fill="none" />
<polyline points="51.0,191.5,59.5,185.0,68.0,177.5,77.0,170.0,85.5,162.0,93.5,154.0,101.5,147.0" stroke="black" stroke-width="2" fill="none" />
<polyline points="100.0,139.5,92.0,147.0,84.0,154.0,76.5,161.0,68.5,169.0,60.0,176.5,52.0,184.0,44.0,192.0" stroke="black" stroke-width="2" fill="none" />
<polyline points="34.5,191.5,26.5,192.0,19.0,193.0,11.0,193.5,3.0,193.5" stroke="black" stroke-width="2" fill="none" />
<polyline points="3.5,196.0,11.5,195.5,19.5,195.0,27.5,194.5,35.0,194.5,42.5,195.0,51.0,194.0,59.0,193.5,67.0,193.0,75.0,192.0,82.5,191.5,90.5,191.5,99.5,191.5" stroke="black" stroke-width="2" fill="none" />
<polyline points="101.0,215.0,92.5,216.0,84.5,216.5,76.0,217.0,68.0,218.0,60.5,219.0,53.0,219.5,45.0,220.5,37.0,220.5,28.5,220.5,20.0,221.0,11.5,221.5,3.5,222.5" stroke="black" stroke-width="2" fill="none" />
<polyline points="4.5,223.0,13.0,216.0,21.5,208.5,29.0,201.5,37.0,193.5,44.5,185.5,51.5,177.0,59.0,169.0,67.0,161.5,75.5,154.0,84.0,146.0,91.5,138.0,100.0,131.0" stroke="black" stroke-width="2" fill="none" />
<polyline points="99.5,122.5,92.0,130.0,84.0,138.0,76.0,145.5,68.5,153.0,60.5,160.5,52.5,168.5,44.0,175.5,36.0,183.0,28.0,190.0,20.0,197.5,12.0,205.5,4.0,213.0" stroke="black" stroke-width="2" fill="none" />
<polyline points="5.5,211.5,14.0,211.0,22.0,210.5,29.5,210.5" stroke="black" stroke-width="2" fill="none" />
<polyline points="20.5,207.0,12.5,208.0,5.0,208.5" stroke="black" stroke-width="2" fill="none" />
<polyline points="5.0,205.5,12.5,205.0,20.0,204.5,27.5,204.0,35.5,203.0,43.0,203.0,51.0,202.5,58.5,202.0,66.5,201.5,75.0,201.0,83.0,200.5,91.5,200.0,99.5,199.5" stroke="black" stroke-width="2" fill="none" />
<polyline points="98.0,179.0,89.5,179.5,81.0,180.0,73.5,180.5,66.0,181.0,58.5,181.0,51.0,181.0,43.5,181.5,35.5,182.0,27.5,183.0,20.0,183.5,12.5,184.0,4.5,184.5" stroke="black" stroke-width="2" fill="none" />
<polyline points="4.0,179.0,12.0,178.5,20.0,177.5,28.0,177.0,35.0,175.5,43.0,174.5,51.5,174.0,59.5,173.0,67.0,172.5,74.5,172.0,82.5,172.0,90.5,171.0,99.0,170.5" stroke="black" stroke-width="2" fill="none" />
<polyline points="109.5,167.0,102.0,168.0,94.0,168.5,86.0,169.0,78.0,169.5,70.0,170.0,61.5,170.5,53.0,171.0,44.0,172.0,36.0,172.0,28.0,172.0,20.0,172.5,11.5,173.5,3.5,174.0" stroke="black" stroke-width="2" fill="none" />
<polyline points="5.5,172.5,13.5,165.0,21.5,157.5,29.5,149.5,37.5,142.5,45.0,135.5,52.5,128.5,60.5,121.5,68.0,114.5,75.5,107.0,83.0,99.5,90.5,91.5,98.5,84.0" stroke="black" stroke-width="2" fill="none" />
<polyline points="99.5,77.0,92.0,84.5,84.0,92.0,76.5,99.5,69.0,106.5,61.0,113.5,53.0,121.5,44.0,129.0,35.5,136.0,27.5,143.0,19.5,150.0,11.5,157.5,3.5,165.0" stroke="black" stroke-width="2" fill="none" />
<polyline points="3.0,164.0,11.0,163.5,19.5,163.0,27.0,162.5,35.0,162.5,42.5,162.0,50.5,162.0,58.0,162.5,65.5,162.5,74.0,162.0,82.5,161.5,90.5,161.0,98.5,160.5,107.0,160.0" stroke="black" stroke-width="2" fill="none" />
<polyline points="99.5,114.5,91.0,122.5,83.0,129.5,75.0,136.5,67.5,143.5,59.5,151.0,51.0,159.0,43.0,166.5,34.5,174.5,26.0,182.0,17.5,190.0,9.5,197.5,2.0,204.5" stroke="black" stroke-width="2" fill="none" />
<polyline points="4.5,201.5,12.5,201.5,20.0,201.5,27.5,200.5" stroke="black" stroke-width="2" fill="none" />
<polyline points="31.5,193.0,24.0,201.0,28.0,206.5,36.0,206.5" stroke="black" stroke-width="2" fill="none" />
<polyline points="2.0,198.0,10.0,190.0,18.0,182.5,26.0,175.0,34.0,168.0,42.0,160.5,50.0,153.5,58.0,146.5,66.0,138.5,74.0,130.5,82.0,122.5,91.0,114.5,99.0,107.5" stroke="black" stroke-width="2" fill="none" />
<polyline points="99.0,68.5,91.0,76.5,83.0,84.0,75.5,91.5,67.5,98.5,60.0,106.0,51.5,114.0,43.0,121.0,34.5,129.0,26.5,137.0,19.0,144.5,11.0,152.5,3.0,159.5" stroke="black" stroke-width="2" fill="none" />
<polyline points="3.0,159.5,11.0,159.0,19.0,159.0,27.0,159.0,34.5,159.5,42.5,159.5,50.5,159.0,59.0,159.0,67.0,158.5,75.5,157.5,84.0,157.0,91.5,156.5,99.5,156.0" stroke="black" stroke-width="2" fill="none" />
<polyline points="99.0,163.5,91.0,164.0,83.5,164.0,75.0,164.5,67.0,165.0,59.0,165.5,51.5,166.5,43.0,167.0,35.5,167.5,27.0,167.5,19.0,168.0,11.0,168.5,3.0,169.5" stroke="black" stroke-width="2" fill="none" />
<polyline points="3.0,156.5,10.5,156.0,18.5,155.5,26.5,155.5,34.5,155.5,42.5,156.0,50.5,156.0,59.5,155.5,67.5,155.5,76.0,155.0,84.0,154.5,92.0,153.5,100.0,153.0,108.0,152.0" stroke="black" stroke-width="2" fill="none" />
<polyline points="99.0,147.5,91.5,148.5,83.5,149.5,75.5,149.5,67.5,150.0,59.0,150.5,50.5,151.0,42.5,151.5,35.0,151.5,27.0,152.0,19.5,152.0,12.0,152.0,4.0,152.5" stroke="black" stroke-width="2" fill="none" />
<polyline points="4.0,151.0,11.5,143.5,19.5,136.0,28.0,129.0,35.5,121.5,43.0,113.5,51.0,105.5,59.0,98.0,67.5,90.0,75.5,82.0,83.5,74.0,92.0,66.0,99.5,59.0" stroke="black" stroke-width="2" fill="none" />
<polyline points="98.5,50.5,91.0,58.5,83.5,66.5,75.5,74.5,67.0,83.0,59.0,90.5,51.5,98.0,43.5,105.5,35.5,113.0,27.5,120.5,19.5,128.0,11.0,135.5,3.0,143.0" stroke="black" stroke-width="2" fill="none" />
<polyline points="1.0,142.5,10.0,142.5,18.0,142.5,27.0,142.0,35.5,141.5,44.0,140.5,52.0,140.0,60.0,139.5,68.0,139.0,76.5,138.0,84.5,138.0,92.5,137.5,100.5,137.0,108.5,136.0" stroke="black" stroke-width="2" fill="none" />
<polyline points="107.5,142.5,99.0,142.5,90.5,142.5,82.5,142.5,74.5,143.0,67.0,143.5,59.5,144.0,51.5,144.5,44.0,145.0,36.5,146.0,28.5,147.0,20.5,147.5,13.0,148.0,5.0,148.5" stroke="black" stroke-width="2" fill="none" />
<polyline points="4.5,145.5,12.0,145.0,19.5,144.5,27.5,144.0,35.5,143.5,43.5,143.0,51.5,142.5,59.5,141.5,67.5,141.0,76.0,140.5,84.0,139.5,92.0,139.5,99.0,139.5" stroke="black" stroke-width="2" fill="none" />
<polyline points="100.5,131.0,92.0,132.0,84.0,132.5,76.5,133.5,68.5,134.5,61.0,135.5,53.0,136.0,44.5,136.5,36.0,137.0,27.5,138.0,19.5,138.5,11.0,138.5,3.0,139.0" stroke="black" stroke-width="2" fill="none" />
<polyline points="2.0,134.5,9.5,134.5,18.0,133.5,26.5,132.5,35.0,131.5,44.0,130.0,52.5,129.0,61.0,128.0,69.5,127.5,77.5,127.0,85.0,127.0,93.0,126.0,101.5,125.0,109.5,124.5" stroke="black" stroke-width="2" fill="none" />
<polyline points="98.5,44.0,90.5,51.0,83.0,58.5,75.0,66.0,67.0,73.5,59.0,81.5,51.0,89.0,43.5,97.5,35.5,105.0,28.0,111.5,20.0,119.0,12.0,126.5,4.0,134.0" stroke="black" stroke-width="2" fill="none" />
<polyline points="4.5,130.5,12.0,130.0,20.0,129.5,27.5,129.0,35.5,128.5,43.5,128.0,51.5,128.0,59.5,127.5,67.0,126.5,75.0,125.5,83.0,125.0,91.5,124.5,100.0,123.5" stroke="black" stroke-width="2" fill="none" />
<polyline points="97.0,35.0,89.0,42.5,82.0,50.5,74.5,58.0,67.5,66.0,59.5,73.5,52.0,81.0,44.0,88.5,36.0,96.0,28.5,103.5,20.5,110.5,12.5,118.0,4.5,126.0" stroke="black" stroke-width="2" fill="none" />
<polyline points="3.0,125.5,11.0,124.5,19.5,124.5,28.0,124.0,35.5,124.0,43.5,124.0,51.0,124.0,59.0,124.0,67.0,124.0,75.0,124.0,83.5,123.0,91.0,122.5,99.0,121.5,107.0,120.5" stroke="black" stroke-width="2" fill="none" />
<polyline points="98.5,115.0,91.0,115.0,83.5,115.5,75.0,116.0,67.0,117.0,59.5,117.5,52.0,118.0,44.0,118.5,36.5,119.0,28.0,120.0,20.0,120.5,11.5,121.5,3.0,122.0" stroke="black" stroke-width="2" fill="none" />
<polyline points="4.0,119.0,12.5,118.5,20.5,118.0,28.5,117.0,36.5,115.5,44.0,115.0,52.0,114.0,59.5,113.0,67.5,112.0,75.5,111.5,83.5,111.0,91.5,111.0,99.0,110.5,107.0,110.5" stroke="black" stroke-width="2" fill="none" />
<polyline points="98.5,26.5,90.5,34.5,82.5,42.0,75.0,49.5,67.5,57.0,60.0,65.0,52.0,72.0,44.5,79.5,36.5,87.0,28.0,94.5,19.5,102.5,11.5,110.0,3.5,118.0" stroke="black" stroke-width="2" fill="none" />
<polyline points="5.0,114.0,12.5,113.5,20.5,113.0,28.0,112.5,36.0,112.0,43.5,111.0,51.5,110.0,59.5,109.5,67.0,108.5,74.0,107.5,82.0,106.5,90.5,106.0,98.5,105.5" stroke="black" stroke-width="2" fill="none" />
<polyline points="91.5,27.5,83.0,35.0,74.5,42.5,66.5,49.5,58.5,56.5,50.5,64.0,42.5,71.5,34.5,79.5,27.0,86.5,20.0,93.5,12.5,100.5,4.0,108.5" stroke="black" stroke-width="2" fill="none" />
<polyline points="2.5,109.0,10.5,108.5,19.0,107.5,27.0,106.5,35.5,105.5,43.5,105.0,51.5,104.5,59.0,103.5,67.0,103.0,74.5,103.0,82.0,103.0,90.5,102.5,99.5,102.5,107.5,102.5" stroke="black" stroke-width="2" fill="none" />
<polyline points="90.5,20.0,82.5,27.5,75.0,34.5,67.0,41.5,59.5,48.5,51.0,56.0,43.0,63.5,35.0,71.0,26.5,78.5,18.5,86.5,10.5,94.0,2.5,101.5" stroke="black" stroke-width="2" fill="none" />
<polyline points="1.5,103.5,10.0,102.5,18.0,101.5,26.5,101.0,34.5,100.5,42.5,100.0,50.5,99.5,59.0,98.5,67.0,98.0,75.0,97.0,83.5,96.5,91.5,96.5,99.0,96.5,107.5,96.5" stroke="black" stroke-width="2" fill="none" />
<polyline points="84.0,21.5,75.5,29.0,67.5,37.0,59.0,44.5,51.5,51.5,43.5,58.5,35.5,65.5,27.5,73.0,19.5,80.0,11.0,87.5,2.5,95.0" stroke="black" stroke-width="2" fill="none" />
<polyline points="3.0,93.5,11.0,93.5,19.0,93.5,27.0,93.5,35.0,93.0,43.0,92.5,50.5,92.0,58.5,91.5,66.5,91.0,74.5,90.5,82.0,90.5,90.5,90.0,99.0,89.5" stroke="black" stroke-width="2" fill="none" />
<polyline points="83.5,12.5,75.5,20.0,67.0,27.5,59.0,35.0,51.0,42.5,43.5,49.5,36.0,57.0,28.5,64.5,21.0,72.0,13.5,79.5,5.0,86.5" stroke="black" stroke-width="2" fill="none" />
<polyline points="3.0,87.0,11.0,86.0,19.5,85.0,28.0,84.5,36.5,84.0,45.0,83.0,53.0,82.0,61.0,81.0,69.5,80.0,77.5,79.0,85.5,78.5,94.0,78.0,102.0,77.5" stroke="black" stroke-width="2" fill="none" />
<polyline points="83.0,5.0,75.5,12.5,67.5,19.5,60.0,26.5,52.0,33.5,44.0,40.5,36.5,48.0,29.0,55.5,21.0,63.0,13.5,70.5,6.0,78.0" stroke="black" stroke-width="2" fill="none" />
<polyline points="3.0,74.0,11.5,73.5,19.5,72.5,27.5,72.0,35.5,71.5,44.0,71.0,52.0,70.5,60.5,70.5,68.5,70.0,76.5,69.5,84.5,68.5,92.5,68.5" stroke="black" stroke-width="2" fill="none" />
<polyline points="98.5,98.5,91.0,99.5,82.5,100.0,75.0,100.5,66.5,100.5,58.5,101.0,50.5,102.0,43.0,103.0,35.0,104.0,27.0,104.0,19.0,104.5,11.0,104.5,3.0,105.0" stroke="black" stroke-width="2" fill="none" />
<polyline points="2.5,99.0,11.0,99.0,19.0,98.0,27.0,97.5,34.5,96.5,43.0,95.5,51.0,95.0,59.0,94.5,67.0,94.0,75.0,94.5,82.5,94.0,91.0,93.0,99.5,92.5" stroke="black" stroke-width="2" fill="none" />
<polyline points="100.0,84.0,91.5,84.5,83.5,85.5,75.5,85.5,67.5,86.0,59.5,86.5,52.0,87.0,44.0,88.0,36.0,88.5,27.5,89.5,19.5,90.5,11.5,91.5,3.5,92.0" stroke="black" stroke-width="2" fill="none" />
<polyline points="2.0,83.5,10.0,82.5,19.0,82.0,27.5,81.0,36.5,79.5,44.5,79.0,53.0,78.0,60.5,77.5,68.5,76.5,77.0,76.0,85.0,75.5,92.5,75.0" stroke="black" stroke-width="2" fill="none" />
<polyline points="100.0,71.5,92.5,72.0,85.0,72.5,77.0,73.5,68.0,74.0,59.5,74.5,51.0,75.0,42.0,75.5,33.5,76.5,25.0,77.5,17.0,78.0,9.0,79.0,1.0,80.0" stroke="black" stroke-width="2" fill="none" />
<polyline points="4.0,70.5,12.0,70.0,19.5,69.5,27.0,68.5,34.5,67.0,42.5,66.0,50.5,66.0,58.5,65.5,66.5,64.5,75.0,64.0,83.5,63.0,91.5,62.5,99.5,62.0" stroke="black" stroke-width="2" fill="none" />
<polyline points="91.0,60.5,83.0,60.5,75.5,61.0,67.5,61.5,60.0,62.0,52.5,63.0,45.0,63.5,37.0,64.5,28.5,65.0,20.0,66.0,12.0,67.0,4.0,67.5" stroke="black" stroke-width="2" fill="none" />
<polyline points="4.0,70.0,12.0,61.5,20.0,53.5,27.5,46.0,35.0,39.0,42.5,32.0,50.5,25.0,58.0,18.0,65.5,10.5,73.0,3.0" stroke="black" stroke-width="2" fill="none" />
<polyline points="68.0,2.0,60.5,9.5,52.0,16.5,44.0,24.0,35.0,31.0,27.0,38.5,19.0,46.0,11.0,53.5,3.0,61.5" stroke="black" stroke-width="2" fill="none" />
<polyline points="5.0,63.5,13.0,62.5,20.5,62.0,28.0,61.0,35.5,61.0,43.5,60.5,51.0,59.0,59.5,58.0,67.5,57.5,75.5,56.5,83.5,56.0,91.5,55.5,99.5,55.5" stroke="black" stroke-width="2" fill="none" />
<polyline points="92.5,51.0,84.5,51.5,76.5,52.0,68.5,53.0,60.0,54.0,51.5,55.0,43.0,56.0,35.0,56.5,26.5,57.5,19.0,58.0,11.5,58.0,3.5,58.0" stroke="black" stroke-width="2" fill="none" />
<polyline points="2.0,57.0,10.5,49.0,18.5,41.5,26.5,34.5,34.5,27.0,42.0,19.5,49.5,11.5,57.5,4.0" stroke="black" stroke-width="2" fill="none" />
<polyline points="51.5,3.0,43.0,10.5,34.5,17.5,26.5,24.5,18.5,31.5,11.0,38.5,3.5,46.5" stroke="black" stroke-width="2" fill="none" />
<polyline points="4.5,46.5,12.0,46.0,20.0,46.0,27.5,45.5,34.5,45.5,42.0,45.0,50.5,44.0,58.5,43.0,67.0,42.0,75.5,41.5,83.5,41.0,91.5,40.5,100.0,39.5" stroke="black" stroke-width="2" fill="none" />
<polyline points="100.0,47.0,92.5,48.0,85.0,48.5,77.0,48.5,69.0,49.5,60.5,50.5,52.5,51.0,43.5,51.5,35.5,52.0,28.0,53.0,20.0,53.5,11.5,54.0,4.0,54.5" stroke="black" stroke-width="2" fill="none" />
<polyline points="3.5,51.5,12.0,51.0,20.0,50.5,28.0,49.5,36.5,48.5,44.5,48.5,52.5,47.5,60.5,47.0,68.0,46.5,76.0,46.0,84.0,46.0,92.0,45.5,100.0,44.5" stroke="black" stroke-width="2" fill="none" />
<polyline points="99.0,35.0,91.0,35.5,83.0,36.5,75.5,37.0,67.0,37.0,59.0,37.5,51.0,37.5,43.0,38.0,35.5,39.0,27.0,39.5,19.0,40.0,11.5,40.0,4.0,41.0" stroke="black" stroke-width="2" fill="none" />
<polyline points="3.0,40.0,11.5,32.5,20.0,25.5,28.0,18.5,36.0,11.5,43.5,4.0" stroke="black" stroke-width="2" fill="none" />
<polyline points="35.0,3.5,27.0,11.5,19.0,19.0,11.0,26.5,3.0,33.5" stroke="black" stroke-width="2" fill="none" />
<polyline points="3.0,33.5,11.0,33.0,19.0,32.5,26.5,32.0,34.5,31.0,42.5,30.0,51.0,29.5,59.0,29.0,67.5,28.0,75.0,27.0,83.0,26.5,91.0,26.0,99.0,26.0" stroke="black" stroke-width="2" fill="none" />
<polyline points="107.0,29.5,99.5,30.0,91.0,30.5,83.0,31.0,75.0,31.5,67.0,31.5,59.0,32.0,50.0,33.0,42.0,33.5,34.0,34.5,26.0,35.0,18.0,36.0,10.5,36.5,2.5,37.0" stroke="black" stroke-width="2" fill="none" />
<polyline points="2.5,29.0,10.5,28.5,18.5,28.0,26.5,27.0,34.5,25.5,42.5,25.0,50.5,24.5,58.5,25.0,66.5,24.5,74.5,24.0,83.0,23.5,90.5,23.0,98.5,22.5" stroke="black" stroke-width="2" fill="none" />
<polyline points="92.0,19.0,84.0,19.5,76.0,20.0,68.0,21.0,59.5,22.0,51.5,23.0,43.5,24.0,35.0,24.5,27.5,24.5,19.5,25.5,11.0,26.5,3.0,27.0" stroke="black" stroke-width="2" fill="none" />
<polyline points="3.5,27.0,11.5,19.5,19.5,11.5,28.0,4.5" stroke="black" stroke-width="2" fill="none" />
<polyline points="18.5,2.5,10.5,9.5,2.5,16.5" stroke="black" stroke-width="2" fill="none" />
<polyline points="3.0,18.5,10.5,18.0,18.0,17.0,26.0,17.0,34.5,16.5,42.5,16.0,51.0,15.0,59.5,14.5,68.0,13.5,76.5,13.0,84.5,12.5" stroke="black" stroke-width="2" fill="none" />
<polyline points="90.0,9.5,81.0,9.5,73.5,10.5,65.5,11.0,57.5,11.5,50.0,12.5,42.5,13.0,34.5,13.5,27.0,14.0,19.5,14.0,12.0,14.0,4.5,14.5" stroke="black" stroke-width="2" fill="none" />
<polyline points="4.5,12.5,12.5,4.5" stroke="black" stroke-width="2" fill="none" />
<polyline points="4.0,4.5,12.0,4.0,20.5,3.5,29.0,3.5,37.0,3.5,44.0,4.0,52.0,4.0,59.0,3.5,66.0,3.0,73.5,2.0,82.0,1.5" stroke="black" stroke-width="2" fill="none" />
<polyline points="81.0,3.5,88.5,13.5,96.0,23.5" stroke="black" stroke-width="2" fill="none" />
<polyline points="100.5,14.5,93.0,15.0,85.0,15.5,77.0,16.0,68.5,16.0,59.5,17.0,51.0,18.0,43.0,19.0,34.5,20.0,26.5,21.0,18.5,22.0,10.5,23.0,2.5,24.0" stroke="black" stroke-width="2" fill="none" />
<polyline points="4.5,8.5,12.5,8.0,20.5,7.5,28.5,7.5,36.0,7.0,43.5,7.5,52.0,7.0,59.5,6.5,67.5,6.5,75.0,6.0" stroke="black" stroke-width="2" fill="none" />
<polyline points="154.5,193.5,162.0,200.5" stroke="black" stroke-width="2" fill="none" />
<polyline points="149.5,211.5,151.5,219.5,153.5,230.0,152.0,238.0,158.0,242.0" stroke="black" stroke-width="2" fill="none" />
<polyline points="190.5,247.0,184.5,255.0,175.0,263.0,157.0,271.0,163.5,267.5,171.5,264.5,179.5,259.5,187.5,251.5,192.5,250.5,200.5,250.0" stroke="black" stroke-width="2" fill="none" />
<polyline points="182.5,278.0,177.0,286.0,169.5,294.5,162.5,302.5" stroke="black" stroke-width="2" fill="none" />
<polyline points="148.5,264.0,147.5,251.5,147.5,244.0,143.5,236.0,139.5,234.0,143.5,223.5,143.5,215.5,140.0,207.5" stroke="black" stroke-width="2" fill="none" />
<polyline points="10.5,227.0,2.0,227.5" stroke="black" stroke-width="2" fill="none" />
</svg>